{"glyphs":{"0":{"ha":1058,"x_min":99,"x_max":1092,"o":"m 460 -26 q 278 19 360 -26 q 147 158 196 64 q 99 399 99 253 q 117 594 99 494 q 172 787 135 693 q 263 962 208 881 q 387 1105 317 1043 q 544 1201 457 1167 q 733 1236 631 1236 q 914 1191 833 1236 q 1043 1053 994 1146 q 1092 813 1092 960 q 1073 617 1092 717 q 1018 423 1054 517 q 928 248 982 329 q 805 105 875 167 q 648 8 735 43 q 460 -26 561 -26 m 483 92 q 617 121 554 92 q 734 201 681 150 q 830 321 788 253 q 901 466 872 389 q 946 624 931 543 q 961 782 961 706 q 928 979 961 906 q 840 1085 896 1053 q 707 1118 783 1118 q 572 1089 635 1118 q 455 1008 508 1060 q 360 890 401 957 q 289 745 318 822 q 244 588 260 668 q 229 429 229 507 q 262 231 229 306 q 352 124 294 157 q 483 92 410 92 z "},"1":{"ha":625,"x_min":168,"x_max":621,"o":"m 253 -19 q 208 -9 222 -19 q 200 22 194 1 l 457 1053 q 391 1009 424 1031 q 328 969 358 988 q 271 938 297 951 q 219 922 240 922 q 183 953 199 922 q 178 1001 168 985 q 224 1038 189 1018 q 299 1082 260 1058 q 377 1133 338 1106 q 451 1190 417 1160 q 489 1219 474 1210 q 521 1232 504 1228 q 565 1236 538 1236 q 608 1226 594 1236 q 615 1196 621 1215 l 325 19 q 303 -10 321 -1 q 253 -19 285 -19 z "},"2":{"ha":921,"x_min":-28,"x_max":967,"o":"m 15 0 q -16 15 -4 0 q -26 51 -28 31 q -6 89 -24 72 l 381 404 q 533 533 465 474 q 651 642 600 592 q 740 738 703 693 q 800 822 776 783 q 835 897 824 861 q 846 964 846 932 q 821 1054 846 1019 q 747 1106 796 1089 q 629 1122 699 1122 q 476 1092 543 1122 q 340 1010 410 1061 q 295 990 314 990 q 253 1015 276 990 q 238 1053 233 1036 q 269 1094 243 1071 q 372 1165 313 1133 q 503 1217 432 1197 q 654 1236 575 1236 q 778 1218 721 1236 q 877 1166 835 1200 q 943 1085 919 1132 q 967 978 967 1038 q 955 890 967 935 q 918 797 943 844 q 852 699 893 750 q 753 589 811 647 q 619 463 696 531 q 447 315 543 394 l 199 111 l 739 111 q 761 103 754 111 q 768 78 768 96 q 753 22 768 43 q 717 0 739 0 l 15 0 z "},"3":{"ha":921,"x_min":31,"x_max":943,"o":"m 399 -26 q 244 6 315 -26 q 121 96 172 39 q 43 229 69 153 q 31 285 31 267 q 65 318 32 304 q 110 325 96 331 q 136 289 125 319 q 200 177 163 222 q 290 108 238 132 q 415 85 343 85 q 547 108 490 85 q 644 171 604 131 q 706 266 685 211 q 726 383 726 321 q 697 494 726 446 q 614 571 668 543 q 482 599 560 599 l 404 599 q 381 613 388 599 q 381 656 375 626 q 400 697 388 683 q 429 710 413 710 l 499 710 q 628 726 569 710 q 728 776 686 743 q 794 855 771 808 q 817 961 817 901 q 803 1031 817 1000 q 762 1083 789 1061 q 698 1115 735 1104 q 617 1125 661 1125 q 520 1110 565 1125 q 435 1067 475 1094 q 360 1006 394 1040 q 320 981 336 981 q 279 1004 304 982 q 260 1044 254 1026 q 289 1089 265 1063 q 377 1161 324 1128 q 497 1215 431 1194 q 638 1236 563 1236 q 756 1218 700 1236 q 853 1165 811 1200 q 919 1080 896 1129 q 943 969 943 1031 q 926 858 943 910 q 877 763 910 806 q 794 690 844 721 q 675 643 743 660 q 773 587 733 624 q 833 500 813 550 q 854 392 854 450 q 822 229 854 306 q 728 95 789 153 q 583 6 667 38 q 399 -26 500 -26 z "},"4":{"ha":938,"x_min":38,"x_max":926,"o":"m 606 -19 q 559 -10 575 -19 q 550 22 543 0 l 624 310 l 85 310 q 47 336 56 310 q 57 389 38 363 l 676 1193 q 712 1226 693 1215 q 764 1236 731 1236 q 801 1231 785 1236 q 822 1211 818 1225 q 807 1174 826 1197 l 221 421 l 651 421 l 749 803 q 817 842 758 842 q 863 832 849 842 q 874 800 878 822 l 776 421 l 897 421 q 919 413 911 421 q 926 388 926 404 q 911 331 926 351 q 874 310 896 310 l 749 310 l 674 19 q 606 -19 664 -19 z "},"5":{"ha":921,"x_min":19,"x_max":1008,"o":"m 404 -26 q 308 -15 356 -26 q 215 19 260 -4 q 130 76 171 42 q 54 153 89 110 q 26 199 32 181 q 46 240 19 218 q 86 263 69 264 q 125 238 103 263 q 210 154 168 188 q 305 104 253 121 q 425 88 357 88 q 568 116 507 88 q 669 194 629 144 q 731 310 710 244 q 751 451 751 376 q 740 540 751 499 q 704 610 729 581 q 639 657 679 640 q 540 674 599 674 q 443 661 489 674 q 358 628 397 649 q 285 582 318 608 q 235 559 263 564 q 191 568 207 554 q 186 618 175 582 l 344 1185 q 359 1206 347 1196 q 389 1215 371 1215 l 979 1215 q 1001 1208 994 1215 q 1008 1182 1008 1200 q 994 1126 1008 1147 q 957 1104 979 1104 l 436 1104 l 326 715 q 392 751 357 736 q 467 776 428 767 q 547 785 506 785 q 731 741 657 785 q 842 625 806 697 q 879 467 879 553 q 844 256 879 347 q 744 101 808 164 q 594 6 681 39 q 404 -26 508 -26 z "},"6":{"ha":990,"x_min":136,"x_max":990,"o":"m 488 -26 q 303 23 382 -26 q 181 166 225 72 q 136 392 136 260 q 174 638 136 521 q 280 853 211 754 q 445 1028 349 951 q 660 1157 542 1106 q 913 1229 779 1208 q 969 1227 953 1235 q 988 1186 985 1219 q 978 1141 990 1151 q 933 1125 965 1131 q 697 1056 803 1104 q 510 936 592 1007 q 374 779 429 865 q 292 595 319 693 q 264 396 264 497 q 283 255 264 314 q 335 158 301 196 q 411 103 368 121 q 504 85 454 85 q 637 112 578 85 q 738 186 696 139 q 802 297 779 233 q 825 431 825 360 q 797 552 825 501 q 719 630 768 603 q 611 657 671 657 q 524 641 568 657 q 440 596 481 625 q 363 530 399 567 q 298 449 326 493 q 250 361 269 406 l 201 439 q 280 575 235 514 q 382 679 325 636 q 503 745 439 722 q 633 768 567 768 q 760 744 703 768 q 860 679 818 721 q 927 580 903 638 q 951 453 951 522 q 918 258 951 346 q 824 107 885 171 q 678 8 763 43 q 488 -26 593 -26 z "},"7":{"ha":747,"x_min":57,"x_max":929,"o":"m 115 -18 q 63 3 69 -15 q 79 54 57 21 l 749 1104 l 210 1104 q 188 1113 194 1104 q 181 1138 181 1121 q 196 1194 181 1172 q 233 1215 211 1215 l 879 1215 q 914 1194 899 1215 q 910 1142 929 1174 l 207 39 q 169 -6 189 8 q 115 -18 149 -21 z "},"8":{"ha":921,"x_min":29,"x_max":965,"o":"m 396 -26 q 245 -6 313 -26 q 129 54 178 15 q 55 149 81 93 q 29 275 29 204 q 57 401 29 343 q 135 507 85 458 q 255 594 186 556 q 403 658 324 632 q 308 741 344 699 q 256 830 272 783 q 239 924 239 876 q 269 1060 239 1001 q 352 1158 299 1118 q 478 1217 406 1197 q 636 1238 550 1238 q 764 1221 704 1238 q 869 1174 824 1204 q 940 1098 914 1143 q 965 994 965 1053 q 942 878 965 931 q 879 783 919 825 q 785 710 839 742 q 669 656 731 678 q 767 574 725 621 q 835 470 810 528 q 860 347 860 413 q 824 184 860 254 q 726 67 789 114 q 579 -3 664 19 q 396 -26 494 -26 m 419 85 q 542 101 486 85 q 642 151 599 118 q 708 232 685 185 q 732 342 732 279 q 706 451 732 403 q 631 535 679 499 q 514 603 582 572 q 377 546 442 579 q 263 472 313 513 q 184 381 213 431 q 156 276 156 332 q 179 186 156 222 q 241 128 203 150 q 326 95 279 106 q 419 85 372 85 m 560 710 q 706 775 643 735 q 804 865 768 815 q 840 967 840 914 q 821 1040 840 1010 q 770 1090 801 1071 q 699 1117 739 1108 q 619 1126 660 1126 q 524 1116 569 1126 q 442 1083 478 1106 q 385 1023 406 1060 q 364 933 364 986 q 391 838 364 879 q 463 765 418 796 q 560 710 507 733 z "},"9":{"ha":990,"x_min":132,"x_max":986,"o":"m 635 1242 q 819 1192 740 1242 q 942 1049 897 1143 q 986 824 986 956 q 949 578 986 694 q 842 363 911 461 q 677 187 774 264 q 463 58 581 110 q 208 -14 344 7 q 153 -12 169 -19 q 133 29 136 -4 q 144 74 132 64 q 189 90 157 85 q 425 160 319 111 q 612 279 531 208 q 748 436 693 350 q 831 620 803 522 q 858 819 858 718 q 840 960 858 901 q 788 1057 821 1019 q 711 1113 754 1094 q 618 1131 668 1131 q 485 1103 544 1131 q 385 1029 426 1076 q 320 919 343 982 q 297 785 297 857 q 326 665 297 715 q 403 586 354 614 q 511 558 451 558 q 599 574 556 558 q 683 619 642 590 q 760 685 724 649 q 824 766 796 722 q 872 854 853 810 l 921 776 q 843 640 889 701 q 740 536 797 579 q 619 470 683 493 q 489 447 556 447 q 363 471 421 447 q 261 536 304 494 q 194 635 218 578 q 171 763 171 693 q 203 957 171 869 q 298 1108 236 1044 q 444 1207 360 1172 q 635 1242 529 1242 z "},"\r":{"ha":417,"x_min":0,"x_max":0,"o":""}," ":{"ha":417,"x_min":0,"x_max":0,"o":""}," ":{"ha":139,"x_min":0,"x_max":0,"o":""}," ":{"ha":417,"x_min":0,"x_max":0,"o":""},"A":{"ha":1043,"x_min":-62,"x_max":939,"o":"m -3 -19 q -51 1 -39 -19 q -43 51 -62 22 l 639 1181 q 676 1224 657 1213 q 731 1236 696 1236 q 774 1223 758 1236 q 793 1168 789 1210 l 933 43 q 923 -2 939 15 q 871 -19 907 -19 q 830 -8 840 -19 q 814 32 819 4 l 779 331 l 263 331 l 82 35 q 47 -9 61 1 q -3 -19 32 -19 m 331 442 l 767 442 l 689 1043 l 331 442 z "},"B":{"ha":1007,"x_min":85,"x_max":1043,"o":"m 147 0 q 96 39 85 0 l 385 1178 q 457 1215 394 1215 l 715 1215 q 886 1192 813 1215 q 1001 1115 960 1168 q 1043 975 1043 1061 q 1010 844 1043 903 q 922 744 976 786 q 803 676 868 701 q 675 646 739 651 l 674 640 q 780 620 729 638 q 870 572 831 603 q 933 498 910 542 q 957 399 957 454 q 930 251 957 315 q 855 138 903 186 q 740 60 807 90 q 593 15 674 29 q 424 0 513 0 l 147 0 m 236 111 l 429 111 q 583 126 510 111 q 710 176 656 142 q 797 263 765 210 q 829 392 829 317 q 810 469 829 433 q 756 531 792 504 q 669 572 721 557 q 553 588 618 588 l 357 588 l 236 111 m 386 699 l 564 699 q 690 717 629 699 q 801 769 751 735 q 881 850 851 803 q 910 956 910 897 q 887 1042 910 1010 q 815 1090 864 1075 q 688 1104 765 1104 l 488 1104 l 386 699 z "},"C":{"ha":1079,"x_min":158,"x_max":1181,"o":"m 579 -26 q 403 7 481 -26 q 270 103 325 40 q 187 256 215 165 q 158 458 158 346 q 177 630 158 542 q 233 806 196 718 q 327 970 271 893 q 458 1108 383 1047 q 626 1202 533 1168 q 831 1236 719 1236 q 970 1220 907 1236 q 1083 1171 1033 1204 q 1169 1086 1133 1138 q 1174 1058 1181 1069 q 1149 1032 1168 1046 q 1117 1014 1131 1017 q 1085 1028 1103 1011 q 1016 1077 1054 1057 q 928 1108 978 1097 q 814 1118 879 1118 q 665 1091 735 1118 q 538 1016 596 1064 q 433 906 479 968 q 354 771 386 843 q 306 623 322 699 q 289 475 289 547 q 308 307 289 379 q 365 187 326 235 q 460 115 403 139 q 596 92 518 92 q 696 108 649 92 q 787 155 743 125 q 873 225 831 185 q 957 315 915 265 q 988 327 972 333 q 1021 306 1004 321 q 1042 276 1040 289 q 1031 243 1044 263 q 874 81 954 139 q 719 -2 794 22 q 579 -26 644 -26 z "},"D":{"ha":1208,"x_min":85,"x_max":1189,"o":"m 147 0 q 96 39 85 0 l 385 1178 q 408 1206 390 1197 q 456 1215 425 1215 l 676 1215 q 903 1181 807 1215 q 1063 1089 1000 1147 q 1158 955 1126 1031 q 1189 794 1189 879 q 1149 533 1189 654 q 1037 313 1110 411 q 864 145 964 215 q 643 38 764 75 q 388 0 522 0 l 147 0 m 238 118 l 388 118 q 593 147 494 118 q 776 233 692 176 q 922 373 860 290 q 1018 562 983 456 q 1053 794 1053 668 q 1026 920 1053 864 q 950 1015 1000 976 q 831 1076 900 1054 q 675 1097 761 1097 l 486 1097 l 238 118 z "},"E":{"ha":921,"x_min":94,"x_max":1075,"o":"m 158 0 q 109 13 124 0 q 103 56 94 25 l 383 1178 q 403 1206 388 1196 q 447 1215 419 1215 l 1047 1215 q 1069 1202 1063 1215 q 1069 1160 1075 1189 q 1051 1118 1064 1132 q 1022 1104 1039 1104 l 488 1104 l 385 699 l 828 699 q 851 685 844 699 q 853 643 857 672 q 833 601 846 615 q 804 588 819 588 l 357 588 l 239 111 l 769 111 q 792 98 786 111 q 793 56 799 85 q 774 14 788 28 q 746 0 761 0 l 158 0 z "},"F":{"ha":868,"x_min":82,"x_max":1063,"o":"m 142 -19 q 92 19 82 -19 l 383 1178 q 407 1206 389 1197 q 456 1215 425 1215 l 1033 1215 q 1056 1202 1050 1215 q 1058 1160 1063 1189 q 1039 1118 1051 1132 q 1010 1104 1026 1104 l 488 1104 l 375 664 l 818 664 q 840 649 835 664 q 839 606 846 635 q 818 566 831 579 q 789 553 806 553 l 347 553 l 215 19 q 190 -10 210 0 q 142 -19 171 -19 z "},"G":{"ha":1218,"x_min":158,"x_max":1181,"o":"m 579 -26 q 403 8 481 -25 q 270 104 325 42 q 187 256 215 167 q 158 458 158 346 q 177 630 158 542 q 233 806 196 718 q 327 970 271 893 q 458 1108 383 1047 q 626 1202 533 1168 q 831 1236 719 1236 q 970 1220 907 1236 q 1083 1171 1033 1204 q 1169 1086 1133 1138 q 1174 1058 1181 1069 q 1149 1032 1168 1046 q 1117 1014 1131 1017 q 1085 1028 1103 1011 q 1016 1077 1054 1057 q 928 1108 978 1097 q 814 1118 879 1118 q 665 1091 735 1118 q 538 1016 596 1064 q 433 906 479 968 q 354 771 386 843 q 306 623 322 699 q 289 475 289 547 q 308 307 289 379 q 365 187 326 235 q 460 115 403 139 q 596 92 518 92 q 703 108 651 92 q 803 158 756 125 q 892 245 850 192 q 967 372 933 299 q 1026 539 1001 444 l 711 539 q 685 551 690 539 q 689 594 681 564 q 708 638 697 626 q 740 650 719 650 l 1140 650 q 1166 638 1161 650 q 1165 594 1171 626 q 1064 297 1128 417 q 920 106 1000 178 q 752 4 840 35 q 579 -26 664 -26 z "},"H":{"ha":1233,"x_min":82,"x_max":1286,"o":"m 143 -19 q 92 19 82 -19 l 389 1199 q 412 1227 394 1218 q 458 1236 429 1236 q 510 1199 522 1236 l 383 693 l 1025 693 l 1153 1199 q 1176 1227 1158 1218 q 1222 1236 1193 1236 q 1274 1199 1286 1236 l 976 19 q 955 -10 972 0 q 907 -19 938 -19 q 856 19 846 -19 l 997 582 l 356 582 l 213 19 q 191 -10 208 0 q 143 -19 174 -19 z "},"I":{"ha":469,"x_min":88,"x_max":515,"o":"m 147 -19 q 102 -10 117 -19 q 92 22 88 0 l 385 1199 q 408 1227 390 1218 q 456 1236 425 1236 q 501 1226 486 1236 q 510 1196 515 1217 l 215 19 q 195 -10 211 0 q 147 -19 179 -19 z "},"J":{"ha":903,"x_min":15,"x_max":974,"o":"m 354 -26 q 216 2 286 -26 q 92 85 146 31 q 21 219 39 140 q 26 252 15 242 q 58 268 36 263 q 105 271 90 276 q 129 240 119 265 q 178 160 146 194 q 254 109 210 126 q 354 92 299 92 q 429 99 394 92 q 494 122 464 106 q 549 168 524 139 q 596 241 575 197 q 632 347 617 285 l 847 1199 q 870 1227 853 1218 q 917 1236 888 1236 q 960 1227 947 1236 q 968 1199 974 1218 l 754 347 q 703 201 733 263 q 637 96 674 139 q 556 25 600 53 q 461 -15 511 -3 q 354 -26 411 -26 z "},"K":{"ha":954,"x_min":86,"x_max":1110,"o":"m 142 -19 q 99 -10 111 -19 q 90 19 86 0 l 389 1199 q 460 1236 399 1236 q 511 1199 521 1236 l 388 713 l 1017 1218 q 1058 1233 1042 1238 q 1092 1207 1074 1229 q 1108 1169 1110 1183 q 1081 1133 1107 1154 l 451 633 q 582 419 518 517 q 713 236 646 322 q 856 67 781 150 q 870 28 874 46 q 839 -12 867 10 q 799 -24 818 -26 q 767 -6 781 -21 q 650 135 707 61 q 542 285 593 208 q 444 439 490 361 q 357 594 397 517 l 211 19 q 190 -10 207 0 q 142 -19 172 -19 z "},"L":{"ha":868,"x_min":89,"x_max":771,"o":"m 150 0 q 103 56 89 0 l 389 1199 q 408 1227 394 1218 q 453 1236 422 1236 q 500 1226 485 1236 q 508 1196 515 1217 l 238 111 l 742 111 q 765 98 758 111 q 764 56 771 85 q 746 14 758 28 q 717 0 733 0 l 150 0 z "},"N":{"ha":1233,"x_min":82,"x_max":1286,"o":"m 143 -19 q 92 19 82 -19 l 389 1199 q 412 1227 394 1218 q 458 1236 429 1236 q 497 1227 483 1236 q 519 1199 511 1218 l 906 224 l 1153 1199 q 1176 1227 1158 1218 q 1222 1236 1193 1236 q 1274 1199 1286 1236 l 976 19 q 955 -10 972 0 q 908 -19 938 -19 q 875 -12 886 -19 q 856 19 864 -6 l 464 1008 l 213 19 q 191 -10 208 0 q 143 -19 174 -19 z "},"O":{"ha":1285,"x_min":164,"x_max":1250,"o":"m 608 -26 q 426 10 508 -26 q 285 112 343 46 q 195 270 226 178 q 164 475 164 363 q 181 646 164 558 q 235 819 199 733 q 324 979 271 904 q 449 1113 378 1054 q 611 1203 521 1171 q 807 1236 701 1236 q 990 1201 908 1236 q 1129 1099 1071 1165 q 1219 940 1188 1032 q 1250 735 1250 847 q 1231 555 1250 646 q 1175 378 1213 464 q 1083 220 1138 293 q 958 92 1029 147 q 799 5 886 36 q 608 -26 713 -26 m 625 92 q 773 118 706 92 q 895 191 840 144 q 993 299 950 238 q 1064 430 1036 360 q 1107 574 1092 500 q 1122 718 1122 647 q 1100 890 1122 815 q 1035 1015 1078 964 q 932 1092 993 1067 q 792 1118 871 1118 q 646 1092 714 1118 q 522 1018 578 1065 q 424 909 467 971 q 352 777 382 847 q 308 635 322 707 q 293 492 293 563 q 315 321 293 396 q 378 195 336 246 q 483 118 421 144 q 625 92 544 92 z "},"P":{"ha":972,"x_min":83,"x_max":1074,"o":"m 149 -19 q 93 22 83 -19 l 383 1178 q 406 1206 389 1197 q 453 1215 422 1215 l 678 1215 q 897 1185 810 1215 q 1029 1092 985 1154 q 1074 936 1074 1031 q 1033 753 1074 831 q 919 623 992 675 q 749 539 846 571 q 539 492 651 507 q 432 483 488 486 q 331 479 376 479 l 215 19 q 195 -10 210 0 q 149 -19 181 -19 m 357 590 q 425 592 389 590 q 498 597 461 593 q 568 604 535 600 q 771 663 686 624 q 902 766 856 701 q 949 924 949 831 q 918 1028 949 988 q 825 1086 888 1068 q 663 1104 763 1104 l 488 1104 l 357 590 z "},"Q":{"ha":1285,"x_min":164,"x_max":1250,"o":"m 854 -260 q 813 -259 831 -268 q 785 -226 794 -250 l 610 194 q 610 241 600 221 q 646 269 619 261 q 688 267 669 276 q 714 235 706 257 l 889 -187 q 890 -232 900 -212 q 854 -260 881 -251 m 608 -26 q 426 10 508 -26 q 285 112 343 46 q 195 270 226 178 q 164 475 164 363 q 181 646 164 558 q 235 819 199 733 q 324 979 271 904 q 449 1113 378 1054 q 611 1203 521 1171 q 807 1236 701 1236 q 990 1201 908 1236 q 1129 1099 1071 1165 q 1219 940 1188 1032 q 1250 735 1250 847 q 1231 555 1250 646 q 1175 378 1213 464 q 1083 220 1138 293 q 958 92 1029 147 q 799 5 886 36 q 608 -26 713 -26 m 625 92 q 773 118 706 92 q 895 191 840 144 q 993 299 950 238 q 1064 430 1036 360 q 1107 574 1092 500 q 1122 718 1122 647 q 1100 890 1122 815 q 1035 1015 1078 964 q 932 1092 993 1067 q 792 1118 871 1118 q 646 1092 714 1118 q 522 1018 578 1065 q 424 909 467 971 q 352 777 382 847 q 308 635 322 707 q 293 492 293 563 q 315 321 293 396 q 378 195 336 246 q 483 118 421 144 q 625 92 544 92 z "},"R":{"ha":964,"x_min":89,"x_max":1043,"o":"m 149 -19 q 103 -10 118 -19 q 93 22 89 0 l 383 1178 q 406 1206 389 1197 q 453 1215 422 1215 l 636 1215 q 868 1190 778 1215 q 1001 1107 958 1165 q 1043 950 1043 1049 q 1025 841 1043 892 q 974 747 1007 790 q 891 668 940 703 q 778 607 842 633 q 638 565 715 581 q 471 546 561 550 q 578 384 521 464 q 703 226 636 304 q 850 72 771 149 q 867 42 863 61 q 840 -6 871 22 q 801 -21 821 -24 q 763 -1 781 -18 q 610 160 686 72 q 465 343 533 247 q 342 532 396 439 l 215 19 q 195 -10 210 0 q 149 -19 181 -19 m 369 643 q 511 649 446 643 q 633 668 576 656 q 734 699 689 681 q 813 743 779 718 q 871 799 847 768 q 906 865 894 829 q 918 943 918 901 q 892 1041 918 1006 q 801 1090 865 1076 q 626 1104 738 1104 l 488 1104 l 369 643 z "},"S":{"ha":956,"x_min":47,"x_max":976,"o":"m 431 -26 q 315 -12 369 -26 q 213 28 260 3 q 126 89 165 54 q 58 163 88 124 q 53 194 47 179 q 74 221 58 208 q 109 242 94 238 q 139 229 124 246 q 213 163 169 194 q 310 112 256 132 q 431 92 365 92 q 551 106 496 92 q 646 149 606 121 q 708 221 686 176 q 731 325 731 265 q 717 398 731 365 q 678 459 704 431 q 616 511 653 488 q 529 560 579 535 q 442 608 483 582 q 365 665 400 635 q 303 733 329 696 q 262 817 276 771 q 247 921 247 864 q 274 1049 247 990 q 353 1149 301 1107 q 478 1213 406 1190 q 640 1236 550 1236 q 770 1217 713 1236 q 876 1165 828 1197 q 963 1094 924 1132 q 974 1065 976 1081 q 953 1033 971 1049 q 920 1013 936 1017 q 889 1021 904 1010 q 822 1069 857 1047 q 744 1105 788 1092 q 640 1118 701 1118 q 533 1106 582 1118 q 449 1069 483 1093 q 395 1008 414 1044 q 376 921 376 971 q 388 842 376 876 q 424 778 399 807 q 490 722 450 749 q 589 669 531 696 q 698 606 649 640 q 784 531 747 572 q 840 438 821 489 q 858 325 858 388 q 827 180 858 244 q 738 69 796 115 q 602 -1 681 24 q 431 -26 524 -26 z "},"T":{"ha":958,"x_min":218,"x_max":1151,"o":"m 386 -21 q 335 18 328 -21 l 610 1104 l 251 1104 q 224 1117 231 1104 q 226 1160 218 1129 q 247 1203 235 1192 q 279 1215 258 1215 l 1119 1215 q 1146 1203 1140 1215 q 1143 1160 1151 1192 q 1124 1117 1135 1129 q 1092 1104 1113 1104 l 732 1104 l 456 18 q 434 -11 451 -1 q 386 -21 417 -21 z "},"U":{"ha":1199,"x_min":153,"x_max":1251,"o":"m 532 -26 q 350 2 428 -26 q 225 85 272 31 q 165 219 178 139 q 179 403 153 300 l 375 1199 q 396 1227 381 1218 q 444 1236 411 1236 q 492 1226 476 1236 q 501 1196 507 1217 l 299 392 q 295 220 272 286 q 381 123 318 154 q 539 92 444 92 q 722 127 644 92 q 851 229 800 163 q 925 392 903 296 l 1118 1199 q 1139 1227 1124 1218 q 1186 1236 1154 1236 q 1242 1196 1251 1236 l 1047 379 q 944 158 1015 249 q 768 21 872 68 q 532 -26 664 -26 z "},"V":{"ha":1007,"x_min":229,"x_max":1210,"o":"m 411 -19 q 369 -6 385 -19 q 349 49 353 7 l 232 1174 q 244 1217 229 1200 q 294 1235 260 1233 q 336 1228 325 1238 q 350 1193 347 1218 l 453 175 l 1067 1189 q 1103 1229 1088 1221 q 1153 1235 1119 1238 q 1199 1213 1188 1233 q 1192 1167 1210 1193 l 503 36 q 465 -7 483 6 q 411 -19 446 -19 z "},"W":{"ha":1667,"x_min":229,"x_max":1869,"o":"m 396 -19 q 352 -6 368 -19 q 332 49 336 8 l 231 1174 q 244 1217 229 1200 q 293 1235 258 1233 q 336 1228 325 1238 q 350 1192 347 1218 l 436 186 l 963 1182 q 999 1226 982 1217 q 1050 1236 1015 1236 q 1093 1225 1082 1236 q 1107 1186 1104 1214 l 1201 183 l 1728 1188 q 1764 1229 1747 1221 q 1814 1235 1781 1238 q 1859 1213 1849 1233 q 1853 1167 1869 1193 l 1251 36 q 1215 -7 1235 6 q 1160 -19 1194 -19 q 1117 -6 1132 -19 q 1097 49 1101 8 l 1001 1008 l 486 36 q 450 -7 471 6 q 396 -19 429 -19 z "},"X":{"ha":954,"x_min":-29,"x_max":1114,"o":"m 772 -15 q 730 -13 746 -19 q 704 22 714 -7 l 528 508 l 106 22 q 63 -12 83 -4 q 14 -15 42 -19 q -15 -3 -3 -12 q -28 24 -28 7 q -8 63 -29 40 l 485 628 l 293 1154 q 296 1209 283 1189 q 338 1233 308 1229 q 381 1230 365 1236 q 407 1194 396 1224 l 576 732 l 978 1194 q 1023 1229 1003 1222 q 1069 1233 1043 1236 q 1099 1221 1086 1231 q 1113 1194 1113 1211 q 1094 1154 1114 1178 l 618 613 l 815 63 q 814 9 826 31 q 772 -15 801 -12 z "},"Y":{"ha":851,"x_min":213,"x_max":1071,"o":"m 321 -19 q 269 19 260 -19 l 400 529 l 219 1171 q 226 1213 213 1196 q 274 1233 239 1231 q 317 1226 304 1236 q 336 1193 329 1217 l 485 661 l 924 1193 q 963 1226 944 1217 q 1014 1233 981 1236 q 1059 1210 1047 1231 q 1049 1164 1071 1189 l 522 528 l 393 19 q 321 -19 383 -19 z "},"Z":{"ha":851,"x_min":-62,"x_max":1036,"o":"m -26 0 q -53 13 -43 0 q -62 46 -62 26 q -49 81 -61 65 l 831 1104 l 288 1104 q 265 1118 271 1104 q 264 1160 258 1132 q 283 1202 269 1189 q 313 1215 296 1215 l 993 1215 q 1027 1188 1018 1215 q 1014 1136 1036 1160 l 138 111 l 739 111 q 762 98 756 111 q 763 56 768 85 q 744 14 757 28 q 715 0 732 0 l -26 0 z "},"Æ":{"ha":1339,"x_min":-60,"x_max":1493,"o":"m 1164 0 l 647 0 q 598 13 613 0 q 590 56 583 25 l 715 553 l 457 553 l 64 4 q 31 -19 51 -14 q -17 -17 11 -24 q -51 10 -43 -8 q -46 47 -60 28 l 761 1171 q 794 1206 778 1196 q 839 1215 811 1215 l 1465 1215 q 1487 1202 1481 1215 q 1488 1160 1493 1189 q 1469 1118 1482 1132 q 1440 1104 1457 1104 l 976 1104 l 867 664 l 1239 664 q 1262 651 1256 664 q 1261 608 1268 638 q 1243 567 1256 581 q 1214 553 1231 553 l 839 553 l 728 111 l 1188 111 q 1210 98 1204 111 q 1211 56 1217 85 q 1192 14 1206 28 q 1164 0 1179 0 m 536 664 l 743 664 l 854 1111 l 536 664 z "},"Ð":{"ha":1208,"x_min":85,"x_max":1189,"o":"m 147 0 q 96 39 85 0 l 385 1178 q 408 1206 390 1197 q 456 1215 425 1215 l 676 1215 q 903 1181 807 1215 q 1063 1089 1000 1147 q 1158 955 1126 1031 q 1189 794 1189 879 q 1149 533 1189 654 q 1037 313 1110 411 q 864 145 964 215 q 643 38 764 75 q 388 0 522 0 l 147 0 m 238 118 l 388 118 q 593 147 494 118 q 776 233 692 176 q 922 373 860 290 q 1018 562 983 456 q 1053 794 1053 668 q 1026 920 1053 864 q 950 1015 1000 976 q 831 1076 900 1054 q 675 1097 761 1097 l 486 1097 l 238 118 m 125 565 q 96 581 100 565 q 96 614 92 596 q 108 650 99 633 q 143 667 117 667 l 649 667 q 678 650 675 667 q 679 614 682 633 q 666 581 675 596 q 632 565 657 565 l 125 565 z "},"Ĳ":{"ha":1372,"x_min":88,"x_max":1443,"o":"m 147 -19 q 102 -10 117 -19 q 92 22 88 0 l 385 1199 q 408 1227 390 1218 q 456 1236 425 1236 q 501 1226 486 1236 q 510 1196 515 1217 l 215 19 q 195 -10 211 0 q 147 -19 179 -19 m 824 -26 q 685 2 756 -26 q 562 85 615 31 q 490 219 508 140 q 495 252 485 242 q 528 268 506 263 q 574 271 560 276 q 599 240 589 265 q 647 160 615 194 q 724 109 679 126 q 824 92 768 92 q 899 99 864 92 q 963 122 933 106 q 1019 168 993 139 q 1065 241 1044 197 q 1101 347 1086 285 l 1317 1199 q 1340 1227 1322 1218 q 1386 1236 1357 1236 q 1430 1227 1417 1236 q 1438 1199 1443 1218 l 1224 347 q 1173 201 1203 263 q 1106 96 1143 139 q 1025 25 1069 53 q 931 -15 981 -3 q 824 -26 881 -26 z "},"Ŋ":{"ha":1233,"x_min":82,"x_max":1286,"o":"m 933 -151 q 882 -280 911 -236 q 817 -339 853 -324 q 738 -354 781 -354 q 653 -330 693 -354 q 583 -264 613 -306 q 571 -228 569 -244 q 597 -193 572 -211 q 635 -178 618 -178 q 664 -194 651 -178 q 693 -226 681 -212 q 719 -244 706 -239 q 744 -250 732 -250 q 776 -237 764 -250 q 797 -199 788 -225 q 819 -129 807 -172 l 856 19 l 464 1008 l 213 19 q 191 -10 208 0 q 143 -19 174 -19 q 92 19 82 -19 l 389 1199 q 412 1227 394 1218 q 458 1236 429 1236 q 497 1227 483 1236 q 519 1199 511 1218 l 906 224 l 1153 1199 q 1176 1227 1158 1218 q 1222 1236 1193 1236 q 1274 1199 1286 1236 l 933 -151 z "},"Œ":{"ha":1776,"x_min":164,"x_max":1931,"o":"m 594 -26 q 419 10 497 -26 q 283 112 340 46 q 195 270 226 178 q 164 475 164 363 q 182 646 164 558 q 235 819 200 733 q 322 979 269 904 q 445 1113 375 1054 q 603 1203 515 1171 q 794 1236 690 1236 q 967 1199 890 1236 q 1097 1093 1043 1161 q 1180 934 1151 1025 q 1208 735 1208 843 q 1191 565 1208 653 q 1138 391 1174 476 q 1051 231 1103 306 q 931 97 999 156 q 778 6 863 39 q 594 -26 694 -26 m 615 92 q 760 118 694 92 q 881 191 826 144 q 976 299 935 238 q 1045 430 1017 360 q 1088 574 1074 500 q 1103 718 1103 647 q 1081 890 1103 815 q 1019 1015 1060 964 q 918 1092 978 1067 q 781 1118 858 1118 q 638 1092 704 1118 q 519 1018 572 1065 q 423 909 465 971 q 352 777 381 847 q 309 635 324 707 q 294 492 294 563 q 315 321 294 396 q 377 195 336 246 q 478 118 418 144 q 615 92 539 92 m 1014 0 q 965 13 979 0 q 957 56 950 25 l 1239 1178 q 1259 1206 1243 1196 q 1303 1215 1275 1215 l 1901 1215 q 1924 1202 1918 1215 q 1924 1160 1931 1189 q 1906 1118 1919 1132 q 1876 1104 1893 1104 l 1342 1104 l 1240 699 l 1683 699 q 1706 685 1700 699 q 1707 643 1713 672 q 1688 601 1701 615 q 1658 588 1675 588 l 1213 588 l 1094 111 l 1624 111 q 1647 98 1640 111 q 1647 56 1654 85 q 1629 14 1642 28 q 1600 0 1617 0 l 1014 0 z "},"Þ":{"ha":1007,"x_min":89,"x_max":1032,"o":"m 149 -19 q 103 -10 118 -19 q 93 22 89 0 l 390 1199 q 410 1227 394 1218 q 456 1236 425 1236 q 502 1226 488 1236 q 513 1196 517 1217 l 476 1060 l 639 1060 q 857 1029 769 1060 q 988 936 944 999 q 1032 779 1032 874 q 991 597 1032 674 q 877 467 950 519 q 708 382 804 414 q 500 336 611 350 q 392 326 449 329 q 290 324 336 324 l 215 19 q 195 -10 210 0 q 149 -19 181 -19 m 318 435 q 384 436 349 435 q 456 440 419 438 q 528 449 493 443 q 730 506 644 467 q 861 610 815 546 q 907 767 907 675 q 877 872 907 832 q 784 931 847 913 q 624 949 721 949 l 447 949 l 318 435 z "},"ẞ":{"ha":1233,"x_min":81,"x_max":1096,"o":"m 660 -26 q 563 -18 611 -26 q 472 6 515 -10 q 394 43 429 21 q 367 71 372 56 q 375 113 361 86 q 403 147 388 139 q 444 140 418 154 q 510 114 476 125 q 583 97 544 103 q 668 92 622 92 q 780 107 728 92 q 873 153 832 122 q 937 231 914 183 q 958 340 960 278 q 945 426 958 386 q 908 501 932 465 q 856 568 885 536 q 797 630 826 600 q 738 690 767 660 q 686 751 708 719 q 650 819 664 783 q 636 894 636 854 q 654 981 638 942 q 701 1052 671 1019 q 771 1107 731 1085 q 601 1043 669 1085 q 489 945 533 1001 q 417 822 444 889 q 372 681 390 754 l 206 19 q 184 -10 201 0 q 136 -19 167 -19 q 93 -10 106 -19 q 85 19 81 0 l 251 681 q 313 867 276 781 q 406 1021 349 953 q 547 1138 464 1089 q 751 1211 631 1186 q 1035 1236 871 1236 l 1065 1236 q 1091 1224 1086 1236 q 1088 1179 1096 1211 q 1069 1135 1082 1149 q 1036 1122 1057 1122 q 933 1109 982 1122 q 844 1070 883 1096 q 783 1007 806 1044 q 761 919 760 969 q 776 854 763 885 q 814 795 790 824 q 867 738 838 767 q 926 678 896 710 q 986 613 957 647 q 1038 537 1015 578 q 1074 447 1061 496 q 1088 340 1088 399 q 1055 188 1088 256 q 963 72 1022 121 q 826 -1 904 24 q 660 -26 749 -26 z "},"ŋ":{"ha":851,"x_min":42,"x_max":775,"o":"m 597 -151 q 545 -281 575 -237 q 480 -339 515 -324 q 401 -354 444 -354 q 317 -330 357 -354 q 249 -264 276 -306 q 235 -228 235 -244 q 260 -193 235 -211 q 298 -178 281 -178 q 329 -194 315 -178 q 371 -237 353 -224 q 408 -250 389 -250 q 451 -222 436 -250 q 483 -129 465 -194 l 640 482 q 649 547 649 518 q 636 592 650 575 q 585 610 622 610 q 483 571 536 610 q 376 460 431 532 q 272 290 322 389 q 179 74 221 192 l 168 15 q 149 -12 164 -3 q 103 -21 135 -21 q 60 -11 79 -21 q 50 22 42 -1 l 211 672 q 233 707 219 699 q 274 715 246 715 q 326 703 314 715 q 331 665 339 690 l 276 444 q 357 566 314 514 q 444 653 400 618 q 534 704 489 688 q 624 721 579 721 q 722 692 685 721 q 767 606 758 664 q 753 461 775 549 l 597 -151 z "},"$":{"ha":928,"x_min":35,"x_max":964,"o":"m 418 -26 q 302 -12 357 -26 q 199 28 247 3 q 113 89 151 54 q 44 163 75 124 q 40 194 35 179 q 61 221 46 208 q 95 242 81 238 q 126 229 110 246 q 200 163 157 194 q 298 112 243 132 q 418 92 353 92 q 538 106 483 92 q 633 149 593 121 q 696 221 674 176 q 718 325 718 265 q 705 398 718 365 q 666 459 692 431 q 603 511 640 488 q 517 560 567 535 q 429 608 472 582 q 351 665 386 635 q 290 733 315 696 q 249 817 264 771 q 235 921 235 864 q 263 1049 235 990 q 342 1149 290 1107 q 466 1213 393 1190 q 628 1236 539 1236 q 758 1217 700 1236 q 863 1165 815 1197 q 950 1094 911 1132 q 961 1065 964 1081 q 940 1033 958 1049 q 908 1013 924 1017 q 876 1021 892 1010 q 810 1069 844 1047 q 733 1105 775 1092 q 628 1118 690 1118 q 520 1106 569 1118 q 436 1069 471 1093 q 383 1008 401 1044 q 364 921 364 971 q 375 842 364 876 q 412 778 386 807 q 478 722 438 749 q 576 669 518 696 q 686 606 638 640 q 771 531 735 572 q 826 438 807 489 q 846 325 846 388 q 815 180 846 244 q 726 69 783 115 q 590 -1 668 24 q 418 -26 511 -26 m 318 -208 q 271 -169 261 -208 l 668 1401 q 733 1439 678 1439 q 779 1401 789 1439 l 382 -169 q 318 -208 372 -208 z "},"€":{"ha":1076,"x_min":74,"x_max":1140,"o":"m 572 -26 q 413 12 481 -26 q 299 117 344 50 q 230 271 253 183 q 207 457 207 358 q 228 635 207 544 q 287 814 249 726 q 380 978 325 901 q 504 1113 435 1054 q 656 1203 574 1171 q 829 1236 738 1236 q 948 1218 892 1236 q 1050 1165 1004 1200 q 1129 1075 1096 1129 q 1138 1046 1140 1060 q 1113 1017 1135 1032 q 1076 1003 1092 1001 q 1047 1019 1061 1006 q 983 1074 1018 1051 q 907 1108 947 1096 q 821 1119 867 1119 q 686 1090 750 1119 q 567 1011 622 1061 q 470 894 513 961 q 397 753 428 828 q 349 603 365 679 q 332 457 332 528 q 349 306 332 374 q 397 191 365 239 q 475 117 428 143 q 582 90 522 90 q 667 99 625 90 q 751 126 710 108 q 828 169 792 144 q 897 225 865 193 q 930 241 915 240 q 963 228 944 242 q 985 197 982 213 q 974 164 988 182 q 847 56 915 99 q 709 -6 779 14 q 572 -26 639 -26 m 158 671 q 132 682 138 671 q 135 724 126 693 q 154 767 143 756 q 186 778 165 778 l 883 778 q 910 767 904 778 q 907 724 917 756 q 888 682 900 693 q 856 671 876 671 l 158 671 m 106 463 q 79 474 85 463 q 82 515 74 485 q 101 558 90 547 q 133 569 113 569 l 829 569 q 857 558 850 569 q 854 515 864 547 q 835 474 847 485 q 803 463 824 463 l 106 463 z "},"¢":{"ha":736,"x_min":69,"x_max":725,"o":"m 329 -26 q 183 10 242 -26 q 97 108 125 46 q 69 250 69 171 q 85 381 69 314 q 135 508 101 447 q 217 617 168 569 q 330 693 265 665 q 474 721 394 721 q 564 710 522 721 q 641 676 606 699 q 706 618 676 653 q 719 578 725 594 q 697 546 714 561 q 661 528 679 531 q 625 546 643 526 q 583 580 606 565 q 531 602 560 594 q 463 610 501 610 q 367 588 410 610 q 292 531 325 567 q 238 449 260 494 q 205 353 217 403 q 193 257 193 304 q 210 166 193 204 q 259 107 226 128 q 342 85 292 86 q 430 104 390 85 q 503 156 469 124 q 568 222 538 188 q 606 237 585 242 q 642 217 626 232 q 661 185 658 201 q 647 149 664 169 q 544 45 597 83 q 438 -10 492 7 q 329 -26 383 -26 m 247 -208 q 201 -169 192 -208 l 469 886 q 533 924 479 924 q 581 886 590 924 l 313 -169 q 247 -208 303 -208 z "},"£":{"ha":938,"x_min":-29,"x_max":1042,"o":"m 1 0 q -26 15 -22 0 q -22 60 -29 31 q -1 101 -14 92 q 29 111 11 111 l 197 111 l 289 471 l 150 471 q 124 483 129 471 q 125 525 118 494 q 145 567 133 557 q 178 578 157 578 l 317 578 l 410 943 q 476 1102 435 1036 q 583 1202 518 1168 q 738 1236 647 1236 q 905 1203 826 1236 q 1026 1122 983 1169 q 1041 1088 1042 1106 q 1018 1050 1040 1069 q 980 1031 997 1031 q 942 1049 963 1032 q 840 1104 896 1085 q 733 1124 783 1124 q 601 1076 647 1124 q 529 933 554 1029 l 438 578 l 728 578 q 753 567 749 578 q 751 525 758 557 q 732 483 743 494 q 700 471 721 471 l 410 471 l 318 111 l 825 111 q 851 100 844 111 q 850 60 857 89 q 832 15 843 29 q 797 0 821 0 l 1 0 z "},"¥":{"ha":928,"x_min":96,"x_max":1101,"o":"m 368 -19 q 317 19 307 -19 l 382 278 l 126 278 q 101 290 106 278 q 103 332 96 301 q 122 375 110 364 q 154 386 133 386 l 410 386 l 435 486 l 178 486 q 152 498 157 486 q 154 540 147 510 q 174 583 163 572 q 207 594 186 594 l 426 594 l 250 1171 q 256 1213 243 1196 q 304 1233 269 1231 q 347 1226 335 1236 q 367 1193 360 1217 l 533 661 l 954 1193 q 992 1226 974 1217 q 1044 1233 1011 1236 q 1089 1210 1076 1231 q 1079 1164 1101 1189 l 622 594 l 853 594 q 879 583 874 594 q 876 540 885 572 q 857 498 869 510 q 824 486 844 486 l 558 486 l 533 386 l 800 386 q 826 375 821 386 q 825 332 832 364 q 806 290 818 301 q 772 278 793 278 l 506 278 l 440 19 q 368 -19 431 -19 z "},"%":{"ha":1146,"x_min":81,"x_max":1174,"o":"m 389 701 q 276 730 324 701 q 204 808 229 758 q 179 918 179 857 q 192 1005 179 960 q 228 1091 204 1050 q 288 1165 253 1132 q 365 1217 322 1199 q 460 1236 408 1236 q 572 1208 525 1236 q 643 1134 618 1181 q 668 1026 668 1088 q 656 938 668 983 q 619 851 643 893 q 560 774 594 808 q 483 721 526 740 q 389 701 440 701 m 399 807 q 451 819 428 807 q 492 853 474 832 q 524 902 511 875 q 543 959 536 929 q 550 1018 550 989 q 522 1103 550 1076 q 453 1131 494 1131 q 397 1117 422 1131 q 353 1083 372 1104 q 322 1034 335 1061 q 303 978 310 1007 q 297 924 297 950 q 325 836 297 865 q 399 807 353 807 m 172 -12 q 143 -28 158 -28 q 107 -12 128 -29 q 83 17 85 6 q 94 46 81 29 l 1082 1222 q 1110 1238 1096 1238 q 1146 1222 1124 1239 q 1171 1193 1168 1206 q 1160 1164 1174 1181 l 172 -12 m 813 -26 q 701 2 747 -26 q 628 80 654 31 q 603 190 603 129 q 615 277 603 232 q 652 363 628 322 q 711 438 676 404 q 789 490 746 471 q 883 508 832 508 q 995 481 949 508 q 1067 407 1042 454 q 1092 300 1092 360 q 1079 211 1092 257 q 1042 124 1067 165 q 984 48 1018 82 q 907 -6 950 14 q 813 -26 864 -26 m 822 81 q 874 93 851 81 q 916 127 897 106 q 947 176 935 149 q 967 232 960 203 q 974 290 974 261 q 946 376 974 349 q 876 403 918 403 q 821 390 846 403 q 777 356 796 376 q 746 308 758 335 q 727 251 733 281 q 721 196 721 222 q 749 109 721 138 q 822 81 776 81 z "},".":{"ha":435,"x_min":54,"x_max":229,"o":"m 135 -47 q 74 -27 93 -47 q 54 31 54 -7 q 76 107 54 81 q 146 133 99 133 q 208 113 188 133 q 229 57 229 93 q 206 -20 229 7 q 135 -47 182 -47 z "},",":{"ha":435,"x_min":-25,"x_max":215,"o":"m 22 -253 q -9 -239 7 -253 q -25 -211 -25 -225 q -23 -197 -25 -204 q -15 -181 -21 -189 q 39 -94 19 -132 q 67 -20 58 -57 q 78 64 76 17 q 97 107 79 90 q 150 124 115 124 q 199 108 182 124 q 215 68 215 92 q 197 -35 215 21 q 143 -142 178 -90 q 63 -233 108 -194 q 42 -248 53 -243 q 22 -253 32 -253 z "},":":{"ha":435,"x_min":54,"x_max":374,"o":"m 135 -47 q 74 -27 93 -47 q 54 31 54 -7 q 76 107 54 81 q 146 133 99 133 q 208 113 188 133 q 229 57 229 93 q 206 -20 229 7 q 135 -47 182 -47 m 279 558 q 218 578 238 558 q 199 636 199 599 q 221 713 199 686 q 290 739 243 739 q 353 719 332 739 q 374 663 374 699 q 350 585 374 613 q 279 558 326 558 z "},";":{"ha":435,"x_min":-11,"x_max":374,"o":"m 279 558 q 218 578 238 558 q 199 636 199 599 q 221 713 199 686 q 290 739 243 739 q 353 719 332 739 q 374 663 374 699 q 350 585 374 613 q 279 558 326 558 m 36 -253 q 5 -239 21 -253 q -11 -211 -11 -225 q -9 -197 -11 -204 q -1 -181 -7 -189 q 53 -94 33 -132 q 81 -20 72 -57 q 92 64 90 17 q 111 107 93 90 q 164 124 129 124 q 213 108 196 124 q 229 68 229 92 q 210 -35 229 21 q 157 -142 192 -90 q 76 -233 122 -194 q 56 -248 67 -243 q 36 -253 46 -253 z "},"…":{"ha":1178,"x_min":54,"x_max":972,"o":"m 507 -47 q 446 -27 465 -47 q 426 31 426 -7 q 449 107 426 81 q 518 133 471 133 q 581 113 560 133 q 601 57 601 93 q 578 -20 601 7 q 507 -47 554 -47 m 878 -47 q 817 -27 836 -47 q 797 31 797 -7 q 819 107 797 81 q 889 133 842 133 q 951 113 931 133 q 972 57 972 93 q 949 -20 972 7 q 878 -47 925 -47 m 135 -47 q 74 -27 93 -47 q 54 31 54 -7 q 76 107 54 81 q 146 133 99 133 q 208 113 188 133 q 229 57 229 93 q 206 -20 229 7 q 135 -47 182 -47 z "},"!":{"ha":472,"x_min":89,"x_max":514,"o":"m 229 300 q 178 339 167 300 l 382 1199 q 405 1227 388 1218 q 453 1236 422 1236 q 504 1199 514 1236 l 299 339 q 276 310 294 319 q 229 300 258 300 m 161 -19 q 110 0 131 -19 q 90 56 90 19 q 113 126 89 96 q 185 157 136 157 q 235 138 215 157 q 254 81 254 119 q 233 11 257 42 q 161 -19 210 -19 z "},"¡":{"ha":472,"x_min":-26,"x_max":397,"o":"m 258 396 q 310 357 319 396 l 104 -503 q 83 -531 100 -521 q 35 -540 65 -540 q -17 -503 -26 -540 l 188 357 q 210 386 193 376 q 258 396 228 396 m 326 715 q 376 697 356 715 q 396 640 396 678 q 374 570 397 601 q 301 539 350 539 q 251 558 271 539 q 232 615 232 578 q 254 685 231 654 q 326 715 278 715 z "},"?":{"ha":682,"x_min":117,"x_max":817,"o":"m 244 299 q 202 308 215 299 q 193 338 189 318 l 261 601 q 281 627 265 618 q 318 639 296 636 q 498 685 425 650 q 613 768 571 719 q 674 868 656 817 q 692 963 692 919 q 672 1049 692 1013 q 613 1105 651 1085 q 517 1125 574 1125 q 418 1108 464 1125 q 335 1065 372 1090 q 268 1015 299 1040 q 235 1008 253 1003 q 204 1032 218 1014 q 190 1068 190 1053 q 207 1097 189 1083 q 313 1175 261 1144 q 415 1221 364 1206 q 517 1236 467 1236 q 681 1201 614 1236 q 783 1103 749 1165 q 817 961 817 1040 q 788 822 817 889 q 701 698 758 756 q 560 599 644 640 q 364 535 475 557 l 315 338 q 293 308 311 318 q 244 299 275 299 m 186 -19 q 136 0 156 -19 q 117 56 117 19 q 139 126 117 96 q 210 157 161 157 q 260 138 240 157 q 281 81 281 119 q 258 11 281 42 q 186 -19 235 -19 z "},"¿":{"ha":682,"x_min":-137,"x_max":564,"o":"m 435 397 q 478 388 464 397 q 486 358 492 378 l 418 94 q 400 69 414 78 q 363 57 386 60 q 182 12 254 47 q 67 -72 110 -24 q 6 -172 25 -121 q -12 -267 -12 -224 q 8 -352 -12 -315 q 67 -409 28 -389 q 163 -429 107 -429 q 263 -412 218 -429 q 344 -369 307 -394 q 413 -319 381 -343 q 446 -312 428 -307 q 475 -336 464 -317 q 491 -372 490 -357 q 474 -401 492 -387 q 369 -478 421 -447 q 266 -525 317 -510 q 163 -540 215 -540 q -1 -505 67 -540 q -103 -407 -68 -469 q -137 -265 -137 -344 q -108 -126 -137 -193 q -22 -2 -79 -60 q 120 97 36 56 q 315 161 204 139 l 364 358 q 387 388 369 378 q 435 397 404 397 m 494 715 q 544 697 525 715 q 564 640 564 678 q 542 570 564 601 q 469 539 519 539 q 420 558 440 539 q 400 615 400 578 q 423 685 400 654 q 494 715 446 715 z "},"'":{"ha":235,"x_min":221,"x_max":408,"o":"m 256 900 q 224 913 226 900 q 224 943 221 926 l 272 1222 q 294 1261 276 1244 q 347 1278 313 1278 q 397 1261 386 1278 q 401 1222 408 1244 l 310 943 q 292 913 304 926 q 256 900 281 900 z "},"\"":{"ha":456,"x_min":221,"x_max":629,"o":"m 256 900 q 224 913 226 900 q 224 943 221 926 l 272 1222 q 294 1261 276 1244 q 347 1278 313 1278 q 397 1261 386 1278 q 401 1222 408 1244 l 310 943 q 292 913 304 926 q 256 900 281 900 m 476 900 q 444 913 447 900 q 444 943 442 926 l 493 1222 q 515 1261 497 1244 q 568 1278 533 1278 q 618 1261 607 1278 q 622 1222 629 1244 l 531 943 q 513 913 525 926 q 476 900 501 900 z "},"‘":{"ha":297,"x_min":222,"x_max":464,"o":"m 288 903 q 239 919 256 903 q 222 958 222 935 q 233 1033 222 993 q 265 1114 244 1072 q 313 1193 285 1156 q 375 1260 342 1231 q 395 1273 385 1268 q 415 1278 406 1278 q 448 1265 432 1278 q 464 1236 464 1251 q 461 1223 464 1231 q 453 1207 458 1215 q 399 1121 419 1158 q 370 1047 379 1083 q 360 961 361 1010 q 340 919 358 935 q 288 903 321 903 z "},"’":{"ha":299,"x_min":203,"x_max":444,"o":"m 379 1278 q 428 1262 413 1278 q 444 1222 444 1246 q 434 1147 444 1188 q 403 1065 424 1107 q 354 986 382 1024 q 292 919 326 949 q 272 908 282 913 q 251 903 261 903 q 219 916 236 903 q 203 944 203 929 q 206 958 203 951 q 215 974 210 964 q 269 1060 250 1022 q 298 1135 289 1097 q 307 1219 307 1172 q 327 1262 308 1246 q 379 1278 346 1278 z "},"‚":{"ha":300,"x_min":-81,"x_max":161,"o":"m -32 -253 q -63 -239 -47 -253 q -79 -211 -79 -225 q -77 -197 -79 -204 q -69 -181 -75 -189 q -15 -94 -35 -132 q 13 -20 4 -57 q 24 64 22 17 q 43 107 25 90 q 96 124 61 124 q 144 108 128 124 q 161 68 161 92 q 142 -35 161 21 q 89 -142 124 -90 q 8 -233 54 -194 q -12 -248 -1 -243 q -32 -253 -22 -253 z "},"“":{"ha":540,"x_min":222,"x_max":707,"o":"m 288 903 q 239 919 256 903 q 222 958 222 935 q 233 1033 222 993 q 265 1114 244 1072 q 313 1193 285 1156 q 375 1260 342 1231 q 395 1273 385 1268 q 415 1278 406 1278 q 448 1265 432 1278 q 464 1236 464 1251 q 461 1223 464 1231 q 453 1207 458 1215 q 399 1121 419 1158 q 370 1047 379 1083 q 360 961 361 1010 q 340 919 358 935 q 288 903 321 903 m 531 903 q 482 919 499 903 q 465 958 465 935 q 476 1033 465 993 q 508 1114 488 1072 q 556 1193 528 1156 q 618 1260 585 1231 q 638 1273 628 1268 q 658 1278 649 1278 q 691 1265 675 1278 q 707 1236 707 1251 q 704 1223 707 1231 q 696 1207 701 1215 q 642 1121 663 1158 q 613 1047 622 1083 q 603 961 604 1010 q 583 919 601 935 q 531 903 564 903 z "},"”":{"ha":542,"x_min":203,"x_max":688,"o":"m 622 1278 q 672 1262 656 1278 q 688 1222 688 1246 q 677 1147 688 1188 q 646 1065 667 1107 q 597 986 625 1024 q 535 919 569 949 q 515 908 525 913 q 494 903 504 903 q 463 916 479 903 q 446 944 446 929 q 449 958 446 951 q 458 974 453 964 q 513 1060 493 1022 q 541 1135 532 1097 q 550 1219 550 1172 q 570 1262 551 1246 q 622 1278 589 1278 m 379 1278 q 428 1262 413 1278 q 444 1222 444 1246 q 434 1147 444 1188 q 403 1065 424 1107 q 354 986 382 1024 q 292 919 326 949 q 272 908 282 913 q 251 903 261 903 q 219 916 236 903 q 203 944 203 929 q 206 958 203 951 q 215 974 210 964 q 269 1060 250 1022 q 298 1135 289 1097 q 307 1219 307 1172 q 327 1262 308 1246 q 379 1278 346 1278 z "},"„":{"ha":543,"x_min":-81,"x_max":404,"o":"m 211 -253 q 180 -239 196 -253 q 164 -211 164 -225 q 166 -197 164 -204 q 174 -181 168 -189 q 228 -94 208 -132 q 256 -20 247 -57 q 267 64 265 17 q 286 107 268 90 q 339 124 304 124 q 388 108 371 124 q 404 68 404 92 q 385 -35 404 21 q 332 -142 367 -90 q 251 -233 297 -194 q 231 -248 242 -243 q 211 -253 221 -253 m -32 -253 q -63 -239 -47 -253 q -79 -211 -79 -225 q -77 -197 -79 -204 q -69 -181 -75 -189 q -15 -94 -35 -132 q 13 -20 4 -57 q 24 64 22 17 q 43 107 25 90 q 96 124 61 124 q 144 108 128 124 q 161 68 161 92 q 142 -35 161 21 q 89 -142 124 -90 q 8 -233 54 -194 q -12 -248 -1 -243 q -32 -253 -22 -253 z "},"«":{"ha":1007,"x_min":129,"x_max":968,"o":"m 365 -19 q 328 -11 344 -19 q 300 19 313 -3 l 150 297 q 133 327 138 317 q 129 343 129 338 q 140 366 129 354 q 176 401 151 378 l 468 678 q 511 707 492 699 q 551 715 531 715 q 595 703 578 715 q 617 675 613 692 q 601 640 621 658 l 272 328 l 419 56 q 419 3 436 26 q 365 -19 403 -19 m 713 -19 q 676 -11 692 -19 q 647 19 660 -3 l 497 297 q 481 327 485 317 q 476 343 476 338 q 488 366 476 354 q 524 401 499 378 l 815 678 q 858 707 839 699 q 899 715 878 715 q 942 703 925 715 q 964 675 960 692 q 949 640 968 658 l 619 328 l 767 56 q 767 3 783 26 q 713 -19 750 -19 z "},"»":{"ha":1007,"x_min":40,"x_max":879,"o":"m 108 -21 q 65 -9 83 -21 q 44 20 47 3 q 58 54 40 38 l 388 368 l 240 639 q 241 692 225 669 q 294 714 257 714 q 332 706 315 714 q 360 675 349 699 l 510 399 q 527 369 522 379 q 532 351 532 360 q 521 331 532 343 q 483 294 510 318 l 192 18 q 149 -12 169 -3 q 108 -21 129 -21 m 456 -21 q 413 -9 431 -21 q 391 20 394 3 q 406 54 388 38 l 735 368 l 588 639 q 588 692 572 669 q 642 714 604 714 q 679 706 663 714 q 707 675 696 699 l 857 399 q 874 369 869 379 q 879 351 879 360 q 868 331 879 343 q 831 294 857 318 l 539 18 q 497 -12 517 -3 q 456 -21 476 -21 z "},"‹":{"ha":660,"x_min":129,"x_max":621,"o":"m 365 -19 q 328 -11 344 -19 q 300 19 313 -3 l 150 297 q 133 327 138 317 q 129 343 129 338 q 140 366 129 354 q 176 401 151 378 l 468 678 q 511 707 492 699 q 551 715 531 715 q 595 703 578 715 q 617 675 613 692 q 601 640 621 658 l 272 328 l 419 56 q 419 3 436 26 q 365 -19 403 -19 z "},"›":{"ha":660,"x_min":40,"x_max":532,"o":"m 108 -21 q 65 -9 83 -21 q 44 20 47 3 q 58 54 40 38 l 388 368 l 240 639 q 241 692 225 669 q 294 714 257 714 q 332 706 315 714 q 360 675 349 699 l 510 399 q 527 369 522 379 q 532 351 532 360 q 521 331 532 343 q 483 294 510 318 l 192 18 q 149 -12 169 -3 q 108 -21 129 -21 z "},"Á":{"ha":1043,"x_min":-62,"x_max":939,"o":"m -3 -19 q -51 1 -39 -19 q -43 51 -62 22 l 639 1181 q 676 1224 657 1213 q 731 1236 696 1236 q 774 1223 758 1236 q 793 1168 789 1210 l 933 43 q 923 -2 939 15 q 871 -19 907 -19 q 830 -8 840 -19 q 814 32 819 4 l 779 331 l 263 331 l 82 35 q 47 -9 61 1 q -3 -19 32 -19 m 331 442 l 767 442 l 689 1043 l 331 442 m 661 1293 q 628 1313 647 1293 q 608 1346 608 1332 q 610 1356 608 1351 q 621 1369 611 1361 l 825 1568 q 838 1579 833 1575 q 851 1583 843 1583 q 883 1571 865 1583 q 915 1542 901 1558 q 928 1511 928 1525 q 925 1494 928 1501 q 907 1476 922 1488 l 688 1307 q 673 1297 679 1301 q 661 1293 667 1293 z "},"Ă":{"ha":1043,"x_min":-62,"x_max":1028,"o":"m -3 -19 q -51 1 -39 -19 q -43 51 -62 22 l 639 1181 q 676 1224 657 1213 q 731 1236 696 1236 q 774 1223 758 1236 q 793 1168 789 1210 l 933 43 q 923 -2 939 15 q 871 -19 907 -19 q 830 -8 840 -19 q 814 32 819 4 l 779 331 l 263 331 l 82 35 q 47 -9 61 1 q -3 -19 32 -19 m 331 442 l 767 442 l 689 1043 l 331 442 m 733 1292 q 576 1354 632 1292 q 529 1543 521 1417 q 544 1572 531 1563 q 579 1582 557 1582 q 612 1572 600 1582 q 625 1543 624 1561 q 662 1444 628 1475 q 750 1413 696 1413 q 857 1448 813 1413 q 924 1540 901 1483 q 945 1573 933 1564 q 976 1582 957 1582 q 1015 1569 1001 1582 q 1022 1536 1028 1556 q 958 1392 996 1446 q 864 1315 919 1338 q 733 1292 808 1292 z "},"Ǎ":{"ha":1043,"x_min":-62,"x_max":1024,"o":"m -3 -19 q -51 1 -39 -19 q -43 51 -62 22 l 639 1181 q 676 1224 657 1213 q 731 1236 696 1236 q 774 1223 758 1236 q 793 1168 789 1210 l 933 43 q 923 -2 939 15 q 871 -19 907 -19 q 830 -8 840 -19 q 814 32 819 4 l 779 331 l 263 331 l 82 35 q 47 -9 61 1 q -3 -19 32 -19 m 331 442 l 767 442 l 689 1043 l 331 442 m 979 1582 q 1010 1565 996 1582 q 1024 1533 1024 1549 q 1020 1516 1024 1522 q 1010 1503 1017 1510 l 796 1324 q 760 1301 778 1310 q 719 1293 743 1293 q 686 1303 700 1293 q 661 1328 672 1313 l 522 1511 q 514 1529 515 1522 q 513 1540 513 1536 q 533 1569 513 1557 q 565 1582 553 1582 q 586 1576 579 1582 q 601 1561 593 1569 l 740 1435 l 940 1563 q 960 1575 951 1568 q 979 1582 968 1582 z "},"Â":{"ha":1043,"x_min":-62,"x_max":996,"o":"m -3 -19 q -51 1 -39 -19 q -43 51 -62 22 l 639 1181 q 676 1224 657 1213 q 731 1236 696 1236 q 774 1223 758 1236 q 793 1168 789 1210 l 933 43 q 923 -2 939 15 q 871 -19 907 -19 q 830 -8 840 -19 q 814 32 819 4 l 779 331 l 263 331 l 82 35 q 47 -9 61 1 q -3 -19 32 -19 m 331 442 l 767 442 l 689 1043 l 331 442 m 526 1293 q 498 1310 511 1293 q 485 1342 485 1326 q 488 1360 485 1353 q 499 1372 492 1367 l 713 1551 q 748 1575 731 1568 q 789 1582 765 1582 q 822 1573 808 1582 q 847 1549 836 1564 l 986 1365 q 994 1349 993 1356 q 996 1335 996 1342 q 978 1306 996 1319 q 947 1293 960 1293 q 925 1299 935 1293 q 906 1315 915 1306 l 768 1442 l 567 1308 q 547 1297 557 1301 q 526 1293 538 1293 z "},"Ä":{"ha":1043,"x_min":-62,"x_max":1004,"o":"m -3 -19 q -51 1 -39 -19 q -43 51 -62 22 l 639 1181 q 676 1224 657 1213 q 731 1236 696 1236 q 774 1223 758 1236 q 793 1168 789 1210 l 933 43 q 923 -2 939 15 q 871 -19 907 -19 q 830 -8 840 -19 q 814 32 819 4 l 779 331 l 263 331 l 82 35 q 47 -9 61 1 q -3 -19 32 -19 m 331 442 l 767 442 l 689 1043 l 331 442 m 568 1338 q 518 1356 538 1338 q 499 1413 499 1375 q 522 1482 499 1451 q 594 1513 546 1513 q 644 1494 625 1513 q 663 1438 663 1475 q 641 1367 664 1397 q 568 1338 618 1338 m 908 1338 q 858 1356 878 1338 q 838 1413 838 1375 q 862 1482 838 1451 q 933 1513 886 1513 q 984 1494 964 1513 q 1004 1438 1004 1475 q 981 1367 1004 1397 q 908 1338 957 1338 z "},"Ǽ":{"ha":1339,"x_min":-60,"x_max":1493,"o":"m 1164 0 l 647 0 q 598 13 613 0 q 590 56 583 25 l 715 553 l 457 553 l 64 4 q 31 -19 51 -14 q -17 -17 11 -24 q -51 10 -43 -8 q -46 47 -60 28 l 761 1171 q 794 1206 778 1196 q 839 1215 811 1215 l 1465 1215 q 1487 1202 1481 1215 q 1488 1160 1493 1189 q 1469 1118 1482 1132 q 1440 1104 1457 1104 l 976 1104 l 867 664 l 1239 664 q 1262 651 1256 664 q 1261 608 1268 638 q 1243 567 1256 581 q 1214 553 1231 553 l 839 553 l 728 111 l 1188 111 q 1210 98 1204 111 q 1211 56 1217 85 q 1192 14 1206 28 q 1164 0 1179 0 m 536 664 l 743 664 l 854 1111 l 536 664 m 1093 1293 q 1060 1313 1079 1293 q 1040 1346 1040 1332 q 1042 1356 1040 1351 q 1053 1369 1043 1361 l 1257 1568 q 1270 1579 1265 1575 q 1283 1583 1275 1583 q 1315 1571 1297 1583 q 1347 1542 1333 1558 q 1360 1511 1360 1525 q 1357 1494 1360 1501 q 1339 1476 1354 1488 l 1119 1307 q 1105 1297 1111 1301 q 1093 1293 1099 1293 z "},"À":{"ha":1043,"x_min":-62,"x_max":939,"o":"m -3 -19 q -51 1 -39 -19 q -43 51 -62 22 l 639 1181 q 676 1224 657 1213 q 731 1236 696 1236 q 774 1223 758 1236 q 793 1168 789 1210 l 933 43 q 923 -2 939 15 q 871 -19 907 -19 q 830 -8 840 -19 q 814 32 819 4 l 779 331 l 263 331 l 82 35 q 47 -9 61 1 q -3 -19 32 -19 m 331 442 l 767 442 l 689 1043 l 331 442 m 796 1293 q 783 1297 790 1293 q 769 1307 776 1301 l 578 1478 q 560 1496 564 1489 q 557 1513 557 1503 q 571 1543 557 1526 q 603 1572 585 1560 q 633 1583 621 1583 q 648 1579 642 1583 q 661 1568 654 1575 l 838 1368 q 847 1354 846 1358 q 849 1344 849 1350 q 829 1312 849 1331 q 796 1293 810 1293 z "},"Ā":{"ha":1043,"x_min":-62,"x_max":985,"o":"m -3 -19 q -51 1 -39 -19 q -43 51 -62 22 l 639 1181 q 676 1224 657 1213 q 731 1236 696 1236 q 774 1223 758 1236 q 793 1168 789 1210 l 933 43 q 923 -2 939 15 q 871 -19 907 -19 q 830 -8 840 -19 q 814 32 819 4 l 779 331 l 263 331 l 82 35 q 47 -9 61 1 q -3 -19 32 -19 m 331 442 l 767 442 l 689 1043 l 331 442 m 561 1379 q 528 1395 535 1379 q 528 1436 522 1411 q 544 1481 533 1465 q 581 1497 556 1497 l 946 1497 q 978 1480 972 1497 q 981 1436 985 1463 q 964 1394 975 1408 q 928 1379 953 1379 l 561 1379 z "},"Ą":{"ha":1043,"x_min":-62,"x_max":939,"o":"m -3 -19 q -51 1 -39 -19 q -43 51 -62 22 l 639 1181 q 676 1224 657 1213 q 731 1236 696 1236 q 774 1223 758 1236 q 793 1168 789 1210 l 933 43 q 923 -2 939 15 q 871 -19 907 -19 q 830 -8 840 -19 q 814 32 819 4 l 779 331 l 263 331 l 82 35 q 47 -9 61 1 q -3 -19 32 -19 m 331 442 l 767 442 l 689 1043 l 331 442 m 679 -357 q 611 -334 636 -357 q 586 -269 586 -311 q 603 -201 586 -236 q 654 -131 621 -167 q 735 -56 688 -94 q 844 28 783 -18 l 929 25 l 929 18 q 842 -56 882 -21 q 774 -123 803 -92 q 730 -180 746 -154 q 714 -224 714 -206 q 721 -244 714 -237 q 739 -251 728 -251 q 788 -234 764 -251 q 846 -185 811 -217 q 867 -175 853 -178 q 899 -187 882 -172 q 915 -212 911 -199 q 910 -239 918 -226 q 844 -301 883 -275 q 760 -342 804 -328 q 679 -357 717 -357 z "},"Å":{"ha":1043,"x_min":-62,"x_max":954,"o":"m -3 -19 q -51 1 -39 -19 q -43 51 -62 22 l 639 1181 q 676 1224 657 1213 q 731 1236 696 1236 q 774 1223 758 1236 q 793 1168 789 1210 l 933 43 q 923 -2 939 15 q 871 -19 907 -19 q 830 -8 840 -19 q 814 32 819 4 l 779 331 l 263 331 l 82 35 q 47 -9 61 1 q -3 -19 32 -19 m 331 442 l 767 442 l 689 1043 l 331 442 m 738 1282 q 643 1301 682 1282 q 583 1354 604 1319 q 563 1435 563 1389 q 591 1529 563 1488 q 667 1595 619 1571 q 775 1619 715 1619 q 872 1601 832 1619 q 933 1547 913 1582 q 954 1465 954 1513 q 926 1371 954 1413 q 849 1306 897 1329 q 738 1282 800 1282 m 743 1365 q 822 1394 790 1365 q 854 1464 854 1422 q 833 1517 854 1497 q 771 1536 811 1536 q 695 1508 726 1536 q 664 1439 664 1479 q 685 1385 664 1404 q 743 1365 706 1365 z "},"Ã":{"ha":1043,"x_min":-62,"x_max":1018,"o":"m -3 -19 q -51 1 -39 -19 q -43 51 -62 22 l 639 1181 q 676 1224 657 1213 q 731 1236 696 1236 q 774 1223 758 1236 q 793 1168 789 1210 l 933 43 q 923 -2 939 15 q 871 -19 907 -19 q 830 -8 840 -19 q 814 32 819 4 l 779 331 l 263 331 l 82 35 q 47 -9 61 1 q -3 -19 32 -19 m 331 442 l 767 442 l 689 1043 l 331 442 m 539 1333 q 496 1371 494 1333 q 533 1504 500 1463 q 625 1546 565 1546 q 703 1532 665 1546 q 773 1498 740 1518 q 833 1463 806 1478 q 882 1449 861 1449 q 906 1464 894 1449 q 922 1513 917 1479 q 976 1549 925 1549 q 1010 1539 1000 1549 q 1018 1511 1019 1529 q 982 1378 1013 1422 q 888 1335 951 1335 q 806 1349 843 1335 q 738 1382 769 1363 q 681 1415 707 1401 q 629 1429 654 1429 q 603 1415 614 1429 q 590 1369 593 1401 q 575 1342 589 1351 q 539 1333 561 1333 z "},"Ắ":{"ha":1043,"x_min":-62,"x_max":1028,"o":"m -3 -19 q -51 1 -39 -19 q -43 51 -62 22 l 639 1181 q 676 1224 657 1213 q 731 1236 696 1236 q 774 1223 758 1236 q 793 1168 789 1210 l 933 43 q 923 -2 939 15 q 871 -19 907 -19 q 830 -8 840 -19 q 814 32 819 4 l 779 331 l 263 331 l 82 35 q 47 -9 61 1 q -3 -19 32 -19 m 331 442 l 767 442 l 689 1043 l 331 442 m 733 1292 q 576 1354 632 1292 q 529 1543 521 1417 q 544 1572 531 1563 q 579 1582 557 1582 q 612 1572 600 1582 q 625 1543 624 1561 q 662 1444 628 1475 q 750 1413 696 1413 q 857 1448 813 1413 q 924 1540 901 1483 q 945 1573 933 1564 q 976 1582 957 1582 q 1015 1569 1001 1582 q 1022 1536 1028 1556 q 958 1392 996 1446 q 864 1315 919 1338 q 733 1292 808 1292 m 719 1560 q 686 1579 706 1560 q 667 1613 667 1599 q 668 1623 667 1618 q 679 1636 669 1628 l 883 1835 q 897 1846 892 1842 q 910 1850 901 1850 q 942 1838 924 1850 q 973 1808 960 1825 q 986 1778 986 1792 q 983 1761 986 1768 q 965 1743 981 1754 l 746 1574 q 731 1564 738 1568 q 719 1560 725 1560 z "},"Ặ":{"ha":1043,"x_min":-62,"x_max":1028,"o":"m -3 -19 q -51 1 -39 -19 q -43 51 -62 22 l 639 1181 q 676 1224 657 1213 q 731 1236 696 1236 q 774 1223 758 1236 q 793 1168 789 1210 l 933 43 q 923 -2 939 15 q 871 -19 907 -19 q 830 -8 840 -19 q 814 32 819 4 l 779 331 l 263 331 l 82 35 q 47 -9 61 1 q -3 -19 32 -19 m 331 442 l 767 442 l 689 1043 l 331 442 m 360 -324 q 310 -305 329 -324 q 290 -249 290 -286 q 314 -179 290 -210 q 386 -149 338 -149 q 436 -167 417 -149 q 456 -222 456 -186 q 433 -293 456 -262 q 360 -324 410 -324 m 733 1292 q 576 1354 632 1292 q 529 1543 521 1417 q 544 1572 531 1563 q 579 1582 557 1582 q 612 1572 600 1582 q 625 1543 624 1561 q 662 1444 628 1475 q 750 1413 696 1413 q 857 1448 813 1413 q 924 1540 901 1483 q 945 1573 933 1564 q 976 1582 957 1582 q 1015 1569 1001 1582 q 1022 1536 1028 1556 q 958 1392 996 1446 q 864 1315 919 1338 q 733 1292 808 1292 z "},"Ằ":{"ha":1043,"x_min":-62,"x_max":1028,"o":"m -3 -19 q -51 1 -39 -19 q -43 51 -62 22 l 639 1181 q 676 1224 657 1213 q 731 1236 696 1236 q 774 1223 758 1236 q 793 1168 789 1210 l 933 43 q 923 -2 939 15 q 871 -19 907 -19 q 830 -8 840 -19 q 814 32 819 4 l 779 331 l 263 331 l 82 35 q 47 -9 61 1 q -3 -19 32 -19 m 331 442 l 767 442 l 689 1043 l 331 442 m 733 1292 q 576 1354 632 1292 q 529 1543 521 1417 q 544 1572 531 1563 q 579 1582 557 1582 q 612 1572 600 1582 q 625 1543 624 1561 q 662 1444 628 1475 q 750 1413 696 1413 q 857 1448 813 1413 q 924 1540 901 1483 q 945 1573 933 1564 q 976 1582 957 1582 q 1015 1569 1001 1582 q 1022 1536 1028 1556 q 958 1392 996 1446 q 864 1315 919 1338 q 733 1292 808 1292 m 840 1556 q 828 1560 835 1556 q 814 1569 821 1564 l 622 1740 q 605 1758 608 1751 q 601 1775 601 1765 q 615 1806 601 1789 q 647 1834 629 1822 q 679 1846 665 1846 q 692 1842 686 1846 q 706 1831 699 1838 l 882 1631 q 892 1617 890 1621 q 893 1607 893 1613 q 874 1574 893 1593 q 840 1556 854 1556 z "},"Ẳ":{"ha":1043,"x_min":-62,"x_max":1028,"o":"m -3 -19 q -51 1 -39 -19 q -43 51 -62 22 l 639 1181 q 676 1224 657 1213 q 731 1236 696 1236 q 774 1223 758 1236 q 793 1168 789 1210 l 933 43 q 923 -2 939 15 q 871 -19 907 -19 q 830 -8 840 -19 q 814 32 819 4 l 779 331 l 263 331 l 82 35 q 47 -9 61 1 q -3 -19 32 -19 m 331 442 l 767 442 l 689 1043 l 331 442 m 733 1292 q 576 1354 632 1292 q 529 1543 521 1417 q 544 1572 531 1563 q 579 1582 557 1582 q 612 1572 600 1582 q 625 1543 624 1561 q 662 1444 628 1475 q 750 1413 696 1413 q 857 1448 813 1413 q 924 1540 901 1483 q 945 1573 933 1564 q 976 1582 957 1582 q 1015 1569 1001 1582 q 1022 1536 1028 1556 q 958 1392 996 1446 q 864 1315 919 1338 q 733 1292 808 1292 m 819 1872 q 919 1843 883 1872 q 956 1764 956 1814 q 936 1695 956 1726 q 875 1635 917 1664 q 845 1609 854 1621 q 835 1582 836 1597 l 831 1564 q 816 1537 831 1546 q 783 1528 801 1528 q 751 1536 765 1528 q 733 1561 736 1544 l 729 1593 q 738 1649 725 1625 q 778 1693 750 1674 q 811 1724 800 1710 q 822 1747 822 1738 q 813 1765 822 1758 q 786 1771 803 1771 q 752 1766 771 1771 q 713 1753 733 1761 q 657 1778 676 1735 q 676 1838 640 1817 q 744 1863 708 1853 q 819 1872 779 1872 z "},"Ẵ":{"ha":1043,"x_min":-62,"x_max":1067,"o":"m -3 -19 q -51 1 -39 -19 q -43 51 -62 22 l 639 1181 q 676 1224 657 1213 q 731 1236 696 1236 q 774 1223 758 1236 q 793 1168 789 1210 l 933 43 q 923 -2 939 15 q 871 -19 907 -19 q 830 -8 840 -19 q 814 32 819 4 l 779 331 l 263 331 l 82 35 q 47 -9 61 1 q -3 -19 32 -19 m 331 442 l 767 442 l 689 1043 l 331 442 m 733 1292 q 576 1354 632 1292 q 529 1543 521 1417 q 544 1572 531 1563 q 579 1582 557 1582 q 612 1572 600 1582 q 625 1543 624 1561 q 662 1444 628 1475 q 750 1413 696 1413 q 857 1448 813 1413 q 924 1540 901 1483 q 945 1573 933 1564 q 976 1582 957 1582 q 1015 1569 1001 1582 q 1022 1536 1028 1556 q 958 1392 996 1446 q 864 1315 919 1338 q 733 1292 808 1292 m 586 1625 q 543 1664 542 1625 q 580 1797 547 1756 q 672 1839 613 1839 q 750 1824 713 1839 q 820 1790 788 1810 q 881 1756 853 1771 q 929 1742 908 1742 q 953 1757 942 1742 q 969 1806 964 1772 q 1024 1840 972 1840 q 1057 1831 1047 1840 q 1065 1804 1067 1822 q 1029 1671 1060 1715 q 935 1626 999 1626 q 853 1641 890 1626 q 785 1674 817 1656 q 728 1708 754 1693 q 676 1722 701 1722 q 651 1708 661 1722 q 638 1661 640 1693 q 622 1634 636 1643 q 586 1625 608 1625 z "},"Ấ":{"ha":1043,"x_min":-62,"x_max":1226,"o":"m -3 -19 q -51 1 -39 -19 q -43 51 -62 22 l 639 1181 q 676 1224 657 1213 q 731 1236 696 1236 q 774 1223 758 1236 q 793 1168 789 1210 l 933 43 q 923 -2 939 15 q 871 -19 907 -19 q 830 -8 840 -19 q 814 32 819 4 l 779 331 l 263 331 l 82 35 q 47 -9 61 1 q -3 -19 32 -19 m 331 442 l 767 442 l 689 1043 l 331 442 m 526 1293 q 498 1310 511 1293 q 485 1342 485 1326 q 488 1360 485 1353 q 499 1372 492 1367 l 713 1551 q 748 1575 731 1568 q 789 1582 765 1582 q 822 1573 808 1582 q 847 1549 836 1564 l 986 1365 q 994 1349 993 1356 q 996 1335 996 1342 q 978 1306 996 1319 q 947 1293 960 1293 q 925 1299 935 1293 q 906 1315 915 1306 l 768 1442 l 567 1308 q 547 1297 557 1301 q 526 1293 538 1293 m 988 1511 q 954 1531 974 1511 q 935 1564 935 1550 q 936 1574 935 1569 q 947 1588 938 1578 l 1124 1763 q 1137 1775 1132 1771 q 1150 1779 1142 1779 q 1182 1767 1164 1779 q 1213 1737 1200 1754 q 1226 1706 1226 1719 q 1224 1690 1226 1696 q 1206 1671 1221 1683 l 1014 1525 q 999 1515 1006 1519 q 988 1511 993 1511 z "},"Ậ":{"ha":1043,"x_min":-62,"x_max":996,"o":"m -3 -19 q -51 1 -39 -19 q -43 51 -62 22 l 639 1181 q 676 1224 657 1213 q 731 1236 696 1236 q 774 1223 758 1236 q 793 1168 789 1210 l 933 43 q 923 -2 939 15 q 871 -19 907 -19 q 830 -8 840 -19 q 814 32 819 4 l 779 331 l 263 331 l 82 35 q 47 -9 61 1 q -3 -19 32 -19 m 331 442 l 767 442 l 689 1043 l 331 442 m 360 -324 q 310 -305 329 -324 q 290 -249 290 -286 q 314 -179 290 -210 q 386 -149 338 -149 q 436 -167 417 -149 q 456 -222 456 -186 q 433 -293 456 -262 q 360 -324 410 -324 m 526 1293 q 498 1310 511 1293 q 485 1342 485 1326 q 488 1360 485 1353 q 499 1372 492 1367 l 713 1551 q 748 1575 731 1568 q 789 1582 765 1582 q 822 1573 808 1582 q 847 1549 836 1564 l 986 1365 q 994 1349 993 1356 q 996 1335 996 1342 q 978 1306 996 1319 q 947 1293 960 1293 q 925 1299 935 1293 q 906 1315 915 1306 l 768 1442 l 567 1308 q 547 1297 557 1301 q 526 1293 538 1293 z "},"Ầ":{"ha":1043,"x_min":-62,"x_max":1118,"o":"m -3 -19 q -51 1 -39 -19 q -43 51 -62 22 l 639 1181 q 676 1224 657 1213 q 731 1236 696 1236 q 774 1223 758 1236 q 793 1168 789 1210 l 933 43 q 923 -2 939 15 q 871 -19 907 -19 q 830 -8 840 -19 q 814 32 819 4 l 779 331 l 263 331 l 82 35 q 47 -9 61 1 q -3 -19 32 -19 m 331 442 l 767 442 l 689 1043 l 331 442 m 526 1293 q 498 1310 511 1293 q 485 1342 485 1326 q 488 1360 485 1353 q 499 1372 492 1367 l 713 1551 q 748 1575 731 1568 q 789 1582 765 1582 q 822 1573 808 1582 q 847 1549 836 1564 l 986 1365 q 994 1349 993 1356 q 996 1335 996 1342 q 978 1306 996 1319 q 947 1293 960 1293 q 925 1299 935 1293 q 906 1315 915 1306 l 768 1442 l 567 1308 q 547 1297 557 1301 q 526 1293 538 1293 m 1063 1489 q 1051 1492 1057 1489 q 1038 1503 1044 1496 l 867 1692 q 850 1710 854 1704 q 846 1726 846 1717 q 859 1758 846 1742 q 891 1785 872 1775 q 926 1796 910 1796 q 940 1792 933 1796 q 954 1779 947 1788 l 1106 1568 q 1115 1551 1113 1556 q 1118 1540 1118 1546 q 1099 1508 1118 1526 q 1063 1489 1081 1489 z "},"Ẩ":{"ha":1043,"x_min":-62,"x_max":1186,"o":"m -3 -19 q -51 1 -39 -19 q -43 51 -62 22 l 639 1181 q 676 1224 657 1213 q 731 1236 696 1236 q 774 1223 758 1236 q 793 1168 789 1210 l 933 43 q 923 -2 939 15 q 871 -19 907 -19 q 830 -8 840 -19 q 814 32 819 4 l 779 331 l 263 331 l 82 35 q 47 -9 61 1 q -3 -19 32 -19 m 331 442 l 767 442 l 689 1043 l 331 442 m 526 1293 q 498 1310 511 1293 q 485 1342 485 1326 q 488 1360 485 1353 q 499 1372 492 1367 l 713 1551 q 748 1575 731 1568 q 789 1582 765 1582 q 822 1573 808 1582 q 847 1549 836 1564 l 986 1365 q 994 1349 993 1356 q 996 1335 996 1342 q 978 1306 996 1319 q 947 1293 960 1293 q 925 1299 935 1293 q 906 1315 915 1306 l 768 1442 l 567 1308 q 547 1297 557 1301 q 526 1293 538 1293 m 1050 1814 q 1150 1785 1114 1814 q 1186 1706 1186 1756 q 1167 1637 1186 1668 q 1106 1576 1149 1606 q 1076 1550 1085 1561 q 1065 1524 1067 1539 l 1063 1506 q 1047 1478 1061 1488 q 1014 1469 1032 1469 q 982 1478 996 1469 q 965 1501 968 1486 l 960 1535 q 968 1591 956 1567 q 1008 1635 981 1615 q 1042 1665 1031 1651 q 1053 1689 1053 1679 q 1044 1706 1053 1700 q 1018 1713 1035 1713 q 984 1707 1003 1713 q 944 1694 965 1701 q 888 1719 908 1676 q 908 1778 872 1758 q 976 1804 940 1794 q 1050 1814 1011 1814 z "},"Ẫ":{"ha":1043,"x_min":-62,"x_max":1067,"o":"m -3 -19 q -51 1 -39 -19 q -43 51 -62 22 l 639 1181 q 676 1224 657 1213 q 731 1236 696 1236 q 774 1223 758 1236 q 793 1168 789 1210 l 933 43 q 923 -2 939 15 q 871 -19 907 -19 q 830 -8 840 -19 q 814 32 819 4 l 779 331 l 263 331 l 82 35 q 47 -9 61 1 q -3 -19 32 -19 m 331 442 l 767 442 l 689 1043 l 331 442 m 526 1293 q 498 1310 511 1293 q 485 1342 485 1326 q 488 1360 485 1353 q 499 1372 492 1367 l 713 1551 q 748 1575 731 1568 q 789 1582 765 1582 q 822 1573 808 1582 q 847 1549 836 1564 l 986 1365 q 994 1349 993 1356 q 996 1335 996 1342 q 978 1306 996 1319 q 947 1293 960 1293 q 925 1299 935 1293 q 906 1315 915 1306 l 768 1442 l 567 1308 q 547 1297 557 1301 q 526 1293 538 1293 m 586 1599 q 544 1638 543 1599 q 581 1771 549 1729 q 674 1813 614 1813 q 751 1798 714 1813 q 821 1764 788 1783 q 882 1730 854 1744 q 931 1715 910 1715 q 953 1731 942 1715 q 969 1779 965 1746 q 1025 1814 974 1814 q 1058 1805 1049 1814 q 1065 1778 1067 1796 q 1031 1644 1061 1689 q 935 1600 1000 1600 q 855 1615 892 1600 q 787 1649 818 1629 q 728 1682 756 1668 q 678 1696 701 1696 q 651 1681 661 1696 q 638 1635 642 1667 q 623 1608 636 1617 q 586 1599 610 1599 z "},"Ạ":{"ha":1043,"x_min":-62,"x_max":939,"o":"m -3 -19 q -51 1 -39 -19 q -43 51 -62 22 l 639 1181 q 676 1224 657 1213 q 731 1236 696 1236 q 774 1223 758 1236 q 793 1168 789 1210 l 933 43 q 923 -2 939 15 q 871 -19 907 -19 q 830 -8 840 -19 q 814 32 819 4 l 779 331 l 263 331 l 82 35 q 47 -9 61 1 q -3 -19 32 -19 m 331 442 l 767 442 l 689 1043 l 331 442 m 360 -324 q 310 -305 329 -324 q 290 -249 290 -286 q 314 -179 290 -210 q 386 -149 338 -149 q 436 -167 417 -149 q 456 -222 456 -186 q 433 -293 456 -262 q 360 -324 410 -324 z "},"Ả":{"ha":1043,"x_min":-62,"x_max":939,"o":"m -3 -19 q -51 1 -39 -19 q -43 51 -62 22 l 639 1181 q 676 1224 657 1213 q 731 1236 696 1236 q 774 1223 758 1236 q 793 1168 789 1210 l 933 43 q 923 -2 939 15 q 871 -19 907 -19 q 830 -8 840 -19 q 814 32 819 4 l 779 331 l 263 331 l 82 35 q 47 -9 61 1 q -3 -19 32 -19 m 331 442 l 767 442 l 689 1043 l 331 442 m 778 1622 q 878 1593 842 1622 q 914 1514 914 1564 q 895 1446 914 1476 q 833 1386 876 1415 q 803 1359 813 1371 q 793 1332 794 1347 l 790 1314 q 774 1288 789 1296 q 742 1278 760 1279 q 709 1286 724 1278 q 693 1311 694 1294 l 688 1343 q 696 1400 683 1376 q 736 1443 708 1424 q 769 1474 758 1460 q 781 1497 781 1488 q 772 1515 781 1508 q 744 1521 763 1521 q 712 1516 731 1521 q 671 1503 693 1511 q 615 1528 636 1486 q 636 1588 600 1567 q 703 1613 668 1604 q 778 1622 738 1622 z "},"Ć":{"ha":1079,"x_min":158,"x_max":1181,"o":"m 579 -26 q 403 7 481 -26 q 270 103 325 40 q 187 256 215 165 q 158 458 158 346 q 177 630 158 542 q 233 806 196 718 q 327 970 271 893 q 458 1108 383 1047 q 626 1202 533 1168 q 831 1236 719 1236 q 970 1220 907 1236 q 1083 1171 1033 1204 q 1169 1086 1133 1138 q 1174 1058 1181 1069 q 1149 1032 1168 1046 q 1117 1014 1131 1017 q 1085 1028 1103 1011 q 1016 1077 1054 1057 q 928 1108 978 1097 q 814 1118 879 1118 q 665 1091 735 1118 q 538 1016 596 1064 q 433 906 479 968 q 354 771 386 843 q 306 623 322 699 q 289 475 289 547 q 308 307 289 379 q 365 187 326 235 q 460 115 403 139 q 596 92 518 92 q 696 108 649 92 q 787 155 743 125 q 873 225 831 185 q 957 315 915 265 q 988 327 972 333 q 1021 306 1004 321 q 1042 276 1040 289 q 1031 243 1044 263 q 874 81 954 139 q 719 -2 794 22 q 579 -26 644 -26 m 782 1293 q 749 1313 768 1293 q 729 1346 729 1332 q 731 1356 729 1351 q 742 1369 732 1361 l 946 1568 q 959 1579 954 1575 q 972 1583 964 1583 q 1004 1571 986 1583 q 1035 1542 1022 1558 q 1049 1511 1049 1525 q 1046 1494 1049 1501 q 1028 1476 1043 1488 l 808 1307 q 794 1297 800 1301 q 782 1293 788 1293 z "},"Č":{"ha":1079,"x_min":158,"x_max":1181,"o":"m 579 -26 q 403 7 481 -26 q 270 103 325 40 q 187 256 215 165 q 158 458 158 346 q 177 630 158 542 q 233 806 196 718 q 327 970 271 893 q 458 1108 383 1047 q 626 1202 533 1168 q 831 1236 719 1236 q 970 1220 907 1236 q 1083 1171 1033 1204 q 1169 1086 1133 1138 q 1174 1058 1181 1069 q 1149 1032 1168 1046 q 1117 1014 1131 1017 q 1085 1028 1103 1011 q 1016 1077 1054 1057 q 928 1108 978 1097 q 814 1118 879 1118 q 665 1091 735 1118 q 538 1016 596 1064 q 433 906 479 968 q 354 771 386 843 q 306 623 322 699 q 289 475 289 547 q 308 307 289 379 q 365 187 326 235 q 460 115 403 139 q 596 92 518 92 q 696 108 649 92 q 787 155 743 125 q 873 225 831 185 q 957 315 915 265 q 988 327 972 333 q 1021 306 1004 321 q 1042 276 1040 289 q 1031 243 1044 263 q 874 81 954 139 q 719 -2 794 22 q 579 -26 644 -26 m 1100 1582 q 1131 1565 1117 1582 q 1144 1533 1144 1549 q 1141 1516 1144 1522 q 1131 1503 1138 1510 l 917 1324 q 881 1301 899 1310 q 840 1293 864 1293 q 807 1303 821 1293 q 782 1328 793 1313 l 643 1511 q 635 1529 636 1522 q 633 1540 633 1536 q 653 1569 633 1557 q 686 1582 674 1582 q 707 1576 700 1582 q 722 1561 714 1569 l 861 1435 l 1061 1563 q 1081 1575 1072 1568 q 1100 1582 1089 1582 z "},"Ç":{"ha":1079,"x_min":158,"x_max":1181,"o":"m 579 -26 q 403 7 481 -26 q 270 103 325 40 q 187 256 215 165 q 158 458 158 346 q 177 630 158 542 q 233 806 196 718 q 327 970 271 893 q 458 1108 383 1047 q 626 1202 533 1168 q 831 1236 719 1236 q 970 1220 907 1236 q 1083 1171 1033 1204 q 1169 1086 1133 1138 q 1174 1058 1181 1069 q 1149 1032 1168 1046 q 1117 1014 1131 1017 q 1085 1028 1103 1011 q 1016 1077 1054 1057 q 928 1108 978 1097 q 814 1118 879 1118 q 665 1091 735 1118 q 538 1016 596 1064 q 433 906 479 968 q 354 771 386 843 q 306 623 322 699 q 289 475 289 547 q 308 307 289 379 q 365 187 326 235 q 460 115 403 139 q 596 92 518 92 q 696 108 649 92 q 787 155 743 125 q 873 225 831 185 q 957 315 915 265 q 988 327 972 333 q 1021 306 1004 321 q 1042 276 1040 289 q 1031 243 1044 263 q 874 81 954 139 q 719 -2 794 22 q 579 -26 644 -26 m 451 -374 q 365 -364 407 -374 q 297 -335 324 -354 q 285 -307 285 -324 q 293 -276 286 -290 q 315 -252 303 -258 q 342 -253 326 -246 q 385 -269 358 -260 q 451 -278 411 -278 q 508 -267 489 -278 q 526 -229 526 -257 q 501 -192 526 -201 q 432 -187 475 -182 q 410 -185 417 -189 q 397 -172 403 -181 q 393 -153 392 -162 q 400 -135 394 -144 l 494 18 l 585 18 l 486 -146 l 446 -124 q 551 -111 507 -103 q 619 -148 596 -119 q 643 -218 643 -176 q 618 -303 643 -268 q 549 -356 593 -337 q 451 -374 506 -374 z "},"Ĉ":{"ha":1079,"x_min":158,"x_max":1181,"o":"m 579 -26 q 403 7 481 -26 q 270 103 325 40 q 187 256 215 165 q 158 458 158 346 q 177 630 158 542 q 233 806 196 718 q 327 970 271 893 q 458 1108 383 1047 q 626 1202 533 1168 q 831 1236 719 1236 q 970 1220 907 1236 q 1083 1171 1033 1204 q 1169 1086 1133 1138 q 1174 1058 1181 1069 q 1149 1032 1168 1046 q 1117 1014 1131 1017 q 1085 1028 1103 1011 q 1016 1077 1054 1057 q 928 1108 978 1097 q 814 1118 879 1118 q 665 1091 735 1118 q 538 1016 596 1064 q 433 906 479 968 q 354 771 386 843 q 306 623 322 699 q 289 475 289 547 q 308 307 289 379 q 365 187 326 235 q 460 115 403 139 q 596 92 518 92 q 696 108 649 92 q 787 155 743 125 q 873 225 831 185 q 957 315 915 265 q 988 327 972 333 q 1021 306 1004 321 q 1042 276 1040 289 q 1031 243 1044 263 q 874 81 954 139 q 719 -2 794 22 q 579 -26 644 -26 m 647 1293 q 619 1310 632 1293 q 606 1342 606 1326 q 609 1360 606 1353 q 619 1372 613 1367 l 833 1551 q 869 1575 851 1568 q 910 1582 886 1582 q 943 1573 929 1582 q 968 1549 957 1564 l 1107 1365 q 1115 1349 1114 1356 q 1117 1335 1117 1342 q 1099 1306 1117 1319 q 1068 1293 1081 1293 q 1046 1299 1056 1293 q 1026 1315 1036 1306 l 889 1442 l 688 1308 q 668 1297 678 1301 q 647 1293 658 1293 z "},"Ċ":{"ha":1079,"x_min":158,"x_max":1181,"o":"m 579 -26 q 403 7 481 -26 q 270 103 325 40 q 187 256 215 165 q 158 458 158 346 q 177 630 158 542 q 233 806 196 718 q 327 970 271 893 q 458 1108 383 1047 q 626 1202 533 1168 q 831 1236 719 1236 q 970 1220 907 1236 q 1083 1171 1033 1204 q 1169 1086 1133 1138 q 1174 1058 1181 1069 q 1149 1032 1168 1046 q 1117 1014 1131 1017 q 1085 1028 1103 1011 q 1016 1077 1054 1057 q 928 1108 978 1097 q 814 1118 879 1118 q 665 1091 735 1118 q 538 1016 596 1064 q 433 906 479 968 q 354 771 386 843 q 306 623 322 699 q 289 475 289 547 q 308 307 289 379 q 365 187 326 235 q 460 115 403 139 q 596 92 518 92 q 696 108 649 92 q 787 155 743 125 q 873 225 831 185 q 957 315 915 265 q 988 327 972 333 q 1021 306 1004 321 q 1042 276 1040 289 q 1031 243 1044 263 q 874 81 954 139 q 719 -2 794 22 q 579 -26 644 -26 m 861 1338 q 810 1356 829 1338 q 790 1413 790 1375 q 815 1482 790 1451 q 888 1513 839 1513 q 936 1494 917 1513 q 956 1438 956 1475 q 933 1367 956 1397 q 861 1338 910 1338 z "},"Ď":{"ha":1208,"x_min":85,"x_max":1189,"o":"m 147 0 q 96 39 85 0 l 385 1178 q 408 1206 390 1197 q 456 1215 425 1215 l 676 1215 q 903 1181 807 1215 q 1063 1089 1000 1147 q 1158 955 1126 1031 q 1189 794 1189 879 q 1149 533 1189 654 q 1037 313 1110 411 q 864 145 964 215 q 643 38 764 75 q 388 0 522 0 l 147 0 m 238 118 l 388 118 q 593 147 494 118 q 776 233 692 176 q 922 373 860 290 q 1018 562 983 456 q 1053 794 1053 668 q 1026 920 1053 864 q 950 1015 1000 976 q 831 1076 900 1054 q 675 1097 761 1097 l 486 1097 l 238 118 m 1046 1582 q 1076 1565 1063 1582 q 1090 1533 1090 1549 q 1087 1516 1090 1522 q 1076 1503 1083 1510 l 863 1324 q 827 1301 844 1310 q 786 1293 810 1293 q 753 1303 767 1293 q 728 1328 739 1313 l 589 1511 q 581 1529 582 1522 q 579 1540 579 1536 q 599 1569 579 1557 q 632 1582 619 1582 q 653 1576 646 1582 q 668 1561 660 1569 l 807 1435 l 1007 1563 q 1026 1575 1018 1568 q 1046 1582 1035 1582 z "},"Đ":{"ha":1208,"x_min":85,"x_max":1189,"o":"m 147 0 q 96 39 85 0 l 385 1178 q 408 1206 390 1197 q 456 1215 425 1215 l 676 1215 q 903 1181 807 1215 q 1063 1089 1000 1147 q 1158 955 1126 1031 q 1189 794 1189 879 q 1149 533 1189 654 q 1037 313 1110 411 q 864 145 964 215 q 643 38 764 75 q 388 0 522 0 l 147 0 m 238 118 l 388 118 q 593 147 494 118 q 776 233 692 176 q 922 373 860 290 q 1018 562 983 456 q 1053 794 1053 668 q 1026 920 1053 864 q 950 1015 1000 976 q 831 1076 900 1054 q 675 1097 761 1097 l 486 1097 l 238 118 m 125 565 q 96 581 100 565 q 96 614 92 596 q 108 650 99 633 q 143 667 117 667 l 649 667 q 678 650 675 667 q 679 614 682 633 q 666 581 675 596 q 632 565 657 565 l 125 565 z "},"É":{"ha":921,"x_min":94,"x_max":1075,"o":"m 158 0 q 109 13 124 0 q 103 56 94 25 l 383 1178 q 403 1206 388 1196 q 447 1215 419 1215 l 1047 1215 q 1069 1202 1063 1215 q 1069 1160 1075 1189 q 1051 1118 1064 1132 q 1022 1104 1039 1104 l 488 1104 l 385 699 l 828 699 q 851 685 844 699 q 853 643 857 672 q 833 601 846 615 q 804 588 819 588 l 357 588 l 239 111 l 769 111 q 792 98 786 111 q 793 56 799 85 q 774 14 788 28 q 746 0 761 0 l 158 0 m 683 1293 q 650 1313 669 1293 q 631 1346 631 1332 q 632 1356 631 1351 q 643 1369 633 1361 l 847 1568 q 860 1579 856 1575 q 874 1583 865 1583 q 906 1571 888 1583 q 937 1542 924 1558 q 950 1511 950 1525 q 947 1494 950 1501 q 929 1476 944 1488 l 710 1307 q 695 1297 701 1301 q 683 1293 689 1293 z "},"Ĕ":{"ha":921,"x_min":94,"x_max":1075,"o":"m 158 0 q 109 13 124 0 q 103 56 94 25 l 383 1178 q 403 1206 388 1196 q 447 1215 419 1215 l 1047 1215 q 1069 1202 1063 1215 q 1069 1160 1075 1189 q 1051 1118 1064 1132 q 1022 1104 1039 1104 l 488 1104 l 385 699 l 828 699 q 851 685 844 699 q 853 643 857 672 q 833 601 846 615 q 804 588 819 588 l 357 588 l 239 111 l 769 111 q 792 98 786 111 q 793 56 799 85 q 774 14 788 28 q 746 0 761 0 l 158 0 m 756 1292 q 599 1354 654 1292 q 551 1543 543 1417 q 566 1572 553 1563 q 601 1582 579 1582 q 634 1572 622 1582 q 647 1543 646 1561 q 684 1444 650 1475 q 772 1413 718 1413 q 879 1448 835 1413 q 946 1540 924 1483 q 967 1573 956 1564 q 999 1582 979 1582 q 1037 1569 1024 1582 q 1044 1536 1050 1556 q 980 1392 1018 1446 q 886 1315 942 1338 q 756 1292 831 1292 z "},"Ě":{"ha":921,"x_min":94,"x_max":1075,"o":"m 158 0 q 109 13 124 0 q 103 56 94 25 l 383 1178 q 403 1206 388 1196 q 447 1215 419 1215 l 1047 1215 q 1069 1202 1063 1215 q 1069 1160 1075 1189 q 1051 1118 1064 1132 q 1022 1104 1039 1104 l 488 1104 l 385 699 l 828 699 q 851 685 844 699 q 853 643 857 672 q 833 601 846 615 q 804 588 819 588 l 357 588 l 239 111 l 769 111 q 792 98 786 111 q 793 56 799 85 q 774 14 788 28 q 746 0 761 0 l 158 0 m 1001 1582 q 1032 1565 1018 1582 q 1046 1533 1046 1549 q 1042 1516 1046 1522 q 1032 1503 1039 1510 l 818 1324 q 783 1301 800 1310 q 742 1293 765 1293 q 708 1303 722 1293 q 683 1328 694 1313 l 544 1511 q 536 1529 538 1522 q 535 1540 535 1536 q 555 1569 535 1557 q 588 1582 575 1582 q 608 1576 601 1582 q 624 1561 615 1569 l 763 1435 l 963 1563 q 982 1575 974 1568 q 1001 1582 990 1582 z "},"Ê":{"ha":921,"x_min":94,"x_max":1075,"o":"m 158 0 q 109 13 124 0 q 103 56 94 25 l 383 1178 q 403 1206 388 1196 q 447 1215 419 1215 l 1047 1215 q 1069 1202 1063 1215 q 1069 1160 1075 1189 q 1051 1118 1064 1132 q 1022 1104 1039 1104 l 488 1104 l 385 699 l 828 699 q 851 685 844 699 q 853 643 857 672 q 833 601 846 615 q 804 588 819 588 l 357 588 l 239 111 l 769 111 q 792 98 786 111 q 793 56 799 85 q 774 14 788 28 q 746 0 761 0 l 158 0 m 549 1293 q 520 1310 533 1293 q 507 1342 507 1326 q 510 1360 507 1353 q 521 1372 514 1367 l 735 1551 q 770 1575 753 1568 q 811 1582 788 1582 q 844 1573 831 1582 q 869 1549 858 1564 l 1008 1365 q 1017 1349 1015 1356 q 1018 1335 1018 1342 q 1000 1306 1018 1319 q 969 1293 982 1293 q 947 1299 957 1293 q 928 1315 938 1306 l 790 1442 l 589 1308 q 569 1297 579 1301 q 549 1293 560 1293 z "},"Ë":{"ha":921,"x_min":94,"x_max":1075,"o":"m 158 0 q 109 13 124 0 q 103 56 94 25 l 383 1178 q 403 1206 388 1196 q 447 1215 419 1215 l 1047 1215 q 1069 1202 1063 1215 q 1069 1160 1075 1189 q 1051 1118 1064 1132 q 1022 1104 1039 1104 l 488 1104 l 385 699 l 828 699 q 851 685 844 699 q 853 643 857 672 q 833 601 846 615 q 804 588 819 588 l 357 588 l 239 111 l 769 111 q 792 98 786 111 q 793 56 799 85 q 774 14 788 28 q 746 0 761 0 l 158 0 m 590 1338 q 540 1356 560 1338 q 521 1413 521 1375 q 544 1482 521 1451 q 617 1513 568 1513 q 666 1494 647 1513 q 685 1438 685 1475 q 663 1367 686 1397 q 590 1338 640 1338 m 931 1338 q 880 1356 900 1338 q 860 1413 860 1375 q 884 1482 860 1451 q 956 1513 908 1513 q 1006 1494 986 1513 q 1026 1438 1026 1475 q 1003 1367 1026 1397 q 931 1338 979 1338 z "},"Ė":{"ha":921,"x_min":94,"x_max":1075,"o":"m 158 0 q 109 13 124 0 q 103 56 94 25 l 383 1178 q 403 1206 388 1196 q 447 1215 419 1215 l 1047 1215 q 1069 1202 1063 1215 q 1069 1160 1075 1189 q 1051 1118 1064 1132 q 1022 1104 1039 1104 l 488 1104 l 385 699 l 828 699 q 851 685 844 699 q 853 643 857 672 q 833 601 846 615 q 804 588 819 588 l 357 588 l 239 111 l 769 111 q 792 98 786 111 q 793 56 799 85 q 774 14 788 28 q 746 0 761 0 l 158 0 m 763 1338 q 711 1356 731 1338 q 692 1413 692 1375 q 716 1482 692 1451 q 789 1513 740 1513 q 838 1494 818 1513 q 857 1438 857 1475 q 834 1367 857 1397 q 763 1338 811 1338 z "},"È":{"ha":921,"x_min":94,"x_max":1075,"o":"m 158 0 q 109 13 124 0 q 103 56 94 25 l 383 1178 q 403 1206 388 1196 q 447 1215 419 1215 l 1047 1215 q 1069 1202 1063 1215 q 1069 1160 1075 1189 q 1051 1118 1064 1132 q 1022 1104 1039 1104 l 488 1104 l 385 699 l 828 699 q 851 685 844 699 q 853 643 857 672 q 833 601 846 615 q 804 588 819 588 l 357 588 l 239 111 l 769 111 q 792 98 786 111 q 793 56 799 85 q 774 14 788 28 q 746 0 761 0 l 158 0 m 818 1293 q 806 1297 813 1293 q 792 1307 799 1301 l 600 1478 q 583 1496 586 1489 q 579 1513 579 1503 q 593 1543 579 1526 q 625 1572 607 1560 q 656 1583 643 1583 q 670 1579 664 1583 q 683 1568 676 1575 l 860 1368 q 869 1354 868 1358 q 871 1344 871 1350 q 851 1312 871 1331 q 818 1293 832 1293 z "},"Ē":{"ha":921,"x_min":94,"x_max":1075,"o":"m 158 0 q 109 13 124 0 q 103 56 94 25 l 383 1178 q 403 1206 388 1196 q 447 1215 419 1215 l 1047 1215 q 1069 1202 1063 1215 q 1069 1160 1075 1189 q 1051 1118 1064 1132 q 1022 1104 1039 1104 l 488 1104 l 385 699 l 828 699 q 851 685 844 699 q 853 643 857 672 q 833 601 846 615 q 804 588 819 588 l 357 588 l 239 111 l 769 111 q 792 98 786 111 q 793 56 799 85 q 774 14 788 28 q 746 0 761 0 l 158 0 m 583 1379 q 551 1395 557 1379 q 550 1436 544 1411 q 567 1481 556 1465 q 603 1497 578 1497 l 968 1497 q 1001 1480 994 1497 q 1003 1436 1007 1463 q 986 1394 997 1408 q 950 1379 975 1379 l 583 1379 z "},"Ę":{"ha":921,"x_min":94,"x_max":1075,"o":"m 158 0 q 109 13 124 0 q 103 56 94 25 l 383 1178 q 403 1206 388 1196 q 447 1215 419 1215 l 1047 1215 q 1069 1202 1063 1215 q 1069 1160 1075 1189 q 1051 1118 1064 1132 q 1022 1104 1039 1104 l 488 1104 l 385 699 l 828 699 q 851 685 844 699 q 853 643 857 672 q 833 601 846 615 q 804 588 819 588 l 357 588 l 239 111 l 769 111 q 792 98 786 111 q 793 56 799 85 q 774 14 788 28 q 746 0 761 0 l 158 0 m 526 -350 q 458 -327 483 -350 q 433 -262 433 -304 q 451 -194 433 -229 q 501 -124 468 -160 q 583 -49 535 -87 q 692 35 631 -11 l 776 32 l 776 25 q 690 -49 729 -14 q 622 -116 650 -85 q 577 -173 593 -147 q 561 -217 561 -199 q 568 -237 561 -231 q 586 -244 575 -244 q 635 -227 611 -244 q 693 -178 658 -210 q 715 -168 700 -171 q 746 -181 729 -165 q 762 -206 758 -192 q 757 -232 765 -219 q 691 -294 731 -268 q 608 -335 651 -321 q 526 -350 564 -350 z "},"Ế":{"ha":921,"x_min":94,"x_max":1247,"o":"m 158 0 q 109 13 124 0 q 103 56 94 25 l 383 1178 q 403 1206 388 1196 q 447 1215 419 1215 l 1047 1215 q 1069 1202 1063 1215 q 1069 1160 1075 1189 q 1051 1118 1064 1132 q 1022 1104 1039 1104 l 488 1104 l 385 699 l 828 699 q 851 685 844 699 q 853 643 857 672 q 833 601 846 615 q 804 588 819 588 l 357 588 l 239 111 l 769 111 q 792 98 786 111 q 793 56 799 85 q 774 14 788 28 q 746 0 761 0 l 158 0 m 549 1293 q 520 1310 533 1293 q 507 1342 507 1326 q 510 1360 507 1353 q 521 1372 514 1367 l 735 1551 q 770 1575 753 1568 q 811 1582 788 1582 q 844 1573 831 1582 q 869 1549 858 1564 l 1008 1365 q 1017 1349 1015 1356 q 1018 1335 1018 1342 q 1000 1306 1018 1319 q 969 1293 982 1293 q 947 1299 957 1293 q 928 1315 938 1306 l 790 1442 l 589 1308 q 569 1297 579 1301 q 549 1293 560 1293 m 1010 1511 q 976 1531 996 1511 q 957 1564 957 1550 q 958 1574 957 1569 q 969 1588 960 1578 l 1146 1763 q 1159 1775 1154 1771 q 1172 1779 1164 1779 q 1204 1767 1186 1779 q 1235 1737 1222 1754 q 1249 1706 1249 1719 q 1246 1690 1249 1696 q 1228 1671 1243 1683 l 1036 1525 q 1022 1515 1028 1519 q 1010 1511 1015 1511 z "},"Ệ":{"ha":921,"x_min":94,"x_max":1075,"o":"m 158 0 q 109 13 124 0 q 103 56 94 25 l 383 1178 q 403 1206 388 1196 q 447 1215 419 1215 l 1047 1215 q 1069 1202 1063 1215 q 1069 1160 1075 1189 q 1051 1118 1064 1132 q 1022 1104 1039 1104 l 488 1104 l 385 699 l 828 699 q 851 685 844 699 q 853 643 857 672 q 833 601 846 615 q 804 588 819 588 l 357 588 l 239 111 l 769 111 q 792 98 786 111 q 793 56 799 85 q 774 14 788 28 q 746 0 761 0 l 158 0 m 382 -324 q 332 -305 351 -324 q 313 -249 313 -286 q 336 -179 313 -210 q 408 -149 360 -149 q 458 -167 439 -149 q 478 -222 478 -186 q 455 -293 478 -262 q 382 -324 432 -324 m 549 1293 q 520 1310 533 1293 q 507 1342 507 1326 q 510 1360 507 1353 q 521 1372 514 1367 l 735 1551 q 770 1575 753 1568 q 811 1582 788 1582 q 844 1573 831 1582 q 869 1549 858 1564 l 1008 1365 q 1017 1349 1015 1356 q 1018 1335 1018 1342 q 1000 1306 1018 1319 q 969 1293 982 1293 q 947 1299 957 1293 q 928 1315 938 1306 l 790 1442 l 589 1308 q 569 1297 579 1301 q 549 1293 560 1293 z "},"Ề":{"ha":921,"x_min":94,"x_max":1139,"o":"m 158 0 q 109 13 124 0 q 103 56 94 25 l 383 1178 q 403 1206 388 1196 q 447 1215 419 1215 l 1047 1215 q 1069 1202 1063 1215 q 1069 1160 1075 1189 q 1051 1118 1064 1132 q 1022 1104 1039 1104 l 488 1104 l 385 699 l 828 699 q 851 685 844 699 q 853 643 857 672 q 833 601 846 615 q 804 588 819 588 l 357 588 l 239 111 l 769 111 q 792 98 786 111 q 793 56 799 85 q 774 14 788 28 q 746 0 761 0 l 158 0 m 549 1293 q 520 1310 533 1293 q 507 1342 507 1326 q 510 1360 507 1353 q 521 1372 514 1367 l 735 1551 q 770 1575 753 1568 q 811 1582 788 1582 q 844 1573 831 1582 q 869 1549 858 1564 l 1008 1365 q 1017 1349 1015 1356 q 1018 1335 1018 1342 q 1000 1306 1018 1319 q 969 1293 982 1293 q 947 1299 957 1293 q 928 1315 938 1306 l 790 1442 l 589 1308 q 569 1297 579 1301 q 549 1293 560 1293 m 1085 1489 q 1073 1492 1079 1489 q 1060 1503 1067 1496 l 889 1692 q 872 1710 876 1704 q 868 1726 868 1717 q 881 1758 868 1742 q 913 1785 894 1775 q 949 1796 932 1796 q 963 1792 956 1796 q 976 1779 969 1788 l 1128 1568 q 1138 1551 1135 1556 q 1140 1540 1140 1546 q 1122 1508 1140 1526 q 1085 1489 1103 1489 z "},"Ể":{"ha":921,"x_min":94,"x_max":1208,"o":"m 158 0 q 109 13 124 0 q 103 56 94 25 l 383 1178 q 403 1206 388 1196 q 447 1215 419 1215 l 1047 1215 q 1069 1202 1063 1215 q 1069 1160 1075 1189 q 1051 1118 1064 1132 q 1022 1104 1039 1104 l 488 1104 l 385 699 l 828 699 q 851 685 844 699 q 853 643 857 672 q 833 601 846 615 q 804 588 819 588 l 357 588 l 239 111 l 769 111 q 792 98 786 111 q 793 56 799 85 q 774 14 788 28 q 746 0 761 0 l 158 0 m 549 1293 q 520 1310 533 1293 q 507 1342 507 1326 q 510 1360 507 1353 q 521 1372 514 1367 l 735 1551 q 770 1575 753 1568 q 811 1582 788 1582 q 844 1573 831 1582 q 869 1549 858 1564 l 1008 1365 q 1017 1349 1015 1356 q 1018 1335 1018 1342 q 1000 1306 1018 1319 q 969 1293 982 1293 q 947 1299 957 1293 q 928 1315 938 1306 l 790 1442 l 589 1308 q 569 1297 579 1301 q 549 1293 560 1293 m 1072 1814 q 1172 1785 1136 1814 q 1208 1706 1208 1756 q 1190 1637 1208 1668 q 1128 1576 1171 1606 q 1098 1550 1107 1561 q 1088 1524 1089 1539 l 1085 1506 q 1069 1478 1083 1488 q 1036 1469 1054 1469 q 1004 1478 1018 1469 q 988 1501 990 1486 l 982 1535 q 990 1591 978 1567 q 1031 1635 1003 1615 q 1064 1665 1053 1651 q 1075 1689 1075 1679 q 1066 1706 1075 1700 q 1040 1713 1057 1713 q 1006 1707 1025 1713 q 967 1694 988 1701 q 910 1719 931 1676 q 931 1778 894 1758 q 998 1804 963 1794 q 1072 1814 1033 1814 z "},"Ễ":{"ha":921,"x_min":94,"x_max":1089,"o":"m 158 0 q 109 13 124 0 q 103 56 94 25 l 383 1178 q 403 1206 388 1196 q 447 1215 419 1215 l 1047 1215 q 1069 1202 1063 1215 q 1069 1160 1075 1189 q 1051 1118 1064 1132 q 1022 1104 1039 1104 l 488 1104 l 385 699 l 828 699 q 851 685 844 699 q 853 643 857 672 q 833 601 846 615 q 804 588 819 588 l 357 588 l 239 111 l 769 111 q 792 98 786 111 q 793 56 799 85 q 774 14 788 28 q 746 0 761 0 l 158 0 m 549 1293 q 520 1310 533 1293 q 507 1342 507 1326 q 510 1360 507 1353 q 521 1372 514 1367 l 735 1551 q 770 1575 753 1568 q 811 1582 788 1582 q 844 1573 831 1582 q 869 1549 858 1564 l 1008 1365 q 1017 1349 1015 1356 q 1018 1335 1018 1342 q 1000 1306 1018 1319 q 969 1293 982 1293 q 947 1299 957 1293 q 928 1315 938 1306 l 790 1442 l 589 1308 q 569 1297 579 1301 q 549 1293 560 1293 m 608 1599 q 567 1638 565 1599 q 603 1771 571 1729 q 696 1813 636 1813 q 773 1798 736 1813 q 843 1764 810 1783 q 904 1730 876 1744 q 953 1715 932 1715 q 976 1731 964 1715 q 992 1779 988 1746 q 1047 1814 996 1814 q 1080 1805 1071 1814 q 1088 1778 1089 1796 q 1053 1644 1083 1689 q 957 1600 1022 1600 q 877 1615 914 1600 q 809 1649 840 1629 q 751 1682 778 1668 q 700 1696 724 1696 q 674 1681 683 1696 q 660 1635 664 1667 q 645 1608 658 1617 q 608 1599 632 1599 z "},"Ẹ":{"ha":921,"x_min":94,"x_max":1075,"o":"m 158 0 q 109 13 124 0 q 103 56 94 25 l 383 1178 q 403 1206 388 1196 q 447 1215 419 1215 l 1047 1215 q 1069 1202 1063 1215 q 1069 1160 1075 1189 q 1051 1118 1064 1132 q 1022 1104 1039 1104 l 488 1104 l 385 699 l 828 699 q 851 685 844 699 q 853 643 857 672 q 833 601 846 615 q 804 588 819 588 l 357 588 l 239 111 l 769 111 q 792 98 786 111 q 793 56 799 85 q 774 14 788 28 q 746 0 761 0 l 158 0 m 382 -324 q 332 -305 351 -324 q 313 -249 313 -286 q 336 -179 313 -210 q 408 -149 360 -149 q 458 -167 439 -149 q 478 -222 478 -186 q 455 -293 478 -262 q 382 -324 432 -324 z "},"Ẻ":{"ha":921,"x_min":94,"x_max":1075,"o":"m 158 0 q 109 13 124 0 q 103 56 94 25 l 383 1178 q 403 1206 388 1196 q 447 1215 419 1215 l 1047 1215 q 1069 1202 1063 1215 q 1069 1160 1075 1189 q 1051 1118 1064 1132 q 1022 1104 1039 1104 l 488 1104 l 385 699 l 828 699 q 851 685 844 699 q 853 643 857 672 q 833 601 846 615 q 804 588 819 588 l 357 588 l 239 111 l 769 111 q 792 98 786 111 q 793 56 799 85 q 774 14 788 28 q 746 0 761 0 l 158 0 m 799 1622 q 899 1593 863 1622 q 935 1514 935 1564 q 916 1446 935 1476 q 854 1386 897 1415 q 824 1359 833 1371 q 814 1332 815 1347 l 811 1314 q 795 1288 810 1296 q 763 1278 781 1279 q 730 1286 744 1278 q 714 1311 715 1294 l 708 1343 q 717 1400 704 1376 q 757 1443 729 1424 q 790 1474 779 1460 q 801 1497 801 1488 q 792 1515 801 1508 q 765 1521 783 1521 q 733 1516 751 1521 q 692 1503 714 1511 q 636 1528 657 1486 q 657 1588 621 1567 q 724 1613 689 1604 q 799 1622 758 1622 z "},"Ẽ":{"ha":921,"x_min":94,"x_max":1075,"o":"m 158 0 q 109 13 124 0 q 103 56 94 25 l 383 1178 q 403 1206 388 1196 q 447 1215 419 1215 l 1047 1215 q 1069 1202 1063 1215 q 1069 1160 1075 1189 q 1051 1118 1064 1132 q 1022 1104 1039 1104 l 488 1104 l 385 699 l 828 699 q 851 685 844 699 q 853 643 857 672 q 833 601 846 615 q 804 588 819 588 l 357 588 l 239 111 l 769 111 q 792 98 786 111 q 793 56 799 85 q 774 14 788 28 q 746 0 761 0 l 158 0 m 560 1333 q 517 1371 515 1333 q 553 1504 521 1463 q 646 1546 586 1546 q 724 1532 686 1546 q 794 1498 761 1518 q 854 1463 826 1478 q 903 1449 882 1449 q 926 1464 915 1449 q 943 1513 938 1479 q 997 1549 946 1549 q 1031 1539 1021 1549 q 1039 1511 1040 1529 q 1003 1378 1033 1422 q 908 1335 972 1335 q 827 1349 864 1335 q 759 1382 790 1363 q 701 1415 728 1401 q 650 1429 675 1429 q 624 1415 635 1429 q 611 1369 614 1401 q 596 1342 610 1351 q 560 1333 582 1333 z "},"Ğ":{"ha":1218,"x_min":158,"x_max":1181,"o":"m 579 -26 q 403 8 481 -25 q 270 104 325 42 q 187 256 215 167 q 158 458 158 346 q 177 630 158 542 q 233 806 196 718 q 327 970 271 893 q 458 1108 383 1047 q 626 1202 533 1168 q 831 1236 719 1236 q 970 1220 907 1236 q 1083 1171 1033 1204 q 1169 1086 1133 1138 q 1174 1058 1181 1069 q 1149 1032 1168 1046 q 1117 1014 1131 1017 q 1085 1028 1103 1011 q 1016 1077 1054 1057 q 928 1108 978 1097 q 814 1118 879 1118 q 665 1091 735 1118 q 538 1016 596 1064 q 433 906 479 968 q 354 771 386 843 q 306 623 322 699 q 289 475 289 547 q 308 307 289 379 q 365 187 326 235 q 460 115 403 139 q 596 92 518 92 q 703 108 651 92 q 803 158 756 125 q 892 245 850 192 q 967 372 933 299 q 1026 539 1001 444 l 711 539 q 685 551 690 539 q 689 594 681 564 q 708 638 697 626 q 740 650 719 650 l 1140 650 q 1166 638 1161 650 q 1165 594 1171 626 q 1064 297 1128 417 q 920 106 1000 178 q 752 4 840 35 q 579 -26 664 -26 m 857 1292 q 700 1354 756 1292 q 653 1543 644 1417 q 667 1572 654 1563 q 703 1582 681 1582 q 735 1572 724 1582 q 749 1543 747 1561 q 785 1444 751 1475 q 874 1413 819 1413 q 981 1448 936 1413 q 1047 1540 1025 1483 q 1069 1573 1057 1564 q 1100 1582 1081 1582 q 1138 1569 1125 1582 q 1146 1536 1151 1556 q 1081 1392 1119 1446 q 988 1315 1043 1338 q 857 1292 932 1292 z "},"Ĝ":{"ha":1218,"x_min":158,"x_max":1181,"o":"m 579 -26 q 403 8 481 -25 q 270 104 325 42 q 187 256 215 167 q 158 458 158 346 q 177 630 158 542 q 233 806 196 718 q 327 970 271 893 q 458 1108 383 1047 q 626 1202 533 1168 q 831 1236 719 1236 q 970 1220 907 1236 q 1083 1171 1033 1204 q 1169 1086 1133 1138 q 1174 1058 1181 1069 q 1149 1032 1168 1046 q 1117 1014 1131 1017 q 1085 1028 1103 1011 q 1016 1077 1054 1057 q 928 1108 978 1097 q 814 1118 879 1118 q 665 1091 735 1118 q 538 1016 596 1064 q 433 906 479 968 q 354 771 386 843 q 306 623 322 699 q 289 475 289 547 q 308 307 289 379 q 365 187 326 235 q 460 115 403 139 q 596 92 518 92 q 703 108 651 92 q 803 158 756 125 q 892 245 850 192 q 967 372 933 299 q 1026 539 1001 444 l 711 539 q 685 551 690 539 q 689 594 681 564 q 708 638 697 626 q 740 650 719 650 l 1140 650 q 1166 638 1161 650 q 1165 594 1171 626 q 1064 297 1128 417 q 920 106 1000 178 q 752 4 840 35 q 579 -26 664 -26 m 650 1293 q 622 1310 635 1293 q 608 1342 608 1326 q 612 1360 608 1353 q 622 1372 615 1367 l 836 1551 q 872 1575 854 1568 q 913 1582 889 1582 q 946 1573 932 1582 q 971 1549 960 1564 l 1110 1365 q 1118 1349 1117 1356 q 1119 1335 1119 1342 q 1101 1306 1119 1319 q 1071 1293 1083 1293 q 1049 1299 1058 1293 q 1029 1315 1039 1306 l 892 1442 l 690 1308 q 671 1297 681 1301 q 650 1293 661 1293 z "},"Ģ":{"ha":1218,"x_min":158,"x_max":1181,"o":"m 579 -26 q 403 8 481 -25 q 270 104 325 42 q 187 256 215 167 q 158 458 158 346 q 177 630 158 542 q 233 806 196 718 q 327 970 271 893 q 458 1108 383 1047 q 626 1202 533 1168 q 831 1236 719 1236 q 970 1220 907 1236 q 1083 1171 1033 1204 q 1169 1086 1133 1138 q 1174 1058 1181 1069 q 1149 1032 1168 1046 q 1117 1014 1131 1017 q 1085 1028 1103 1011 q 1016 1077 1054 1057 q 928 1108 978 1097 q 814 1118 879 1118 q 665 1091 735 1118 q 538 1016 596 1064 q 433 906 479 968 q 354 771 386 843 q 306 623 322 699 q 289 475 289 547 q 308 307 289 379 q 365 187 326 235 q 460 115 403 139 q 596 92 518 92 q 703 108 651 92 q 803 158 756 125 q 892 245 850 192 q 967 372 933 299 q 1026 539 1001 444 l 711 539 q 685 551 690 539 q 689 594 681 564 q 708 638 697 626 q 740 650 719 650 l 1140 650 q 1166 638 1161 650 q 1165 594 1171 626 q 1064 297 1128 417 q 920 106 1000 178 q 752 4 840 35 q 579 -26 664 -26 m 394 -400 q 375 -374 378 -389 q 385 -343 372 -360 q 422 -275 407 -306 q 444 -213 438 -244 q 456 -140 451 -182 q 472 -107 457 -117 q 514 -97 488 -97 q 562 -112 546 -97 q 575 -154 578 -128 q 558 -228 574 -189 q 517 -305 542 -267 q 461 -376 492 -343 q 428 -402 444 -396 q 394 -400 413 -408 z "},"Ġ":{"ha":1218,"x_min":158,"x_max":1181,"o":"m 579 -26 q 403 8 481 -25 q 270 104 325 42 q 187 256 215 167 q 158 458 158 346 q 177 630 158 542 q 233 806 196 718 q 327 970 271 893 q 458 1108 383 1047 q 626 1202 533 1168 q 831 1236 719 1236 q 970 1220 907 1236 q 1083 1171 1033 1204 q 1169 1086 1133 1138 q 1174 1058 1181 1069 q 1149 1032 1168 1046 q 1117 1014 1131 1017 q 1085 1028 1103 1011 q 1016 1077 1054 1057 q 928 1108 978 1097 q 814 1118 879 1118 q 665 1091 735 1118 q 538 1016 596 1064 q 433 906 479 968 q 354 771 386 843 q 306 623 322 699 q 289 475 289 547 q 308 307 289 379 q 365 187 326 235 q 460 115 403 139 q 596 92 518 92 q 703 108 651 92 q 803 158 756 125 q 892 245 850 192 q 967 372 933 299 q 1026 539 1001 444 l 711 539 q 685 551 690 539 q 689 594 681 564 q 708 638 697 626 q 740 650 719 650 l 1140 650 q 1166 638 1161 650 q 1165 594 1171 626 q 1064 297 1128 417 q 920 106 1000 178 q 752 4 840 35 q 579 -26 664 -26 m 864 1338 q 813 1356 832 1338 q 793 1413 793 1375 q 817 1482 793 1451 q 890 1513 842 1513 q 939 1494 919 1513 q 958 1438 958 1475 q 935 1367 958 1397 q 864 1338 913 1338 z "},"Ħ":{"ha":1233,"x_min":82,"x_max":1342,"o":"m 143 -19 q 92 19 82 -19 l 389 1199 q 412 1227 394 1218 q 458 1236 429 1236 q 510 1199 522 1236 l 383 693 l 1025 693 l 1153 1199 q 1176 1227 1158 1218 q 1222 1236 1193 1236 q 1274 1199 1286 1236 l 976 19 q 955 -10 972 0 q 907 -19 938 -19 q 856 19 846 -19 l 997 582 l 356 582 l 213 19 q 191 -10 208 0 q 143 -19 174 -19 m 225 888 q 197 902 200 888 q 196 936 193 917 q 208 973 199 957 q 243 989 217 989 l 1308 989 q 1338 973 1335 989 q 1339 936 1342 957 q 1326 902 1336 917 q 1292 888 1317 888 l 225 888 z "},"Ĥ":{"ha":1233,"x_min":82,"x_max":1286,"o":"m 143 -19 q 92 19 82 -19 l 389 1199 q 412 1227 394 1218 q 458 1236 429 1236 q 510 1199 522 1236 l 383 693 l 1025 693 l 1153 1199 q 1176 1227 1158 1218 q 1222 1236 1193 1236 q 1274 1199 1286 1236 l 976 19 q 955 -10 972 0 q 907 -19 938 -19 q 856 19 846 -19 l 997 582 l 356 582 l 213 19 q 191 -10 208 0 q 143 -19 174 -19 m 644 1293 q 616 1310 629 1293 q 603 1342 603 1326 q 606 1360 603 1353 q 617 1372 610 1367 l 831 1551 q 866 1575 849 1568 q 907 1582 883 1582 q 940 1573 926 1582 q 965 1549 954 1564 l 1104 1365 q 1113 1349 1111 1356 q 1114 1335 1114 1342 q 1096 1306 1114 1319 q 1065 1293 1078 1293 q 1043 1299 1053 1293 q 1024 1315 1033 1306 l 886 1442 l 685 1308 q 665 1297 675 1301 q 644 1293 656 1293 z "},"Í":{"ha":469,"x_min":88,"x_max":675,"o":"m 147 -19 q 102 -10 117 -19 q 92 22 88 0 l 385 1199 q 408 1227 390 1218 q 456 1236 425 1236 q 501 1226 486 1236 q 510 1196 515 1217 l 215 19 q 195 -10 211 0 q 147 -19 179 -19 m 408 1293 q 375 1313 394 1293 q 356 1346 356 1332 q 357 1356 356 1351 q 368 1369 358 1361 l 572 1568 q 585 1579 581 1575 q 599 1583 590 1583 q 631 1571 613 1583 q 662 1542 649 1558 q 675 1511 675 1525 q 672 1494 675 1501 q 654 1476 669 1488 l 435 1307 q 420 1297 426 1301 q 408 1293 414 1293 z "},"Ĭ":{"ha":469,"x_min":88,"x_max":775,"o":"m 147 -19 q 102 -10 117 -19 q 92 22 88 0 l 385 1199 q 408 1227 390 1218 q 456 1236 425 1236 q 501 1226 486 1236 q 510 1196 515 1217 l 215 19 q 195 -10 211 0 q 147 -19 179 -19 m 481 1292 q 324 1354 379 1292 q 276 1543 268 1417 q 291 1572 278 1563 q 326 1582 304 1582 q 359 1572 347 1582 q 372 1543 371 1561 q 409 1444 375 1475 q 497 1413 443 1413 q 604 1448 560 1413 q 671 1540 649 1483 q 692 1573 681 1564 q 724 1582 704 1582 q 762 1569 749 1582 q 769 1536 775 1556 q 705 1392 743 1446 q 611 1315 667 1338 q 481 1292 556 1292 z "},"Ǐ":{"ha":469,"x_min":88,"x_max":771,"o":"m 147 -19 q 102 -10 117 -19 q 92 22 88 0 l 385 1199 q 408 1227 390 1218 q 456 1236 425 1236 q 501 1226 486 1236 q 510 1196 515 1217 l 215 19 q 195 -10 211 0 q 147 -19 179 -19 m 726 1582 q 757 1565 743 1582 q 771 1533 771 1549 q 767 1516 771 1522 q 757 1503 764 1510 l 543 1324 q 508 1301 525 1310 q 467 1293 490 1293 q 433 1303 447 1293 q 408 1328 419 1313 l 269 1511 q 261 1529 263 1522 q 260 1540 260 1536 q 280 1569 260 1557 q 313 1582 300 1582 q 333 1576 326 1582 q 349 1561 340 1569 l 488 1435 l 688 1563 q 707 1575 699 1568 q 726 1582 715 1582 z "},"Î":{"ha":469,"x_min":88,"x_max":743,"o":"m 147 -19 q 102 -10 117 -19 q 92 22 88 0 l 385 1199 q 408 1227 390 1218 q 456 1236 425 1236 q 501 1226 486 1236 q 510 1196 515 1217 l 215 19 q 195 -10 211 0 q 147 -19 179 -19 m 274 1293 q 245 1310 258 1293 q 232 1342 232 1326 q 235 1360 232 1353 q 246 1372 239 1367 l 460 1551 q 495 1575 478 1568 q 536 1582 513 1582 q 569 1573 556 1582 q 594 1549 583 1564 l 733 1365 q 742 1349 740 1356 q 743 1335 743 1342 q 725 1306 743 1319 q 694 1293 707 1293 q 672 1299 682 1293 q 653 1315 663 1306 l 515 1442 l 314 1308 q 294 1297 304 1301 q 274 1293 285 1293 z "},"Ï":{"ha":469,"x_min":88,"x_max":751,"o":"m 147 -19 q 102 -10 117 -19 q 92 22 88 0 l 385 1199 q 408 1227 390 1218 q 456 1236 425 1236 q 501 1226 486 1236 q 510 1196 515 1217 l 215 19 q 195 -10 211 0 q 147 -19 179 -19 m 315 1338 q 265 1356 285 1338 q 246 1413 246 1375 q 269 1482 246 1451 q 342 1513 293 1513 q 391 1494 372 1513 q 410 1438 410 1475 q 388 1367 411 1397 q 315 1338 365 1338 m 656 1338 q 605 1356 625 1338 q 585 1413 585 1375 q 609 1482 585 1451 q 681 1513 633 1513 q 731 1494 711 1513 q 751 1438 751 1475 q 728 1367 751 1397 q 656 1338 704 1338 z "},"İ":{"ha":469,"x_min":88,"x_max":582,"o":"m 147 -19 q 102 -10 117 -19 q 92 22 88 0 l 385 1199 q 408 1227 390 1218 q 456 1236 425 1236 q 501 1226 486 1236 q 510 1196 515 1217 l 215 19 q 195 -10 211 0 q 147 -19 179 -19 m 488 1338 q 436 1356 456 1338 q 417 1413 417 1375 q 441 1482 417 1451 q 514 1513 465 1513 q 563 1494 543 1513 q 582 1438 582 1475 q 559 1367 582 1397 q 488 1338 536 1338 z "},"Ì":{"ha":469,"x_min":88,"x_max":596,"o":"m 147 -19 q 102 -10 117 -19 q 92 22 88 0 l 385 1199 q 408 1227 390 1218 q 456 1236 425 1236 q 501 1226 486 1236 q 510 1196 515 1217 l 215 19 q 195 -10 211 0 q 147 -19 179 -19 m 543 1293 q 531 1297 538 1293 q 517 1307 524 1301 l 325 1478 q 308 1496 311 1489 q 304 1513 304 1503 q 318 1543 304 1526 q 350 1572 332 1560 q 381 1583 368 1583 q 395 1579 389 1583 q 408 1568 401 1575 l 585 1368 q 594 1354 593 1358 q 596 1344 596 1350 q 576 1312 596 1331 q 543 1293 557 1293 z "},"Ī":{"ha":469,"x_min":88,"x_max":733,"o":"m 147 -19 q 102 -10 117 -19 q 92 22 88 0 l 385 1199 q 408 1227 390 1218 q 456 1236 425 1236 q 501 1226 486 1236 q 510 1196 515 1217 l 215 19 q 195 -10 211 0 q 147 -19 179 -19 m 308 1379 q 276 1395 282 1379 q 275 1436 269 1411 q 292 1481 281 1465 q 328 1497 303 1497 l 693 1497 q 726 1480 719 1497 q 728 1436 732 1463 q 711 1394 722 1408 q 675 1379 700 1379 l 308 1379 z "},"Į":{"ha":469,"x_min":-143,"x_max":515,"o":"m 147 -19 q 102 -10 117 -19 q 92 22 88 0 l 385 1199 q 408 1227 390 1218 q 456 1236 425 1236 q 501 1226 486 1236 q 510 1196 515 1217 l 215 19 q 195 -10 211 0 q 147 -19 179 -19 m -51 -365 q -119 -342 -94 -365 q -144 -278 -144 -319 q -127 -210 -144 -244 q -76 -139 -110 -175 q 5 -65 -43 -103 q 114 19 53 -26 l 199 17 l 199 10 q 112 -65 151 -29 q 44 -131 72 -100 q -1 -188 15 -162 q -17 -232 -17 -214 q -10 -253 -17 -246 q 8 -260 -3 -260 q 57 -242 33 -260 q 115 -193 81 -225 q 137 -183 122 -186 q 168 -196 151 -181 q 184 -221 181 -207 q 179 -247 188 -235 q 113 -310 153 -283 q 30 -351 74 -336 q -51 -365 -14 -365 z "},"Ĩ":{"ha":469,"x_min":88,"x_max":765,"o":"m 147 -19 q 102 -10 117 -19 q 92 22 88 0 l 385 1199 q 408 1227 390 1218 q 456 1236 425 1236 q 501 1226 486 1236 q 510 1196 515 1217 l 215 19 q 195 -10 211 0 q 147 -19 179 -19 m 286 1333 q 243 1371 242 1333 q 280 1504 247 1463 q 372 1546 313 1546 q 450 1532 413 1546 q 520 1498 488 1518 q 581 1463 553 1478 q 629 1449 608 1449 q 653 1464 642 1449 q 669 1513 664 1479 q 724 1549 672 1549 q 757 1539 747 1549 q 765 1511 767 1529 q 729 1378 760 1422 q 635 1335 699 1335 q 553 1349 590 1335 q 485 1382 517 1363 q 428 1415 454 1401 q 376 1429 401 1429 q 351 1415 361 1429 q 338 1369 340 1401 q 322 1342 336 1351 q 286 1333 308 1333 z "},"Ị":{"ha":469,"x_min":4,"x_max":515,"o":"m 147 -19 q 102 -10 117 -19 q 92 22 88 0 l 385 1199 q 408 1227 390 1218 q 456 1236 425 1236 q 501 1226 486 1236 q 510 1196 515 1217 l 215 19 q 195 -10 211 0 q 147 -19 179 -19 m 74 -324 q 24 -305 43 -324 q 4 -249 4 -286 q 28 -179 4 -210 q 100 -149 51 -149 q 150 -167 131 -149 q 169 -222 169 -186 q 147 -293 169 -262 q 74 -324 124 -324 z "},"Ỉ":{"ha":469,"x_min":88,"x_max":661,"o":"m 147 -19 q 102 -10 117 -19 q 92 22 88 0 l 385 1199 q 408 1227 390 1218 q 456 1236 425 1236 q 501 1226 486 1236 q 510 1196 515 1217 l 215 19 q 195 -10 211 0 q 147 -19 179 -19 m 525 1622 q 625 1593 589 1622 q 661 1514 661 1564 q 642 1446 661 1476 q 581 1386 624 1415 q 551 1359 560 1371 q 540 1332 542 1347 l 538 1314 q 522 1288 536 1296 q 489 1278 507 1279 q 456 1286 471 1278 q 440 1311 442 1294 l 435 1343 q 443 1400 431 1376 q 483 1443 456 1424 q 517 1474 506 1460 q 528 1497 528 1488 q 519 1515 528 1508 q 492 1521 510 1521 q 459 1516 478 1521 q 418 1503 440 1511 q 363 1528 383 1486 q 383 1588 347 1567 q 450 1613 415 1604 q 525 1622 485 1622 z "},"Ĵ":{"ha":903,"x_min":15,"x_max":1201,"o":"m 354 -26 q 216 2 286 -26 q 92 85 146 31 q 21 219 39 140 q 26 252 15 242 q 58 268 36 263 q 105 271 90 276 q 129 240 119 265 q 178 160 146 194 q 254 109 210 126 q 354 92 299 92 q 429 99 394 92 q 494 122 464 106 q 549 168 524 139 q 596 241 575 197 q 632 347 617 285 l 847 1199 q 870 1227 853 1218 q 917 1236 888 1236 q 960 1227 947 1236 q 968 1199 974 1218 l 754 347 q 703 201 733 263 q 637 96 674 139 q 556 25 600 53 q 461 -15 511 -3 q 354 -26 411 -26 m 732 1293 q 703 1310 717 1293 q 690 1342 690 1326 q 694 1360 690 1353 q 704 1372 697 1367 l 918 1551 q 953 1575 936 1568 q 994 1582 971 1582 q 1028 1573 1014 1582 q 1053 1549 1042 1564 l 1192 1365 q 1200 1349 1199 1356 q 1201 1335 1201 1342 q 1183 1306 1201 1319 q 1153 1293 1165 1293 q 1131 1299 1140 1293 q 1111 1315 1121 1306 l 974 1442 l 772 1308 q 753 1297 763 1301 q 732 1293 743 1293 z "},"Ķ":{"ha":954,"x_min":86,"x_max":1110,"o":"m 142 -19 q 99 -10 111 -19 q 90 19 86 0 l 389 1199 q 460 1236 399 1236 q 511 1199 521 1236 l 388 713 l 1017 1218 q 1058 1233 1042 1238 q 1092 1207 1074 1229 q 1108 1169 1110 1183 q 1081 1133 1107 1154 l 451 633 q 582 419 518 517 q 713 236 646 322 q 856 67 781 150 q 870 28 874 46 q 839 -12 867 10 q 799 -24 818 -26 q 767 -6 781 -21 q 650 135 707 61 q 542 285 593 208 q 444 439 490 361 q 357 594 397 517 l 211 19 q 190 -10 207 0 q 142 -19 172 -19 m 299 -400 q 279 -374 282 -389 q 289 -343 276 -360 q 326 -275 311 -306 q 349 -213 342 -244 q 360 -140 356 -182 q 376 -107 361 -117 q 418 -97 392 -97 q 466 -112 450 -97 q 479 -154 482 -128 q 462 -228 478 -189 q 421 -305 446 -267 q 365 -376 396 -343 q 333 -402 349 -396 q 299 -400 317 -408 z "},"Ĺ":{"ha":868,"x_min":89,"x_max":771,"o":"m 150 0 q 103 56 89 0 l 389 1199 q 408 1227 394 1218 q 453 1236 422 1236 q 500 1226 485 1236 q 508 1196 515 1217 l 238 111 l 742 111 q 765 98 758 111 q 764 56 771 85 q 746 14 758 28 q 717 0 733 0 l 150 0 m 415 1293 q 382 1313 401 1293 q 363 1346 363 1332 q 364 1356 363 1351 q 375 1369 365 1361 l 579 1568 q 592 1579 588 1575 q 606 1583 597 1583 q 638 1571 619 1583 q 669 1542 656 1558 q 682 1511 682 1525 q 679 1494 682 1501 q 661 1476 676 1488 l 442 1307 q 427 1297 433 1301 q 415 1293 421 1293 z "},"Ľ":{"ha":868,"x_min":89,"x_max":778,"o":"m 150 0 q 103 56 89 0 l 389 1199 q 408 1227 394 1218 q 453 1236 422 1236 q 500 1226 485 1236 q 508 1196 515 1217 l 238 111 l 742 111 q 765 98 758 111 q 764 56 771 85 q 746 14 758 28 q 717 0 733 0 l 150 0 m 599 901 q 571 924 576 911 q 578 961 565 938 q 605 1028 590 986 q 632 1115 619 1069 q 650 1199 644 1160 q 665 1231 651 1219 q 711 1242 678 1242 q 761 1231 746 1242 q 775 1199 776 1219 q 751 1106 769 1157 q 709 1005 733 1056 q 660 915 685 954 q 638 898 653 906 q 599 901 624 890 z "},"Ļ":{"ha":868,"x_min":89,"x_max":771,"o":"m 150 0 q 103 56 89 0 l 389 1199 q 408 1227 394 1218 q 453 1236 422 1236 q 500 1226 485 1236 q 508 1196 515 1217 l 238 111 l 742 111 q 765 98 758 111 q 764 56 771 85 q 746 14 758 28 q 717 0 733 0 l 150 0 m 292 -400 q 272 -374 275 -389 q 282 -343 269 -360 q 319 -275 304 -306 q 342 -213 335 -244 q 353 -140 349 -182 q 369 -107 354 -117 q 411 -97 385 -97 q 459 -112 443 -97 q 472 -154 475 -128 q 455 -228 471 -189 q 414 -305 439 -267 q 358 -376 389 -343 q 326 -402 342 -396 q 292 -400 310 -408 z "},"Ŀ":{"ha":868,"x_min":89,"x_max":804,"o":"m 150 0 q 103 56 89 0 l 389 1199 q 408 1227 394 1218 q 453 1236 422 1236 q 500 1226 485 1236 q 508 1196 515 1217 l 238 111 l 742 111 q 765 98 758 111 q 764 56 771 85 q 746 14 758 28 q 717 0 733 0 l 150 0 m 708 540 q 659 559 679 540 q 639 615 639 578 q 663 685 639 656 q 735 715 686 715 q 785 697 765 715 q 804 640 804 679 q 782 571 806 601 q 708 540 758 540 z "},"Ł":{"ha":868,"x_min":75,"x_max":771,"o":"m 150 0 q 103 56 89 0 l 389 1199 q 408 1227 394 1218 q 453 1236 422 1236 q 500 1226 485 1236 q 508 1196 515 1217 l 238 111 l 742 111 q 765 98 758 111 q 764 56 771 85 q 746 14 758 28 q 717 0 733 0 l 150 0 m 142 501 q 107 501 121 494 q 82 531 93 507 q 77 566 75 547 q 99 593 79 585 l 582 786 q 613 789 601 793 q 635 767 625 785 q 628 700 661 715 l 142 501 z "},"Ń":{"ha":1233,"x_min":82,"x_max":1286,"o":"m 143 -19 q 92 19 82 -19 l 389 1199 q 412 1227 394 1218 q 458 1236 429 1236 q 497 1227 483 1236 q 519 1199 511 1218 l 906 224 l 1153 1199 q 1176 1227 1158 1218 q 1222 1236 1193 1236 q 1274 1199 1286 1236 l 976 19 q 955 -10 972 0 q 908 -19 938 -19 q 875 -12 886 -19 q 856 19 864 -6 l 464 1008 l 213 19 q 191 -10 208 0 q 143 -19 174 -19 m 799 1293 q 765 1313 785 1293 q 746 1346 746 1332 q 747 1356 746 1351 q 758 1369 749 1361 l 963 1568 q 976 1579 971 1575 q 989 1583 981 1583 q 1021 1571 1003 1583 q 1052 1542 1039 1558 q 1065 1511 1065 1525 q 1063 1494 1065 1501 q 1044 1476 1060 1488 l 825 1307 q 810 1297 817 1301 q 799 1293 804 1293 z "},"Ň":{"ha":1233,"x_min":82,"x_max":1286,"o":"m 143 -19 q 92 19 82 -19 l 389 1199 q 412 1227 394 1218 q 458 1236 429 1236 q 497 1227 483 1236 q 519 1199 511 1218 l 906 224 l 1153 1199 q 1176 1227 1158 1218 q 1222 1236 1193 1236 q 1274 1199 1286 1236 l 976 19 q 955 -10 972 0 q 908 -19 938 -19 q 875 -12 886 -19 q 856 19 864 -6 l 464 1008 l 213 19 q 191 -10 208 0 q 143 -19 174 -19 m 1117 1582 q 1147 1565 1133 1582 q 1161 1533 1161 1549 q 1158 1516 1161 1522 q 1147 1503 1154 1510 l 933 1324 q 898 1301 915 1310 q 857 1293 881 1293 q 824 1303 838 1293 q 799 1328 810 1313 l 660 1511 q 651 1529 653 1522 q 650 1540 650 1536 q 670 1569 650 1557 q 703 1582 690 1582 q 724 1576 717 1582 q 739 1561 731 1569 l 878 1435 l 1078 1563 q 1097 1575 1089 1568 q 1117 1582 1106 1582 z "},"Ņ":{"ha":1233,"x_min":82,"x_max":1286,"o":"m 143 -19 q 92 19 82 -19 l 389 1199 q 412 1227 394 1218 q 458 1236 429 1236 q 497 1227 483 1236 q 519 1199 511 1218 l 906 224 l 1153 1199 q 1176 1227 1158 1218 q 1222 1236 1193 1236 q 1274 1199 1286 1236 l 976 19 q 955 -10 972 0 q 908 -19 938 -19 q 875 -12 886 -19 q 856 19 864 -6 l 464 1008 l 213 19 q 191 -10 208 0 q 143 -19 174 -19 m 388 -400 q 368 -374 371 -389 q 378 -343 365 -360 q 415 -275 400 -306 q 438 -213 431 -244 q 449 -140 444 -182 q 465 -107 450 -117 q 507 -97 481 -97 q 555 -112 539 -97 q 568 -154 571 -128 q 551 -228 567 -189 q 510 -305 535 -267 q 454 -376 485 -343 q 422 -402 438 -396 q 388 -400 406 -408 z "},"Ñ":{"ha":1233,"x_min":82,"x_max":1286,"o":"m 143 -19 q 92 19 82 -19 l 389 1199 q 412 1227 394 1218 q 458 1236 429 1236 q 497 1227 483 1236 q 519 1199 511 1218 l 906 224 l 1153 1199 q 1176 1227 1158 1218 q 1222 1236 1193 1236 q 1274 1199 1286 1236 l 976 19 q 955 -10 972 0 q 908 -19 938 -19 q 875 -12 886 -19 q 856 19 864 -6 l 464 1008 l 213 19 q 191 -10 208 0 q 143 -19 174 -19 m 676 1333 q 633 1371 632 1333 q 670 1504 638 1463 q 763 1546 703 1546 q 840 1532 803 1546 q 910 1498 878 1518 q 971 1463 943 1478 q 1019 1449 999 1449 q 1043 1464 1032 1449 q 1060 1513 1054 1479 q 1114 1549 1063 1549 q 1147 1539 1138 1549 q 1156 1511 1157 1529 q 1119 1378 1150 1422 q 1025 1335 1089 1335 q 944 1349 981 1335 q 876 1382 907 1363 q 818 1415 844 1401 q 767 1429 792 1429 q 741 1415 751 1429 q 728 1369 731 1401 q 713 1342 726 1351 q 676 1333 699 1333 z "},"Ó":{"ha":1285,"x_min":164,"x_max":1250,"o":"m 608 -26 q 426 10 508 -26 q 285 112 343 46 q 195 270 226 178 q 164 475 164 363 q 181 646 164 558 q 235 819 199 733 q 324 979 271 904 q 449 1113 378 1054 q 611 1203 521 1171 q 807 1236 701 1236 q 990 1201 908 1236 q 1129 1099 1071 1165 q 1219 940 1188 1032 q 1250 735 1250 847 q 1231 555 1250 646 q 1175 378 1213 464 q 1083 220 1138 293 q 958 92 1029 147 q 799 5 886 36 q 608 -26 713 -26 m 625 92 q 773 118 706 92 q 895 191 840 144 q 993 299 950 238 q 1064 430 1036 360 q 1107 574 1092 500 q 1122 718 1122 647 q 1100 890 1122 815 q 1035 1015 1078 964 q 932 1092 993 1067 q 792 1118 871 1118 q 646 1092 714 1118 q 522 1018 578 1065 q 424 909 467 971 q 352 777 382 847 q 308 635 322 707 q 293 492 293 563 q 315 321 293 396 q 378 195 336 246 q 483 118 421 144 q 625 92 544 92 m 799 1293 q 765 1313 785 1293 q 746 1346 746 1332 q 747 1356 746 1351 q 758 1369 749 1361 l 963 1568 q 976 1579 971 1575 q 989 1583 981 1583 q 1021 1571 1003 1583 q 1052 1542 1039 1558 q 1065 1511 1065 1525 q 1063 1494 1065 1501 q 1044 1476 1060 1488 l 825 1307 q 810 1297 817 1301 q 799 1293 804 1293 z "},"Ŏ":{"ha":1285,"x_min":164,"x_max":1250,"o":"m 608 -26 q 426 10 508 -26 q 285 112 343 46 q 195 270 226 178 q 164 475 164 363 q 181 646 164 558 q 235 819 199 733 q 324 979 271 904 q 449 1113 378 1054 q 611 1203 521 1171 q 807 1236 701 1236 q 990 1201 908 1236 q 1129 1099 1071 1165 q 1219 940 1188 1032 q 1250 735 1250 847 q 1231 555 1250 646 q 1175 378 1213 464 q 1083 220 1138 293 q 958 92 1029 147 q 799 5 886 36 q 608 -26 713 -26 m 625 92 q 773 118 706 92 q 895 191 840 144 q 993 299 950 238 q 1064 430 1036 360 q 1107 574 1092 500 q 1122 718 1122 647 q 1100 890 1122 815 q 1035 1015 1078 964 q 932 1092 993 1067 q 792 1118 871 1118 q 646 1092 714 1118 q 522 1018 578 1065 q 424 909 467 971 q 352 777 382 847 q 308 635 322 707 q 293 492 293 563 q 315 321 293 396 q 378 195 336 246 q 483 118 421 144 q 625 92 544 92 m 871 1292 q 714 1354 769 1292 q 667 1543 658 1417 q 681 1572 668 1563 q 717 1582 694 1582 q 749 1572 738 1582 q 763 1543 761 1561 q 799 1444 765 1475 q 888 1413 833 1413 q 994 1448 950 1413 q 1061 1540 1039 1483 q 1083 1573 1071 1564 q 1114 1582 1094 1582 q 1152 1569 1139 1582 q 1160 1536 1165 1556 q 1095 1392 1133 1446 q 1001 1315 1057 1338 q 871 1292 946 1292 z "},"Ǒ":{"ha":1285,"x_min":164,"x_max":1250,"o":"m 608 -26 q 426 10 508 -26 q 285 112 343 46 q 195 270 226 178 q 164 475 164 363 q 181 646 164 558 q 235 819 199 733 q 324 979 271 904 q 449 1113 378 1054 q 611 1203 521 1171 q 807 1236 701 1236 q 990 1201 908 1236 q 1129 1099 1071 1165 q 1219 940 1188 1032 q 1250 735 1250 847 q 1231 555 1250 646 q 1175 378 1213 464 q 1083 220 1138 293 q 958 92 1029 147 q 799 5 886 36 q 608 -26 713 -26 m 625 92 q 773 118 706 92 q 895 191 840 144 q 993 299 950 238 q 1064 430 1036 360 q 1107 574 1092 500 q 1122 718 1122 647 q 1100 890 1122 815 q 1035 1015 1078 964 q 932 1092 993 1067 q 792 1118 871 1118 q 646 1092 714 1118 q 522 1018 578 1065 q 424 909 467 971 q 352 777 382 847 q 308 635 322 707 q 293 492 293 563 q 315 321 293 396 q 378 195 336 246 q 483 118 421 144 q 625 92 544 92 m 1117 1582 q 1147 1565 1133 1582 q 1161 1533 1161 1549 q 1158 1516 1161 1522 q 1147 1503 1154 1510 l 933 1324 q 898 1301 915 1310 q 857 1293 881 1293 q 824 1303 838 1293 q 799 1328 810 1313 l 660 1511 q 651 1529 653 1522 q 650 1540 650 1536 q 670 1569 650 1557 q 703 1582 690 1582 q 724 1576 717 1582 q 739 1561 731 1569 l 878 1435 l 1078 1563 q 1097 1575 1089 1568 q 1117 1582 1106 1582 z "},"Ô":{"ha":1285,"x_min":164,"x_max":1250,"o":"m 608 -26 q 426 10 508 -26 q 285 112 343 46 q 195 270 226 178 q 164 475 164 363 q 181 646 164 558 q 235 819 199 733 q 324 979 271 904 q 449 1113 378 1054 q 611 1203 521 1171 q 807 1236 701 1236 q 990 1201 908 1236 q 1129 1099 1071 1165 q 1219 940 1188 1032 q 1250 735 1250 847 q 1231 555 1250 646 q 1175 378 1213 464 q 1083 220 1138 293 q 958 92 1029 147 q 799 5 886 36 q 608 -26 713 -26 m 625 92 q 773 118 706 92 q 895 191 840 144 q 993 299 950 238 q 1064 430 1036 360 q 1107 574 1092 500 q 1122 718 1122 647 q 1100 890 1122 815 q 1035 1015 1078 964 q 932 1092 993 1067 q 792 1118 871 1118 q 646 1092 714 1118 q 522 1018 578 1065 q 424 909 467 971 q 352 777 382 847 q 308 635 322 707 q 293 492 293 563 q 315 321 293 396 q 378 195 336 246 q 483 118 421 144 q 625 92 544 92 m 664 1293 q 635 1310 649 1293 q 622 1342 622 1326 q 626 1360 622 1353 q 636 1372 629 1367 l 850 1551 q 885 1575 868 1568 q 926 1582 903 1582 q 960 1573 946 1582 q 985 1549 974 1564 l 1124 1365 q 1132 1349 1131 1356 q 1133 1335 1133 1342 q 1115 1306 1133 1319 q 1085 1293 1097 1293 q 1063 1299 1072 1293 q 1043 1315 1053 1306 l 906 1442 l 704 1308 q 685 1297 694 1301 q 664 1293 675 1293 z "},"Ö":{"ha":1285,"x_min":164,"x_max":1250,"o":"m 608 -26 q 426 10 508 -26 q 285 112 343 46 q 195 270 226 178 q 164 475 164 363 q 181 646 164 558 q 235 819 199 733 q 324 979 271 904 q 449 1113 378 1054 q 611 1203 521 1171 q 807 1236 701 1236 q 990 1201 908 1236 q 1129 1099 1071 1165 q 1219 940 1188 1032 q 1250 735 1250 847 q 1231 555 1250 646 q 1175 378 1213 464 q 1083 220 1138 293 q 958 92 1029 147 q 799 5 886 36 q 608 -26 713 -26 m 625 92 q 773 118 706 92 q 895 191 840 144 q 993 299 950 238 q 1064 430 1036 360 q 1107 574 1092 500 q 1122 718 1122 647 q 1100 890 1122 815 q 1035 1015 1078 964 q 932 1092 993 1067 q 792 1118 871 1118 q 646 1092 714 1118 q 522 1018 578 1065 q 424 909 467 971 q 352 777 382 847 q 308 635 322 707 q 293 492 293 563 q 315 321 293 396 q 378 195 336 246 q 483 118 421 144 q 625 92 544 92 m 706 1338 q 656 1356 675 1338 q 636 1413 636 1375 q 660 1482 636 1451 q 732 1513 683 1513 q 781 1494 763 1513 q 800 1438 800 1475 q 778 1367 801 1397 q 706 1338 756 1338 m 1046 1338 q 995 1356 1015 1338 q 975 1413 975 1375 q 999 1482 975 1451 q 1071 1513 1024 1513 q 1122 1494 1101 1513 q 1142 1438 1142 1475 q 1118 1367 1142 1397 q 1046 1338 1094 1338 z "},"Ò":{"ha":1285,"x_min":164,"x_max":1250,"o":"m 608 -26 q 426 10 508 -26 q 285 112 343 46 q 195 270 226 178 q 164 475 164 363 q 181 646 164 558 q 235 819 199 733 q 324 979 271 904 q 449 1113 378 1054 q 611 1203 521 1171 q 807 1236 701 1236 q 990 1201 908 1236 q 1129 1099 1071 1165 q 1219 940 1188 1032 q 1250 735 1250 847 q 1231 555 1250 646 q 1175 378 1213 464 q 1083 220 1138 293 q 958 92 1029 147 q 799 5 886 36 q 608 -26 713 -26 m 625 92 q 773 118 706 92 q 895 191 840 144 q 993 299 950 238 q 1064 430 1036 360 q 1107 574 1092 500 q 1122 718 1122 647 q 1100 890 1122 815 q 1035 1015 1078 964 q 932 1092 993 1067 q 792 1118 871 1118 q 646 1092 714 1118 q 522 1018 578 1065 q 424 909 467 971 q 352 777 382 847 q 308 635 322 707 q 293 492 293 563 q 315 321 293 396 q 378 195 336 246 q 483 118 421 144 q 625 92 544 92 m 933 1293 q 921 1297 928 1293 q 907 1307 914 1301 l 715 1478 q 698 1496 701 1489 q 694 1513 694 1503 q 708 1543 694 1526 q 740 1572 722 1560 q 771 1583 758 1583 q 785 1579 779 1583 q 799 1568 792 1575 l 975 1368 q 985 1354 983 1358 q 986 1344 986 1350 q 967 1312 986 1331 q 933 1293 947 1293 z "},"Ő":{"ha":1285,"x_min":164,"x_max":1250,"o":"m 608 -26 q 426 10 508 -26 q 285 112 343 46 q 195 270 226 178 q 164 475 164 363 q 181 646 164 558 q 235 819 199 733 q 324 979 271 904 q 449 1113 378 1054 q 611 1203 521 1171 q 807 1236 701 1236 q 990 1201 908 1236 q 1129 1099 1071 1165 q 1219 940 1188 1032 q 1250 735 1250 847 q 1231 555 1250 646 q 1175 378 1213 464 q 1083 220 1138 293 q 958 92 1029 147 q 799 5 886 36 q 608 -26 713 -26 m 625 92 q 773 118 706 92 q 895 191 840 144 q 993 299 950 238 q 1064 430 1036 360 q 1107 574 1092 500 q 1122 718 1122 647 q 1100 890 1122 815 q 1035 1015 1078 964 q 932 1092 993 1067 q 792 1118 871 1118 q 646 1092 714 1118 q 522 1018 578 1065 q 424 909 467 971 q 352 777 382 847 q 308 635 322 707 q 293 492 293 563 q 315 321 293 396 q 378 195 336 246 q 483 118 421 144 q 625 92 544 92 m 717 1293 q 684 1313 703 1293 q 665 1346 665 1332 q 667 1356 665 1351 q 676 1369 668 1361 l 864 1568 q 877 1579 871 1575 q 890 1583 883 1583 q 922 1571 904 1583 q 952 1542 939 1558 q 965 1513 965 1526 q 963 1494 965 1501 q 944 1476 960 1488 l 743 1307 q 728 1297 735 1301 q 717 1293 722 1293 m 978 1293 q 946 1313 965 1293 q 926 1346 926 1332 q 928 1356 926 1351 q 939 1369 929 1361 l 1126 1568 q 1140 1579 1133 1575 q 1154 1583 1146 1583 q 1185 1571 1168 1583 q 1215 1542 1203 1558 q 1228 1513 1228 1526 q 1225 1494 1228 1501 q 1207 1476 1222 1488 l 1004 1307 q 990 1297 997 1301 q 978 1293 983 1293 z "},"Ō":{"ha":1285,"x_min":164,"x_max":1250,"o":"m 608 -26 q 426 10 508 -26 q 285 112 343 46 q 195 270 226 178 q 164 475 164 363 q 181 646 164 558 q 235 819 199 733 q 324 979 271 904 q 449 1113 378 1054 q 611 1203 521 1171 q 807 1236 701 1236 q 990 1201 908 1236 q 1129 1099 1071 1165 q 1219 940 1188 1032 q 1250 735 1250 847 q 1231 555 1250 646 q 1175 378 1213 464 q 1083 220 1138 293 q 958 92 1029 147 q 799 5 886 36 q 608 -26 713 -26 m 625 92 q 773 118 706 92 q 895 191 840 144 q 993 299 950 238 q 1064 430 1036 360 q 1107 574 1092 500 q 1122 718 1122 647 q 1100 890 1122 815 q 1035 1015 1078 964 q 932 1092 993 1067 q 792 1118 871 1118 q 646 1092 714 1118 q 522 1018 578 1065 q 424 909 467 971 q 352 777 382 847 q 308 635 322 707 q 293 492 293 563 q 315 321 293 396 q 378 195 336 246 q 483 118 421 144 q 625 92 544 92 m 699 1379 q 666 1395 672 1379 q 665 1436 660 1411 q 682 1481 671 1465 q 718 1497 693 1497 l 1083 1497 q 1116 1480 1110 1497 q 1118 1436 1122 1463 q 1101 1394 1113 1408 q 1065 1379 1090 1379 l 699 1379 z "},"Ø":{"ha":1285,"x_min":132,"x_max":1268,"o":"m 608 -26 q 426 10 508 -26 q 285 112 343 46 q 195 270 226 178 q 164 475 164 363 q 181 646 164 558 q 235 819 199 733 q 324 979 271 904 q 449 1113 378 1054 q 611 1203 521 1171 q 807 1236 701 1236 q 990 1201 908 1236 q 1129 1099 1071 1165 q 1219 940 1188 1032 q 1250 735 1250 847 q 1231 555 1250 646 q 1175 378 1213 464 q 1083 220 1138 293 q 958 92 1029 147 q 799 5 886 36 q 608 -26 713 -26 m 625 92 q 773 118 706 92 q 895 191 840 144 q 993 299 950 238 q 1064 430 1036 360 q 1107 574 1092 500 q 1122 718 1122 647 q 1100 890 1122 815 q 1035 1015 1078 964 q 932 1092 993 1067 q 792 1118 871 1118 q 646 1092 714 1118 q 522 1018 578 1065 q 424 909 467 971 q 352 777 382 847 q 308 635 322 707 q 293 492 293 563 q 315 321 293 396 q 378 195 336 246 q 483 118 421 144 q 625 92 544 92 m 253 -56 q 223 -75 243 -69 q 176 -60 203 -81 q 160 11 132 -26 l 1161 1254 q 1194 1273 1172 1271 q 1239 1258 1215 1275 q 1263 1224 1258 1244 q 1253 1186 1267 1204 l 253 -56 z "},"Õ":{"ha":1285,"x_min":164,"x_max":1250,"o":"m 608 -26 q 426 10 508 -26 q 285 112 343 46 q 195 270 226 178 q 164 475 164 363 q 181 646 164 558 q 235 819 199 733 q 324 979 271 904 q 449 1113 378 1054 q 611 1203 521 1171 q 807 1236 701 1236 q 990 1201 908 1236 q 1129 1099 1071 1165 q 1219 940 1188 1032 q 1250 735 1250 847 q 1231 555 1250 646 q 1175 378 1213 464 q 1083 220 1138 293 q 958 92 1029 147 q 799 5 886 36 q 608 -26 713 -26 m 625 92 q 773 118 706 92 q 895 191 840 144 q 993 299 950 238 q 1064 430 1036 360 q 1107 574 1092 500 q 1122 718 1122 647 q 1100 890 1122 815 q 1035 1015 1078 964 q 932 1092 993 1067 q 792 1118 871 1118 q 646 1092 714 1118 q 522 1018 578 1065 q 424 909 467 971 q 352 777 382 847 q 308 635 322 707 q 293 492 293 563 q 315 321 293 396 q 378 195 336 246 q 483 118 421 144 q 625 92 544 92 m 676 1333 q 633 1371 632 1333 q 670 1504 638 1463 q 763 1546 703 1546 q 840 1532 803 1546 q 910 1498 878 1518 q 971 1463 943 1478 q 1019 1449 999 1449 q 1043 1464 1032 1449 q 1060 1513 1054 1479 q 1114 1549 1063 1549 q 1147 1539 1138 1549 q 1156 1511 1157 1529 q 1119 1378 1150 1422 q 1025 1335 1089 1335 q 944 1349 981 1335 q 876 1382 907 1363 q 818 1415 844 1401 q 767 1429 792 1429 q 741 1415 751 1429 q 728 1369 731 1401 q 713 1342 726 1351 q 676 1333 699 1333 z "},"Ố":{"ha":1285,"x_min":164,"x_max":1363,"o":"m 608 -26 q 426 10 508 -26 q 285 112 343 46 q 195 270 226 178 q 164 475 164 363 q 181 646 164 558 q 235 819 199 733 q 324 979 271 904 q 449 1113 378 1054 q 611 1203 521 1171 q 807 1236 701 1236 q 990 1201 908 1236 q 1129 1099 1071 1165 q 1219 940 1188 1032 q 1250 735 1250 847 q 1231 555 1250 646 q 1175 378 1213 464 q 1083 220 1138 293 q 958 92 1029 147 q 799 5 886 36 q 608 -26 713 -26 m 625 92 q 773 118 706 92 q 895 191 840 144 q 993 299 950 238 q 1064 430 1036 360 q 1107 574 1092 500 q 1122 718 1122 647 q 1100 890 1122 815 q 1035 1015 1078 964 q 932 1092 993 1067 q 792 1118 871 1118 q 646 1092 714 1118 q 522 1018 578 1065 q 424 909 467 971 q 352 777 382 847 q 308 635 322 707 q 293 492 293 563 q 315 321 293 396 q 378 195 336 246 q 483 118 421 144 q 625 92 544 92 m 664 1293 q 635 1310 649 1293 q 622 1342 622 1326 q 626 1360 622 1353 q 636 1372 629 1367 l 850 1551 q 885 1575 868 1568 q 926 1582 903 1582 q 960 1573 946 1582 q 985 1549 974 1564 l 1124 1365 q 1132 1349 1131 1356 q 1133 1335 1133 1342 q 1115 1306 1133 1319 q 1085 1293 1097 1293 q 1063 1299 1072 1293 q 1043 1315 1053 1306 l 906 1442 l 704 1308 q 685 1297 694 1301 q 664 1293 675 1293 m 1125 1511 q 1092 1531 1111 1511 q 1072 1564 1072 1550 q 1074 1574 1072 1569 q 1085 1588 1075 1578 l 1261 1763 q 1274 1775 1269 1771 q 1288 1779 1279 1779 q 1319 1767 1301 1779 q 1351 1737 1338 1754 q 1364 1706 1364 1719 q 1361 1690 1364 1696 q 1343 1671 1358 1683 l 1151 1525 q 1137 1515 1143 1519 q 1125 1511 1131 1511 z "},"Ộ":{"ha":1285,"x_min":164,"x_max":1250,"o":"m 608 -26 q 426 10 508 -26 q 285 112 343 46 q 195 270 226 178 q 164 475 164 363 q 181 646 164 558 q 235 819 199 733 q 324 979 271 904 q 449 1113 378 1054 q 611 1203 521 1171 q 807 1236 701 1236 q 990 1201 908 1236 q 1129 1099 1071 1165 q 1219 940 1188 1032 q 1250 735 1250 847 q 1231 555 1250 646 q 1175 378 1213 464 q 1083 220 1138 293 q 958 92 1029 147 q 799 5 886 36 q 608 -26 713 -26 m 625 92 q 773 118 706 92 q 895 191 840 144 q 993 299 950 238 q 1064 430 1036 360 q 1107 574 1092 500 q 1122 718 1122 647 q 1100 890 1122 815 q 1035 1015 1078 964 q 932 1092 993 1067 q 792 1118 871 1118 q 646 1092 714 1118 q 522 1018 578 1065 q 424 909 467 971 q 352 777 382 847 q 308 635 322 707 q 293 492 293 563 q 315 321 293 396 q 378 195 336 246 q 483 118 421 144 q 625 92 544 92 m 481 -324 q 431 -305 450 -324 q 411 -249 411 -286 q 435 -179 411 -210 q 507 -149 458 -149 q 557 -167 538 -149 q 576 -222 576 -186 q 553 -293 576 -262 q 481 -324 531 -324 m 664 1293 q 635 1310 649 1293 q 622 1342 622 1326 q 626 1360 622 1353 q 636 1372 629 1367 l 850 1551 q 885 1575 868 1568 q 926 1582 903 1582 q 960 1573 946 1582 q 985 1549 974 1564 l 1124 1365 q 1132 1349 1131 1356 q 1133 1335 1133 1342 q 1115 1306 1133 1319 q 1085 1293 1097 1293 q 1063 1299 1072 1293 q 1043 1315 1053 1306 l 906 1442 l 704 1308 q 685 1297 694 1301 q 664 1293 675 1293 z "},"Ồ":{"ha":1285,"x_min":164,"x_max":1254,"o":"m 608 -26 q 426 10 508 -26 q 285 112 343 46 q 195 270 226 178 q 164 475 164 363 q 181 646 164 558 q 235 819 199 733 q 324 979 271 904 q 449 1113 378 1054 q 611 1203 521 1171 q 807 1236 701 1236 q 990 1201 908 1236 q 1129 1099 1071 1165 q 1219 940 1188 1032 q 1250 735 1250 847 q 1231 555 1250 646 q 1175 378 1213 464 q 1083 220 1138 293 q 958 92 1029 147 q 799 5 886 36 q 608 -26 713 -26 m 625 92 q 773 118 706 92 q 895 191 840 144 q 993 299 950 238 q 1064 430 1036 360 q 1107 574 1092 500 q 1122 718 1122 647 q 1100 890 1122 815 q 1035 1015 1078 964 q 932 1092 993 1067 q 792 1118 871 1118 q 646 1092 714 1118 q 522 1018 578 1065 q 424 909 467 971 q 352 777 382 847 q 308 635 322 707 q 293 492 293 563 q 315 321 293 396 q 378 195 336 246 q 483 118 421 144 q 625 92 544 92 m 664 1293 q 635 1310 649 1293 q 622 1342 622 1326 q 626 1360 622 1353 q 636 1372 629 1367 l 850 1551 q 885 1575 868 1568 q 926 1582 903 1582 q 960 1573 946 1582 q 985 1549 974 1564 l 1124 1365 q 1132 1349 1131 1356 q 1133 1335 1133 1342 q 1115 1306 1133 1319 q 1085 1293 1097 1293 q 1063 1299 1072 1293 q 1043 1315 1053 1306 l 906 1442 l 704 1308 q 685 1297 694 1301 q 664 1293 675 1293 m 1200 1489 q 1188 1492 1194 1489 q 1175 1503 1182 1496 l 1004 1692 q 988 1710 992 1704 q 983 1726 983 1717 q 997 1758 983 1742 q 1028 1785 1010 1775 q 1064 1796 1047 1796 q 1078 1792 1071 1796 q 1092 1779 1085 1788 l 1243 1568 q 1253 1551 1250 1556 q 1256 1540 1256 1546 q 1237 1508 1256 1526 q 1200 1489 1218 1489 z "},"Ổ":{"ha":1285,"x_min":164,"x_max":1324,"o":"m 608 -26 q 426 10 508 -26 q 285 112 343 46 q 195 270 226 178 q 164 475 164 363 q 181 646 164 558 q 235 819 199 733 q 324 979 271 904 q 449 1113 378 1054 q 611 1203 521 1171 q 807 1236 701 1236 q 990 1201 908 1236 q 1129 1099 1071 1165 q 1219 940 1188 1032 q 1250 735 1250 847 q 1231 555 1250 646 q 1175 378 1213 464 q 1083 220 1138 293 q 958 92 1029 147 q 799 5 886 36 q 608 -26 713 -26 m 625 92 q 773 118 706 92 q 895 191 840 144 q 993 299 950 238 q 1064 430 1036 360 q 1107 574 1092 500 q 1122 718 1122 647 q 1100 890 1122 815 q 1035 1015 1078 964 q 932 1092 993 1067 q 792 1118 871 1118 q 646 1092 714 1118 q 522 1018 578 1065 q 424 909 467 971 q 352 777 382 847 q 308 635 322 707 q 293 492 293 563 q 315 321 293 396 q 378 195 336 246 q 483 118 421 144 q 625 92 544 92 m 664 1293 q 635 1310 649 1293 q 622 1342 622 1326 q 626 1360 622 1353 q 636 1372 629 1367 l 850 1551 q 885 1575 868 1568 q 926 1582 903 1582 q 960 1573 946 1582 q 985 1549 974 1564 l 1124 1365 q 1132 1349 1131 1356 q 1133 1335 1133 1342 q 1115 1306 1133 1319 q 1085 1293 1097 1293 q 1063 1299 1072 1293 q 1043 1315 1053 1306 l 906 1442 l 704 1308 q 685 1297 694 1301 q 664 1293 675 1293 m 1188 1814 q 1288 1785 1251 1814 q 1324 1706 1324 1756 q 1305 1637 1324 1668 q 1243 1576 1286 1606 q 1213 1550 1222 1561 q 1203 1524 1204 1539 l 1200 1506 q 1184 1478 1199 1488 q 1151 1469 1169 1469 q 1119 1478 1133 1469 q 1103 1501 1106 1486 l 1097 1535 q 1106 1591 1093 1567 q 1146 1635 1118 1615 q 1179 1665 1168 1651 q 1190 1689 1190 1679 q 1181 1706 1190 1700 q 1156 1713 1172 1713 q 1122 1707 1140 1713 q 1082 1694 1103 1701 q 1025 1719 1046 1676 q 1046 1778 1010 1758 q 1113 1804 1078 1794 q 1188 1814 1149 1814 z "},"Ỗ":{"ha":1285,"x_min":164,"x_max":1250,"o":"m 608 -26 q 426 10 508 -26 q 285 112 343 46 q 195 270 226 178 q 164 475 164 363 q 181 646 164 558 q 235 819 199 733 q 324 979 271 904 q 449 1113 378 1054 q 611 1203 521 1171 q 807 1236 701 1236 q 990 1201 908 1236 q 1129 1099 1071 1165 q 1219 940 1188 1032 q 1250 735 1250 847 q 1231 555 1250 646 q 1175 378 1213 464 q 1083 220 1138 293 q 958 92 1029 147 q 799 5 886 36 q 608 -26 713 -26 m 625 92 q 773 118 706 92 q 895 191 840 144 q 993 299 950 238 q 1064 430 1036 360 q 1107 574 1092 500 q 1122 718 1122 647 q 1100 890 1122 815 q 1035 1015 1078 964 q 932 1092 993 1067 q 792 1118 871 1118 q 646 1092 714 1118 q 522 1018 578 1065 q 424 909 467 971 q 352 777 382 847 q 308 635 322 707 q 293 492 293 563 q 315 321 293 396 q 378 195 336 246 q 483 118 421 144 q 625 92 544 92 m 664 1293 q 635 1310 649 1293 q 622 1342 622 1326 q 626 1360 622 1353 q 636 1372 629 1367 l 850 1551 q 885 1575 868 1568 q 926 1582 903 1582 q 960 1573 946 1582 q 985 1549 974 1564 l 1124 1365 q 1132 1349 1131 1356 q 1133 1335 1133 1342 q 1115 1306 1133 1319 q 1085 1293 1097 1293 q 1063 1299 1072 1293 q 1043 1315 1053 1306 l 906 1442 l 704 1308 q 685 1297 694 1301 q 664 1293 675 1293 m 724 1599 q 682 1638 681 1599 q 719 1771 686 1729 q 811 1813 751 1813 q 888 1798 851 1813 q 958 1764 925 1783 q 1019 1730 992 1744 q 1068 1715 1047 1715 q 1091 1731 1079 1715 q 1107 1779 1103 1746 q 1163 1814 1111 1814 q 1195 1805 1186 1814 q 1203 1778 1204 1796 q 1168 1644 1199 1689 q 1072 1600 1138 1600 q 992 1615 1029 1600 q 924 1649 956 1629 q 866 1682 893 1668 q 815 1696 839 1696 q 789 1681 799 1696 q 775 1635 779 1667 q 760 1608 774 1617 q 724 1599 747 1599 z "},"Ọ":{"ha":1285,"x_min":164,"x_max":1250,"o":"m 608 -26 q 426 10 508 -26 q 285 112 343 46 q 195 270 226 178 q 164 475 164 363 q 181 646 164 558 q 235 819 199 733 q 324 979 271 904 q 449 1113 378 1054 q 611 1203 521 1171 q 807 1236 701 1236 q 990 1201 908 1236 q 1129 1099 1071 1165 q 1219 940 1188 1032 q 1250 735 1250 847 q 1231 555 1250 646 q 1175 378 1213 464 q 1083 220 1138 293 q 958 92 1029 147 q 799 5 886 36 q 608 -26 713 -26 m 625 92 q 773 118 706 92 q 895 191 840 144 q 993 299 950 238 q 1064 430 1036 360 q 1107 574 1092 500 q 1122 718 1122 647 q 1100 890 1122 815 q 1035 1015 1078 964 q 932 1092 993 1067 q 792 1118 871 1118 q 646 1092 714 1118 q 522 1018 578 1065 q 424 909 467 971 q 352 777 382 847 q 308 635 322 707 q 293 492 293 563 q 315 321 293 396 q 378 195 336 246 q 483 118 421 144 q 625 92 544 92 m 481 -324 q 431 -305 450 -324 q 411 -249 411 -286 q 435 -179 411 -210 q 507 -149 458 -149 q 557 -167 538 -149 q 576 -222 576 -186 q 553 -293 576 -262 q 481 -324 531 -324 z "},"Ỏ":{"ha":1285,"x_min":164,"x_max":1250,"o":"m 608 -26 q 426 10 508 -26 q 285 112 343 46 q 195 270 226 178 q 164 475 164 363 q 181 646 164 558 q 235 819 199 733 q 324 979 271 904 q 449 1113 378 1054 q 611 1203 521 1171 q 807 1236 701 1236 q 990 1201 908 1236 q 1129 1099 1071 1165 q 1219 940 1188 1032 q 1250 735 1250 847 q 1231 555 1250 646 q 1175 378 1213 464 q 1083 220 1138 293 q 958 92 1029 147 q 799 5 886 36 q 608 -26 713 -26 m 625 92 q 773 118 706 92 q 895 191 840 144 q 993 299 950 238 q 1064 430 1036 360 q 1107 574 1092 500 q 1122 718 1122 647 q 1100 890 1122 815 q 1035 1015 1078 964 q 932 1092 993 1067 q 792 1118 871 1118 q 646 1092 714 1118 q 522 1018 578 1065 q 424 909 467 971 q 352 777 382 847 q 308 635 322 707 q 293 492 293 563 q 315 321 293 396 q 378 195 336 246 q 483 118 421 144 q 625 92 544 92 m 915 1622 q 1015 1593 979 1622 q 1051 1514 1051 1564 q 1033 1446 1051 1476 q 971 1386 1014 1415 q 941 1359 950 1371 q 931 1332 932 1347 l 928 1314 q 912 1288 926 1296 q 879 1278 897 1279 q 847 1286 861 1278 q 831 1311 832 1294 l 825 1343 q 833 1400 821 1376 q 874 1443 846 1424 q 907 1474 896 1460 q 918 1497 918 1488 q 909 1515 918 1508 q 882 1521 900 1521 q 849 1516 868 1521 q 808 1503 831 1511 q 753 1528 774 1486 q 774 1588 738 1567 q 840 1613 806 1604 q 915 1622 875 1622 z "},"Ơ":{"ha":1285,"x_min":164,"x_max":1297,"o":"m 608 -26 q 426 10 508 -26 q 285 112 343 46 q 195 270 226 178 q 164 475 164 363 q 181 646 164 558 q 235 819 199 733 q 324 979 271 904 q 449 1113 378 1054 q 611 1203 521 1171 q 807 1236 701 1236 q 881 1231 846 1236 q 949 1215 917 1226 q 1074 1233 1026 1218 q 1147 1278 1122 1249 q 1177 1353 1171 1307 q 1181 1467 1183 1400 q 1194 1498 1179 1488 q 1231 1510 1210 1508 q 1271 1502 1253 1511 q 1290 1474 1289 1493 q 1292 1362 1297 1414 q 1265 1267 1288 1310 q 1197 1195 1242 1225 q 1074 1150 1151 1165 q 1203 979 1157 1086 q 1250 735 1250 872 q 1231 555 1250 646 q 1175 378 1213 464 q 1083 220 1138 293 q 958 92 1029 147 q 799 5 886 36 q 608 -26 713 -26 m 625 92 q 773 118 706 92 q 895 191 840 144 q 993 299 950 238 q 1064 430 1036 360 q 1107 574 1092 500 q 1122 718 1122 647 q 1100 890 1122 815 q 1035 1015 1078 964 q 932 1092 993 1067 q 792 1118 871 1118 q 646 1092 714 1118 q 522 1018 578 1065 q 424 909 467 971 q 352 777 382 847 q 308 635 322 707 q 293 492 293 563 q 315 321 293 396 q 378 195 336 246 q 483 118 421 144 q 625 92 544 92 z "},"Ớ":{"ha":1285,"x_min":164,"x_max":1297,"o":"m 608 -26 q 426 10 508 -26 q 285 112 343 46 q 195 270 226 178 q 164 475 164 363 q 181 646 164 558 q 235 819 199 733 q 324 979 271 904 q 449 1113 378 1054 q 611 1203 521 1171 q 807 1236 701 1236 q 881 1231 846 1236 q 949 1215 917 1226 q 1074 1233 1026 1218 q 1147 1278 1122 1249 q 1177 1353 1171 1307 q 1181 1467 1183 1400 q 1194 1498 1179 1488 q 1231 1510 1210 1508 q 1271 1502 1253 1511 q 1290 1474 1289 1493 q 1292 1362 1297 1414 q 1265 1267 1288 1310 q 1197 1195 1242 1225 q 1074 1150 1151 1165 q 1203 979 1157 1086 q 1250 735 1250 872 q 1231 555 1250 646 q 1175 378 1213 464 q 1083 220 1138 293 q 958 92 1029 147 q 799 5 886 36 q 608 -26 713 -26 m 625 92 q 773 118 706 92 q 895 191 840 144 q 993 299 950 238 q 1064 430 1036 360 q 1107 574 1092 500 q 1122 718 1122 647 q 1100 890 1122 815 q 1035 1015 1078 964 q 932 1092 993 1067 q 792 1118 871 1118 q 646 1092 714 1118 q 522 1018 578 1065 q 424 909 467 971 q 352 777 382 847 q 308 635 322 707 q 293 492 293 563 q 315 321 293 396 q 378 195 336 246 q 483 118 421 144 q 625 92 544 92 m 799 1293 q 765 1313 785 1293 q 746 1346 746 1332 q 747 1356 746 1351 q 758 1369 749 1361 l 963 1568 q 976 1579 971 1575 q 989 1583 981 1583 q 1021 1571 1003 1583 q 1052 1542 1039 1558 q 1065 1511 1065 1525 q 1063 1494 1065 1501 q 1044 1476 1060 1488 l 825 1307 q 810 1297 817 1301 q 799 1293 804 1293 z "},"Ợ":{"ha":1285,"x_min":164,"x_max":1297,"o":"m 608 -26 q 426 10 508 -26 q 285 112 343 46 q 195 270 226 178 q 164 475 164 363 q 181 646 164 558 q 235 819 199 733 q 324 979 271 904 q 449 1113 378 1054 q 611 1203 521 1171 q 807 1236 701 1236 q 881 1231 846 1236 q 949 1215 917 1226 q 1074 1233 1026 1218 q 1147 1278 1122 1249 q 1177 1353 1171 1307 q 1181 1467 1183 1400 q 1194 1498 1179 1488 q 1231 1510 1210 1508 q 1271 1502 1253 1511 q 1290 1474 1289 1493 q 1292 1362 1297 1414 q 1265 1267 1288 1310 q 1197 1195 1242 1225 q 1074 1150 1151 1165 q 1203 979 1157 1086 q 1250 735 1250 872 q 1231 555 1250 646 q 1175 378 1213 464 q 1083 220 1138 293 q 958 92 1029 147 q 799 5 886 36 q 608 -26 713 -26 m 625 92 q 773 118 706 92 q 895 191 840 144 q 993 299 950 238 q 1064 430 1036 360 q 1107 574 1092 500 q 1122 718 1122 647 q 1100 890 1122 815 q 1035 1015 1078 964 q 932 1092 993 1067 q 792 1118 871 1118 q 646 1092 714 1118 q 522 1018 578 1065 q 424 909 467 971 q 352 777 382 847 q 308 635 322 707 q 293 492 293 563 q 315 321 293 396 q 378 195 336 246 q 483 118 421 144 q 625 92 544 92 m 481 -324 q 431 -305 450 -324 q 411 -249 411 -286 q 435 -179 411 -210 q 507 -149 458 -149 q 557 -167 538 -149 q 576 -222 576 -186 q 553 -293 576 -262 q 481 -324 531 -324 z "},"Ờ":{"ha":1285,"x_min":164,"x_max":1297,"o":"m 608 -26 q 426 10 508 -26 q 285 112 343 46 q 195 270 226 178 q 164 475 164 363 q 181 646 164 558 q 235 819 199 733 q 324 979 271 904 q 449 1113 378 1054 q 611 1203 521 1171 q 807 1236 701 1236 q 881 1231 846 1236 q 949 1215 917 1226 q 1074 1233 1026 1218 q 1147 1278 1122 1249 q 1177 1353 1171 1307 q 1181 1467 1183 1400 q 1194 1498 1179 1488 q 1231 1510 1210 1508 q 1271 1502 1253 1511 q 1290 1474 1289 1493 q 1292 1362 1297 1414 q 1265 1267 1288 1310 q 1197 1195 1242 1225 q 1074 1150 1151 1165 q 1203 979 1157 1086 q 1250 735 1250 872 q 1231 555 1250 646 q 1175 378 1213 464 q 1083 220 1138 293 q 958 92 1029 147 q 799 5 886 36 q 608 -26 713 -26 m 625 92 q 773 118 706 92 q 895 191 840 144 q 993 299 950 238 q 1064 430 1036 360 q 1107 574 1092 500 q 1122 718 1122 647 q 1100 890 1122 815 q 1035 1015 1078 964 q 932 1092 993 1067 q 792 1118 871 1118 q 646 1092 714 1118 q 522 1018 578 1065 q 424 909 467 971 q 352 777 382 847 q 308 635 322 707 q 293 492 293 563 q 315 321 293 396 q 378 195 336 246 q 483 118 421 144 q 625 92 544 92 m 933 1293 q 921 1297 928 1293 q 907 1307 914 1301 l 715 1478 q 698 1496 701 1489 q 694 1513 694 1503 q 708 1543 694 1526 q 740 1572 722 1560 q 771 1583 758 1583 q 785 1579 779 1583 q 799 1568 792 1575 l 975 1368 q 985 1354 983 1358 q 986 1344 986 1350 q 967 1312 986 1331 q 933 1293 947 1293 z "},"Ở":{"ha":1285,"x_min":164,"x_max":1297,"o":"m 608 -26 q 426 10 508 -26 q 285 112 343 46 q 195 270 226 178 q 164 475 164 363 q 181 646 164 558 q 235 819 199 733 q 324 979 271 904 q 449 1113 378 1054 q 611 1203 521 1171 q 807 1236 701 1236 q 881 1231 846 1236 q 949 1215 917 1226 q 1074 1233 1026 1218 q 1147 1278 1122 1249 q 1177 1353 1171 1307 q 1181 1467 1183 1400 q 1194 1498 1179 1488 q 1231 1510 1210 1508 q 1271 1502 1253 1511 q 1290 1474 1289 1493 q 1292 1362 1297 1414 q 1265 1267 1288 1310 q 1197 1195 1242 1225 q 1074 1150 1151 1165 q 1203 979 1157 1086 q 1250 735 1250 872 q 1231 555 1250 646 q 1175 378 1213 464 q 1083 220 1138 293 q 958 92 1029 147 q 799 5 886 36 q 608 -26 713 -26 m 625 92 q 773 118 706 92 q 895 191 840 144 q 993 299 950 238 q 1064 430 1036 360 q 1107 574 1092 500 q 1122 718 1122 647 q 1100 890 1122 815 q 1035 1015 1078 964 q 932 1092 993 1067 q 792 1118 871 1118 q 646 1092 714 1118 q 522 1018 578 1065 q 424 909 467 971 q 352 777 382 847 q 308 635 322 707 q 293 492 293 563 q 315 321 293 396 q 378 195 336 246 q 483 118 421 144 q 625 92 544 92 m 915 1622 q 1015 1593 979 1622 q 1051 1514 1051 1564 q 1033 1446 1051 1476 q 971 1386 1014 1415 q 941 1359 950 1371 q 931 1332 932 1347 l 928 1314 q 912 1288 926 1296 q 879 1278 897 1279 q 847 1286 861 1278 q 831 1311 832 1294 l 825 1343 q 833 1400 821 1376 q 874 1443 846 1424 q 907 1474 896 1460 q 918 1497 918 1488 q 909 1515 918 1508 q 882 1521 900 1521 q 849 1516 868 1521 q 808 1503 831 1511 q 753 1528 774 1486 q 774 1588 738 1567 q 840 1613 806 1604 q 915 1622 875 1622 z "},"Ỡ":{"ha":1285,"x_min":164,"x_max":1297,"o":"m 608 -26 q 426 10 508 -26 q 285 112 343 46 q 195 270 226 178 q 164 475 164 363 q 181 646 164 558 q 235 819 199 733 q 324 979 271 904 q 449 1113 378 1054 q 611 1203 521 1171 q 807 1236 701 1236 q 881 1231 846 1236 q 949 1215 917 1226 q 1074 1233 1026 1218 q 1147 1278 1122 1249 q 1177 1353 1171 1307 q 1181 1467 1183 1400 q 1194 1498 1179 1488 q 1231 1510 1210 1508 q 1271 1502 1253 1511 q 1290 1474 1289 1493 q 1292 1362 1297 1414 q 1265 1267 1288 1310 q 1197 1195 1242 1225 q 1074 1150 1151 1165 q 1203 979 1157 1086 q 1250 735 1250 872 q 1231 555 1250 646 q 1175 378 1213 464 q 1083 220 1138 293 q 958 92 1029 147 q 799 5 886 36 q 608 -26 713 -26 m 625 92 q 773 118 706 92 q 895 191 840 144 q 993 299 950 238 q 1064 430 1036 360 q 1107 574 1092 500 q 1122 718 1122 647 q 1100 890 1122 815 q 1035 1015 1078 964 q 932 1092 993 1067 q 792 1118 871 1118 q 646 1092 714 1118 q 522 1018 578 1065 q 424 909 467 971 q 352 777 382 847 q 308 635 322 707 q 293 492 293 563 q 315 321 293 396 q 378 195 336 246 q 483 118 421 144 q 625 92 544 92 m 633 1333 q 590 1371 589 1333 q 627 1504 594 1463 q 719 1546 660 1546 q 797 1532 760 1546 q 867 1498 835 1518 q 928 1463 900 1478 q 976 1449 956 1449 q 1000 1464 989 1449 q 1017 1513 1011 1479 q 1071 1549 1019 1549 q 1104 1539 1094 1549 q 1113 1511 1114 1529 q 1076 1378 1107 1422 q 982 1335 1046 1335 q 901 1349 938 1335 q 833 1382 864 1363 q 775 1415 801 1401 q 724 1429 749 1429 q 698 1415 708 1429 q 685 1369 688 1401 q 669 1342 683 1351 q 633 1333 656 1333 z "},"Ŕ":{"ha":964,"x_min":89,"x_max":1043,"o":"m 149 -19 q 103 -10 118 -19 q 93 22 89 0 l 383 1178 q 406 1206 389 1197 q 453 1215 422 1215 l 636 1215 q 868 1190 778 1215 q 1001 1107 958 1165 q 1043 950 1043 1049 q 1025 841 1043 892 q 974 747 1007 790 q 891 668 940 703 q 778 607 842 633 q 638 565 715 581 q 471 546 561 550 q 578 384 521 464 q 703 226 636 304 q 850 72 771 149 q 867 42 863 61 q 840 -6 871 22 q 801 -21 821 -24 q 763 -1 781 -18 q 610 160 686 72 q 465 343 533 247 q 342 532 396 439 l 215 19 q 195 -10 210 0 q 149 -19 181 -19 m 369 643 q 511 649 446 643 q 633 668 576 656 q 734 699 689 681 q 813 743 779 718 q 871 799 847 768 q 906 865 894 829 q 918 943 918 901 q 892 1041 918 1006 q 801 1090 865 1076 q 626 1104 738 1104 l 488 1104 l 369 643 m 664 1293 q 631 1313 650 1293 q 611 1346 611 1332 q 613 1356 611 1351 q 624 1369 614 1361 l 828 1568 q 841 1579 836 1575 q 854 1583 846 1583 q 886 1571 868 1583 q 917 1542 904 1558 q 931 1511 931 1525 q 928 1494 931 1501 q 910 1476 925 1488 l 690 1307 q 676 1297 682 1301 q 664 1293 669 1293 z "},"Ř":{"ha":964,"x_min":89,"x_max":1043,"o":"m 149 -19 q 103 -10 118 -19 q 93 22 89 0 l 383 1178 q 406 1206 389 1197 q 453 1215 422 1215 l 636 1215 q 868 1190 778 1215 q 1001 1107 958 1165 q 1043 950 1043 1049 q 1025 841 1043 892 q 974 747 1007 790 q 891 668 940 703 q 778 607 842 633 q 638 565 715 581 q 471 546 561 550 q 578 384 521 464 q 703 226 636 304 q 850 72 771 149 q 867 42 863 61 q 840 -6 871 22 q 801 -21 821 -24 q 763 -1 781 -18 q 610 160 686 72 q 465 343 533 247 q 342 532 396 439 l 215 19 q 195 -10 210 0 q 149 -19 181 -19 m 369 643 q 511 649 446 643 q 633 668 576 656 q 734 699 689 681 q 813 743 779 718 q 871 799 847 768 q 906 865 894 829 q 918 943 918 901 q 892 1041 918 1006 q 801 1090 865 1076 q 626 1104 738 1104 l 488 1104 l 369 643 m 982 1582 q 1013 1565 999 1582 q 1026 1533 1026 1549 q 1023 1516 1026 1522 q 1013 1503 1019 1510 l 799 1324 q 763 1301 781 1310 q 722 1293 746 1293 q 689 1303 703 1293 q 664 1328 675 1313 l 525 1511 q 517 1529 518 1522 q 515 1540 515 1536 q 535 1569 515 1557 q 568 1582 556 1582 q 589 1576 582 1582 q 604 1561 596 1569 l 743 1435 l 943 1563 q 963 1575 954 1568 q 982 1582 971 1582 z "},"Ŗ":{"ha":964,"x_min":89,"x_max":1043,"o":"m 149 -19 q 103 -10 118 -19 q 93 22 89 0 l 383 1178 q 406 1206 389 1197 q 453 1215 422 1215 l 636 1215 q 868 1190 778 1215 q 1001 1107 958 1165 q 1043 950 1043 1049 q 1025 841 1043 892 q 974 747 1007 790 q 891 668 940 703 q 778 607 842 633 q 638 565 715 581 q 471 546 561 550 q 578 384 521 464 q 703 226 636 304 q 850 72 771 149 q 867 42 863 61 q 840 -6 871 22 q 801 -21 821 -24 q 763 -1 781 -18 q 610 160 686 72 q 465 343 533 247 q 342 532 396 439 l 215 19 q 195 -10 210 0 q 149 -19 181 -19 m 369 643 q 511 649 446 643 q 633 668 576 656 q 734 699 689 681 q 813 743 779 718 q 871 799 847 768 q 906 865 894 829 q 918 943 918 901 q 892 1041 918 1006 q 801 1090 865 1076 q 626 1104 738 1104 l 488 1104 l 369 643 m 306 -400 q 286 -374 289 -389 q 296 -343 283 -360 q 333 -275 318 -306 q 356 -213 349 -244 q 367 -140 363 -182 q 383 -107 368 -117 q 425 -97 399 -97 q 473 -112 457 -97 q 486 -154 489 -128 q 469 -228 485 -189 q 428 -305 453 -267 q 372 -376 403 -343 q 340 -402 356 -396 q 306 -400 324 -408 z "},"Ś":{"ha":956,"x_min":47,"x_max":976,"o":"m 431 -26 q 315 -12 369 -26 q 213 28 260 3 q 126 89 165 54 q 58 163 88 124 q 53 194 47 179 q 74 221 58 208 q 109 242 94 238 q 139 229 124 246 q 213 163 169 194 q 310 112 256 132 q 431 92 365 92 q 551 106 496 92 q 646 149 606 121 q 708 221 686 176 q 731 325 731 265 q 717 398 731 365 q 678 459 704 431 q 616 511 653 488 q 529 560 579 535 q 442 608 483 582 q 365 665 400 635 q 303 733 329 696 q 262 817 276 771 q 247 921 247 864 q 274 1049 247 990 q 353 1149 301 1107 q 478 1213 406 1190 q 640 1236 550 1236 q 770 1217 713 1236 q 876 1165 828 1197 q 963 1094 924 1132 q 974 1065 976 1081 q 953 1033 971 1049 q 920 1013 936 1017 q 889 1021 904 1010 q 822 1069 857 1047 q 744 1105 788 1092 q 640 1118 701 1118 q 533 1106 582 1118 q 449 1069 483 1093 q 395 1008 414 1044 q 376 921 376 971 q 388 842 376 876 q 424 778 399 807 q 490 722 450 749 q 589 669 531 696 q 698 606 649 640 q 784 531 747 572 q 840 438 821 489 q 858 325 858 388 q 827 180 858 244 q 738 69 796 115 q 602 -1 681 24 q 431 -26 524 -26 m 610 1293 q 576 1313 596 1293 q 557 1346 557 1332 q 558 1356 557 1351 q 569 1369 560 1361 l 774 1568 q 787 1579 782 1575 q 800 1583 792 1583 q 832 1571 814 1583 q 863 1542 850 1558 q 876 1511 876 1525 q 874 1494 876 1501 q 856 1476 871 1488 l 636 1307 q 622 1297 628 1301 q 610 1293 615 1293 z "},"Š":{"ha":956,"x_min":47,"x_max":976,"o":"m 431 -26 q 315 -12 369 -26 q 213 28 260 3 q 126 89 165 54 q 58 163 88 124 q 53 194 47 179 q 74 221 58 208 q 109 242 94 238 q 139 229 124 246 q 213 163 169 194 q 310 112 256 132 q 431 92 365 92 q 551 106 496 92 q 646 149 606 121 q 708 221 686 176 q 731 325 731 265 q 717 398 731 365 q 678 459 704 431 q 616 511 653 488 q 529 560 579 535 q 442 608 483 582 q 365 665 400 635 q 303 733 329 696 q 262 817 276 771 q 247 921 247 864 q 274 1049 247 990 q 353 1149 301 1107 q 478 1213 406 1190 q 640 1236 550 1236 q 770 1217 713 1236 q 876 1165 828 1197 q 963 1094 924 1132 q 974 1065 976 1081 q 953 1033 971 1049 q 920 1013 936 1017 q 889 1021 904 1010 q 822 1069 857 1047 q 744 1105 788 1092 q 640 1118 701 1118 q 533 1106 582 1118 q 449 1069 483 1093 q 395 1008 414 1044 q 376 921 376 971 q 388 842 376 876 q 424 778 399 807 q 490 722 450 749 q 589 669 531 696 q 698 606 649 640 q 784 531 747 572 q 840 438 821 489 q 858 325 858 388 q 827 180 858 244 q 738 69 796 115 q 602 -1 681 24 q 431 -26 524 -26 m 928 1582 q 958 1565 944 1582 q 972 1533 972 1549 q 969 1516 972 1522 q 958 1503 965 1510 l 744 1324 q 709 1301 726 1310 q 668 1293 692 1293 q 635 1303 649 1293 q 610 1328 621 1313 l 471 1511 q 463 1529 464 1522 q 461 1540 461 1536 q 481 1569 461 1557 q 514 1582 501 1582 q 535 1576 528 1582 q 550 1561 542 1569 l 689 1435 l 889 1563 q 908 1575 900 1568 q 928 1582 917 1582 z "},"Ş":{"ha":956,"x_min":47,"x_max":976,"o":"m 431 -26 q 315 -12 369 -26 q 213 28 260 3 q 126 89 165 54 q 58 163 88 124 q 53 194 47 179 q 74 221 58 208 q 109 242 94 238 q 139 229 124 246 q 213 163 169 194 q 310 112 256 132 q 431 92 365 92 q 551 106 496 92 q 646 149 606 121 q 708 221 686 176 q 731 325 731 265 q 717 398 731 365 q 678 459 704 431 q 616 511 653 488 q 529 560 579 535 q 442 608 483 582 q 365 665 400 635 q 303 733 329 696 q 262 817 276 771 q 247 921 247 864 q 274 1049 247 990 q 353 1149 301 1107 q 478 1213 406 1190 q 640 1236 550 1236 q 770 1217 713 1236 q 876 1165 828 1197 q 963 1094 924 1132 q 974 1065 976 1081 q 953 1033 971 1049 q 920 1013 936 1017 q 889 1021 904 1010 q 822 1069 857 1047 q 744 1105 788 1092 q 640 1118 701 1118 q 533 1106 582 1118 q 449 1069 483 1093 q 395 1008 414 1044 q 376 921 376 971 q 388 842 376 876 q 424 778 399 807 q 490 722 450 749 q 589 669 531 696 q 698 606 649 640 q 784 531 747 572 q 840 438 821 489 q 858 325 858 388 q 827 180 858 244 q 738 69 796 115 q 602 -1 681 24 q 431 -26 524 -26 m 344 -374 q 258 -364 300 -374 q 190 -335 217 -354 q 178 -307 178 -324 q 186 -276 179 -290 q 208 -252 196 -258 q 235 -253 219 -246 q 278 -269 251 -260 q 344 -278 304 -278 q 401 -267 382 -278 q 419 -229 419 -257 q 394 -192 419 -201 q 325 -187 368 -182 q 303 -185 310 -189 q 290 -172 296 -181 q 286 -153 285 -162 q 293 -135 288 -144 l 388 18 l 478 18 l 379 -146 l 339 -124 q 444 -111 400 -103 q 513 -148 489 -119 q 536 -218 536 -176 q 511 -303 536 -268 q 442 -356 486 -337 q 344 -374 399 -374 z "},"Ŝ":{"ha":956,"x_min":47,"x_max":976,"o":"m 431 -26 q 315 -12 369 -26 q 213 28 260 3 q 126 89 165 54 q 58 163 88 124 q 53 194 47 179 q 74 221 58 208 q 109 242 94 238 q 139 229 124 246 q 213 163 169 194 q 310 112 256 132 q 431 92 365 92 q 551 106 496 92 q 646 149 606 121 q 708 221 686 176 q 731 325 731 265 q 717 398 731 365 q 678 459 704 431 q 616 511 653 488 q 529 560 579 535 q 442 608 483 582 q 365 665 400 635 q 303 733 329 696 q 262 817 276 771 q 247 921 247 864 q 274 1049 247 990 q 353 1149 301 1107 q 478 1213 406 1190 q 640 1236 550 1236 q 770 1217 713 1236 q 876 1165 828 1197 q 963 1094 924 1132 q 974 1065 976 1081 q 953 1033 971 1049 q 920 1013 936 1017 q 889 1021 904 1010 q 822 1069 857 1047 q 744 1105 788 1092 q 640 1118 701 1118 q 533 1106 582 1118 q 449 1069 483 1093 q 395 1008 414 1044 q 376 921 376 971 q 388 842 376 876 q 424 778 399 807 q 490 722 450 749 q 589 669 531 696 q 698 606 649 640 q 784 531 747 572 q 840 438 821 489 q 858 325 858 388 q 827 180 858 244 q 738 69 796 115 q 602 -1 681 24 q 431 -26 524 -26 m 475 1293 q 447 1310 460 1293 q 433 1342 433 1326 q 437 1360 433 1353 q 447 1372 440 1367 l 661 1551 q 697 1575 679 1568 q 738 1582 714 1582 q 771 1573 757 1582 q 796 1549 785 1564 l 935 1365 q 943 1349 942 1356 q 944 1335 944 1342 q 926 1306 944 1319 q 896 1293 908 1293 q 874 1299 883 1293 q 854 1315 864 1306 l 717 1442 l 515 1308 q 496 1297 506 1301 q 475 1293 486 1293 z "},"Ș":{"ha":956,"x_min":47,"x_max":976,"o":"m 431 -26 q 315 -12 369 -26 q 213 28 260 3 q 126 89 165 54 q 58 163 88 124 q 53 194 47 179 q 74 221 58 208 q 109 242 94 238 q 139 229 124 246 q 213 163 169 194 q 310 112 256 132 q 431 92 365 92 q 551 106 496 92 q 646 149 606 121 q 708 221 686 176 q 731 325 731 265 q 717 398 731 365 q 678 459 704 431 q 616 511 653 488 q 529 560 579 535 q 442 608 483 582 q 365 665 400 635 q 303 733 329 696 q 262 817 276 771 q 247 921 247 864 q 274 1049 247 990 q 353 1149 301 1107 q 478 1213 406 1190 q 640 1236 550 1236 q 770 1217 713 1236 q 876 1165 828 1197 q 963 1094 924 1132 q 974 1065 976 1081 q 953 1033 971 1049 q 920 1013 936 1017 q 889 1021 904 1010 q 822 1069 857 1047 q 744 1105 788 1092 q 640 1118 701 1118 q 533 1106 582 1118 q 449 1069 483 1093 q 395 1008 414 1044 q 376 921 376 971 q 388 842 376 876 q 424 778 399 807 q 490 722 450 749 q 589 669 531 696 q 698 606 649 640 q 784 531 747 572 q 840 438 821 489 q 858 325 858 388 q 827 180 858 244 q 738 69 796 115 q 602 -1 681 24 q 431 -26 524 -26 m 274 -400 q 254 -374 257 -389 q 264 -343 251 -360 q 301 -275 286 -306 q 324 -213 317 -244 q 335 -140 331 -182 q 351 -107 336 -117 q 393 -97 367 -97 q 441 -112 425 -97 q 454 -154 457 -128 q 437 -228 453 -189 q 396 -305 421 -267 q 340 -376 371 -343 q 308 -402 324 -396 q 274 -400 292 -408 z "},"Ŧ":{"ha":958,"x_min":218,"x_max":1151,"o":"m 386 -21 q 335 18 328 -21 l 610 1104 l 251 1104 q 224 1117 231 1104 q 226 1160 218 1129 q 247 1203 235 1192 q 279 1215 258 1215 l 1119 1215 q 1146 1203 1140 1215 q 1143 1160 1151 1192 q 1124 1117 1135 1129 q 1092 1104 1113 1104 l 732 1104 l 456 18 q 434 -11 451 -1 q 386 -21 417 -21 m 289 557 q 260 572 264 557 q 260 606 256 588 q 272 642 263 625 q 307 658 281 658 l 813 658 q 842 642 839 658 q 843 606 846 625 q 830 572 839 588 q 796 557 821 557 l 289 557 z "},"Ť":{"ha":958,"x_min":218,"x_max":1151,"o":"m 386 -21 q 335 18 328 -21 l 610 1104 l 251 1104 q 224 1117 231 1104 q 226 1160 218 1129 q 247 1203 235 1192 q 279 1215 258 1215 l 1119 1215 q 1146 1203 1140 1215 q 1143 1160 1151 1192 q 1124 1117 1135 1129 q 1092 1104 1113 1104 l 732 1104 l 456 18 q 434 -11 451 -1 q 386 -21 417 -21 m 975 1582 q 1006 1565 992 1582 q 1019 1533 1019 1549 q 1016 1516 1019 1522 q 1006 1503 1013 1510 l 792 1324 q 756 1301 774 1310 q 715 1293 739 1293 q 682 1303 696 1293 q 657 1328 668 1313 l 518 1511 q 510 1529 511 1522 q 508 1540 508 1536 q 528 1569 508 1557 q 561 1582 549 1582 q 582 1576 575 1582 q 597 1561 589 1569 l 736 1435 l 936 1563 q 956 1575 947 1568 q 975 1582 964 1582 z "},"Ţ":{"ha":958,"x_min":153,"x_max":1151,"o":"m 386 -21 q 335 18 328 -21 l 610 1104 l 251 1104 q 224 1117 231 1104 q 226 1160 218 1129 q 247 1203 235 1192 q 279 1215 258 1215 l 1119 1215 q 1146 1203 1140 1215 q 1143 1160 1151 1192 q 1124 1117 1135 1129 q 1092 1104 1113 1104 l 732 1104 l 456 18 q 434 -11 451 -1 q 386 -21 417 -21 m 319 -374 q 233 -364 275 -374 q 165 -335 192 -354 q 153 -307 153 -324 q 161 -276 154 -290 q 183 -252 171 -258 q 210 -253 194 -246 q 253 -269 226 -260 q 319 -278 279 -278 q 376 -267 357 -278 q 394 -229 394 -257 q 369 -192 394 -201 q 300 -187 343 -182 q 278 -185 285 -189 q 265 -172 271 -181 q 261 -153 260 -162 q 268 -135 263 -144 l 363 18 l 453 18 l 354 -146 l 314 -124 q 419 -111 375 -103 q 488 -148 464 -119 q 511 -218 511 -176 q 486 -303 511 -268 q 417 -356 461 -337 q 319 -374 374 -374 z "},"Ț":{"ha":958,"x_min":218,"x_max":1151,"o":"m 386 -21 q 335 18 328 -21 l 610 1104 l 251 1104 q 224 1117 231 1104 q 226 1160 218 1129 q 247 1203 235 1192 q 279 1215 258 1215 l 1119 1215 q 1146 1203 1140 1215 q 1143 1160 1151 1192 q 1124 1117 1135 1129 q 1092 1104 1113 1104 l 732 1104 l 456 18 q 434 -11 451 -1 q 386 -21 417 -21 m 249 -400 q 229 -374 232 -389 q 239 -343 226 -360 q 276 -275 261 -306 q 299 -213 292 -244 q 310 -140 306 -182 q 326 -107 311 -117 q 368 -97 342 -97 q 416 -112 400 -97 q 429 -154 432 -128 q 412 -228 428 -189 q 371 -305 396 -267 q 315 -376 346 -343 q 283 -402 299 -396 q 249 -400 267 -408 z "},"Ú":{"ha":1199,"x_min":153,"x_max":1251,"o":"m 532 -26 q 350 2 428 -26 q 225 85 272 31 q 165 219 178 139 q 179 403 153 300 l 375 1199 q 396 1227 381 1218 q 444 1236 411 1236 q 492 1226 476 1236 q 501 1196 507 1217 l 299 392 q 295 220 272 286 q 381 123 318 154 q 539 92 444 92 q 722 127 644 92 q 851 229 800 163 q 925 392 903 296 l 1118 1199 q 1139 1227 1124 1218 q 1186 1236 1154 1236 q 1242 1196 1251 1236 l 1047 379 q 944 158 1015 249 q 768 21 872 68 q 532 -26 664 -26 m 757 1293 q 724 1313 743 1293 q 704 1346 704 1332 q 706 1356 704 1351 q 717 1369 707 1361 l 921 1568 q 934 1579 929 1575 q 947 1583 939 1583 q 979 1571 961 1583 q 1010 1542 997 1558 q 1024 1511 1024 1525 q 1021 1494 1024 1501 q 1003 1476 1018 1488 l 783 1307 q 769 1297 775 1301 q 757 1293 763 1293 z "},"Ŭ":{"ha":1199,"x_min":153,"x_max":1251,"o":"m 532 -26 q 350 2 428 -26 q 225 85 272 31 q 165 219 178 139 q 179 403 153 300 l 375 1199 q 396 1227 381 1218 q 444 1236 411 1236 q 492 1226 476 1236 q 501 1196 507 1217 l 299 392 q 295 220 272 286 q 381 123 318 154 q 539 92 444 92 q 722 127 644 92 q 851 229 800 163 q 925 392 903 296 l 1118 1199 q 1139 1227 1124 1218 q 1186 1236 1154 1236 q 1242 1196 1251 1236 l 1047 379 q 944 158 1015 249 q 768 21 872 68 q 532 -26 664 -26 m 829 1292 q 672 1354 728 1292 q 625 1543 617 1417 q 640 1572 626 1563 q 675 1582 653 1582 q 708 1572 696 1582 q 721 1543 719 1561 q 758 1444 724 1475 q 846 1413 792 1413 q 953 1448 908 1413 q 1019 1540 997 1483 q 1041 1573 1029 1564 q 1072 1582 1053 1582 q 1110 1569 1097 1582 q 1118 1536 1124 1556 q 1053 1392 1092 1446 q 960 1315 1015 1338 q 829 1292 904 1292 z "},"Ǔ":{"ha":1199,"x_min":153,"x_max":1251,"o":"m 532 -26 q 350 2 428 -26 q 225 85 272 31 q 165 219 178 139 q 179 403 153 300 l 375 1199 q 396 1227 381 1218 q 444 1236 411 1236 q 492 1226 476 1236 q 501 1196 507 1217 l 299 392 q 295 220 272 286 q 381 123 318 154 q 539 92 444 92 q 722 127 644 92 q 851 229 800 163 q 925 392 903 296 l 1118 1199 q 1139 1227 1124 1218 q 1186 1236 1154 1236 q 1242 1196 1251 1236 l 1047 379 q 944 158 1015 249 q 768 21 872 68 q 532 -26 664 -26 m 1075 1582 q 1106 1565 1092 1582 q 1119 1533 1119 1549 q 1116 1516 1119 1522 q 1106 1503 1113 1510 l 892 1324 q 856 1301 874 1310 q 815 1293 839 1293 q 782 1303 796 1293 q 757 1328 768 1313 l 618 1511 q 610 1529 611 1522 q 608 1540 608 1536 q 628 1569 608 1557 q 661 1582 649 1582 q 682 1576 675 1582 q 697 1561 689 1569 l 836 1435 l 1036 1563 q 1056 1575 1047 1568 q 1075 1582 1064 1582 z "},"Û":{"ha":1199,"x_min":153,"x_max":1251,"o":"m 532 -26 q 350 2 428 -26 q 225 85 272 31 q 165 219 178 139 q 179 403 153 300 l 375 1199 q 396 1227 381 1218 q 444 1236 411 1236 q 492 1226 476 1236 q 501 1196 507 1217 l 299 392 q 295 220 272 286 q 381 123 318 154 q 539 92 444 92 q 722 127 644 92 q 851 229 800 163 q 925 392 903 296 l 1118 1199 q 1139 1227 1124 1218 q 1186 1236 1154 1236 q 1242 1196 1251 1236 l 1047 379 q 944 158 1015 249 q 768 21 872 68 q 532 -26 664 -26 m 622 1293 q 594 1310 607 1293 q 581 1342 581 1326 q 584 1360 581 1353 q 594 1372 588 1367 l 808 1551 q 844 1575 826 1568 q 885 1582 861 1582 q 918 1573 904 1582 q 943 1549 932 1564 l 1082 1365 q 1090 1349 1089 1356 q 1092 1335 1092 1342 q 1074 1306 1092 1319 q 1043 1293 1056 1293 q 1021 1299 1031 1293 q 1001 1315 1011 1306 l 864 1442 l 663 1308 q 643 1297 653 1301 q 622 1293 633 1293 z "},"Ü":{"ha":1199,"x_min":153,"x_max":1251,"o":"m 532 -26 q 350 2 428 -26 q 225 85 272 31 q 165 219 178 139 q 179 403 153 300 l 375 1199 q 396 1227 381 1218 q 444 1236 411 1236 q 492 1226 476 1236 q 501 1196 507 1217 l 299 392 q 295 220 272 286 q 381 123 318 154 q 539 92 444 92 q 722 127 644 92 q 851 229 800 163 q 925 392 903 296 l 1118 1199 q 1139 1227 1124 1218 q 1186 1236 1154 1236 q 1242 1196 1251 1236 l 1047 379 q 944 158 1015 249 q 768 21 872 68 q 532 -26 664 -26 m 664 1338 q 614 1356 633 1338 q 594 1413 594 1375 q 618 1482 594 1451 q 690 1513 642 1513 q 740 1494 721 1513 q 758 1438 758 1475 q 737 1367 760 1397 q 664 1338 714 1338 m 1004 1338 q 953 1356 974 1338 q 933 1413 933 1375 q 958 1482 933 1451 q 1029 1513 982 1513 q 1080 1494 1060 1513 q 1100 1438 1100 1475 q 1076 1367 1100 1397 q 1004 1338 1053 1338 z "},"Ù":{"ha":1199,"x_min":153,"x_max":1251,"o":"m 532 -26 q 350 2 428 -26 q 225 85 272 31 q 165 219 178 139 q 179 403 153 300 l 375 1199 q 396 1227 381 1218 q 444 1236 411 1236 q 492 1226 476 1236 q 501 1196 507 1217 l 299 392 q 295 220 272 286 q 381 123 318 154 q 539 92 444 92 q 722 127 644 92 q 851 229 800 163 q 925 392 903 296 l 1118 1199 q 1139 1227 1124 1218 q 1186 1236 1154 1236 q 1242 1196 1251 1236 l 1047 379 q 944 158 1015 249 q 768 21 872 68 q 532 -26 664 -26 m 892 1293 q 879 1297 886 1293 q 865 1307 872 1301 l 674 1478 q 656 1496 660 1489 q 653 1513 653 1503 q 667 1543 653 1526 q 699 1572 681 1560 q 729 1583 717 1583 q 744 1579 738 1583 q 757 1568 750 1575 l 933 1368 q 943 1354 942 1358 q 944 1344 944 1350 q 925 1312 944 1331 q 892 1293 906 1293 z "},"Ű":{"ha":1199,"x_min":153,"x_max":1251,"o":"m 532 -26 q 350 2 428 -26 q 225 85 272 31 q 165 219 178 139 q 179 403 153 300 l 375 1199 q 396 1227 381 1218 q 444 1236 411 1236 q 492 1226 476 1236 q 501 1196 507 1217 l 299 392 q 295 220 272 286 q 381 123 318 154 q 539 92 444 92 q 722 127 644 92 q 851 229 800 163 q 925 392 903 296 l 1118 1199 q 1139 1227 1124 1218 q 1186 1236 1154 1236 q 1242 1196 1251 1236 l 1047 379 q 944 158 1015 249 q 768 21 872 68 q 532 -26 664 -26 m 675 1293 q 642 1313 661 1293 q 624 1346 624 1332 q 625 1356 624 1351 q 635 1369 626 1361 l 822 1568 q 835 1579 829 1575 q 849 1583 842 1583 q 880 1571 863 1583 q 910 1542 897 1558 q 924 1513 924 1526 q 921 1494 924 1501 q 903 1476 918 1488 l 701 1307 q 687 1297 693 1301 q 675 1293 681 1293 m 936 1293 q 904 1313 924 1293 q 885 1346 885 1332 q 886 1356 885 1351 q 897 1369 888 1361 l 1085 1568 q 1098 1579 1092 1575 q 1113 1583 1104 1583 q 1144 1571 1126 1583 q 1174 1542 1161 1558 q 1186 1513 1186 1526 q 1183 1494 1186 1501 q 1165 1476 1181 1488 l 963 1307 q 949 1297 956 1301 q 936 1293 942 1293 z "},"Ū":{"ha":1199,"x_min":153,"x_max":1251,"o":"m 532 -26 q 350 2 428 -26 q 225 85 272 31 q 165 219 178 139 q 179 403 153 300 l 375 1199 q 396 1227 381 1218 q 444 1236 411 1236 q 492 1226 476 1236 q 501 1196 507 1217 l 299 392 q 295 220 272 286 q 381 123 318 154 q 539 92 444 92 q 722 127 644 92 q 851 229 800 163 q 925 392 903 296 l 1118 1199 q 1139 1227 1124 1218 q 1186 1236 1154 1236 q 1242 1196 1251 1236 l 1047 379 q 944 158 1015 249 q 768 21 872 68 q 532 -26 664 -26 m 657 1379 q 624 1395 631 1379 q 624 1436 618 1411 q 640 1481 629 1465 q 676 1497 651 1497 l 1042 1497 q 1074 1480 1068 1497 q 1076 1436 1081 1463 q 1060 1394 1071 1408 q 1024 1379 1049 1379 l 657 1379 z "},"Ų":{"ha":1199,"x_min":153,"x_max":1251,"o":"m 532 -26 q 350 2 428 -26 q 225 85 272 31 q 165 219 178 139 q 179 403 153 300 l 375 1199 q 396 1227 381 1218 q 444 1236 411 1236 q 492 1226 476 1236 q 501 1196 507 1217 l 299 392 q 295 220 272 286 q 381 123 318 154 q 539 92 444 92 q 722 127 644 92 q 851 229 800 163 q 925 392 903 296 l 1118 1199 q 1139 1227 1124 1218 q 1186 1236 1154 1236 q 1242 1196 1251 1236 l 1047 379 q 944 158 1015 249 q 768 21 872 68 q 532 -26 664 -26 m 517 -339 q 449 -316 474 -339 q 424 -251 424 -293 q 441 -183 424 -218 q 492 -112 458 -149 q 573 -38 525 -76 q 682 46 621 0 l 767 43 l 767 36 q 680 -38 719 -3 q 612 -105 640 -74 q 567 -162 583 -136 q 551 -206 551 -187 q 558 -226 551 -219 q 576 -233 565 -233 q 625 -216 601 -233 q 683 -167 649 -199 q 705 -157 690 -160 q 736 -169 719 -154 q 752 -194 749 -181 q 747 -221 756 -208 q 681 -283 721 -257 q 598 -324 642 -310 q 517 -339 554 -339 z "},"Ů":{"ha":1199,"x_min":153,"x_max":1251,"o":"m 532 -26 q 350 2 428 -26 q 225 85 272 31 q 165 219 178 139 q 179 403 153 300 l 375 1199 q 396 1227 381 1218 q 444 1236 411 1236 q 492 1226 476 1236 q 501 1196 507 1217 l 299 392 q 295 220 272 286 q 381 123 318 154 q 539 92 444 92 q 722 127 644 92 q 851 229 800 163 q 925 392 903 296 l 1118 1199 q 1139 1227 1124 1218 q 1186 1236 1154 1236 q 1242 1196 1251 1236 l 1047 379 q 944 158 1015 249 q 768 21 872 68 q 532 -26 664 -26 m 833 1282 q 739 1301 778 1282 q 679 1354 700 1319 q 658 1435 658 1389 q 687 1529 658 1488 q 763 1595 715 1571 q 871 1619 811 1619 q 968 1601 928 1619 q 1029 1547 1008 1582 q 1050 1465 1050 1513 q 1022 1371 1050 1413 q 944 1306 993 1329 q 833 1282 896 1282 m 839 1365 q 918 1394 886 1365 q 950 1464 950 1422 q 928 1517 950 1497 q 867 1536 907 1536 q 791 1508 822 1536 q 760 1439 760 1479 q 781 1385 760 1404 q 839 1365 801 1365 z "},"Ũ":{"ha":1199,"x_min":153,"x_max":1251,"o":"m 532 -26 q 350 2 428 -26 q 225 85 272 31 q 165 219 178 139 q 179 403 153 300 l 375 1199 q 396 1227 381 1218 q 444 1236 411 1236 q 492 1226 476 1236 q 501 1196 507 1217 l 299 392 q 295 220 272 286 q 381 123 318 154 q 539 92 444 92 q 722 127 644 92 q 851 229 800 163 q 925 392 903 296 l 1118 1199 q 1139 1227 1124 1218 q 1186 1236 1154 1236 q 1242 1196 1251 1236 l 1047 379 q 944 158 1015 249 q 768 21 872 68 q 532 -26 664 -26 m 635 1333 q 592 1371 590 1333 q 628 1504 596 1463 q 721 1546 661 1546 q 799 1532 761 1546 q 869 1498 836 1518 q 929 1463 901 1478 q 978 1449 957 1449 q 1001 1464 990 1449 q 1018 1513 1013 1479 q 1072 1549 1021 1549 q 1106 1539 1096 1549 q 1114 1511 1115 1529 q 1078 1378 1108 1422 q 983 1335 1047 1335 q 902 1349 939 1335 q 834 1382 865 1363 q 776 1415 803 1401 q 725 1429 750 1429 q 699 1415 710 1429 q 686 1369 689 1401 q 671 1342 685 1351 q 635 1333 657 1333 z "},"Ǘ":{"ha":1199,"x_min":153,"x_max":1251,"o":"m 532 -26 q 350 2 428 -26 q 225 85 272 31 q 165 219 178 139 q 179 403 153 300 l 375 1199 q 396 1227 381 1218 q 444 1236 411 1236 q 492 1226 476 1236 q 501 1196 507 1217 l 299 392 q 295 220 272 286 q 381 123 318 154 q 539 92 444 92 q 722 127 644 92 q 851 229 800 163 q 925 392 903 296 l 1118 1199 q 1139 1227 1124 1218 q 1186 1236 1154 1236 q 1242 1196 1251 1236 l 1047 379 q 944 158 1015 249 q 768 21 872 68 q 532 -26 664 -26 m 664 1338 q 614 1356 633 1338 q 594 1413 594 1375 q 618 1482 594 1451 q 690 1513 642 1513 q 740 1494 721 1513 q 758 1438 758 1475 q 737 1367 760 1397 q 664 1338 714 1338 m 1004 1338 q 953 1356 974 1338 q 933 1413 933 1375 q 958 1482 933 1451 q 1029 1513 982 1513 q 1080 1494 1060 1513 q 1100 1438 1100 1475 q 1076 1367 1100 1397 q 1004 1338 1053 1338 m 813 1550 q 779 1569 799 1550 q 760 1603 760 1589 q 761 1613 760 1608 q 772 1626 763 1618 l 976 1825 q 990 1836 985 1832 q 1003 1840 994 1840 q 1035 1828 1017 1840 q 1066 1799 1053 1815 q 1079 1768 1079 1782 q 1076 1751 1079 1758 q 1058 1733 1074 1744 l 839 1564 q 824 1554 831 1558 q 813 1550 818 1550 z "},"Ǚ":{"ha":1199,"x_min":153,"x_max":1251,"o":"m 532 -26 q 350 2 428 -26 q 225 85 272 31 q 165 219 178 139 q 179 403 153 300 l 375 1199 q 396 1227 381 1218 q 444 1236 411 1236 q 492 1226 476 1236 q 501 1196 507 1217 l 299 392 q 295 220 272 286 q 381 123 318 154 q 539 92 444 92 q 722 127 644 92 q 851 229 800 163 q 925 392 903 296 l 1118 1199 q 1139 1227 1124 1218 q 1186 1236 1154 1236 q 1242 1196 1251 1236 l 1047 379 q 944 158 1015 249 q 768 21 872 68 q 532 -26 664 -26 m 664 1338 q 614 1356 633 1338 q 594 1413 594 1375 q 618 1482 594 1451 q 690 1513 642 1513 q 740 1494 721 1513 q 758 1438 758 1475 q 737 1367 760 1397 q 664 1338 714 1338 m 1004 1338 q 953 1356 974 1338 q 933 1413 933 1375 q 958 1482 933 1451 q 1029 1513 982 1513 q 1080 1494 1060 1513 q 1100 1438 1100 1475 q 1076 1367 1100 1397 q 1004 1338 1053 1338 m 1131 1839 q 1161 1822 1147 1839 q 1175 1790 1175 1806 q 1172 1773 1175 1779 q 1161 1760 1168 1767 l 947 1581 q 912 1558 929 1567 q 871 1550 894 1550 q 838 1560 851 1550 q 813 1585 824 1569 l 674 1768 q 665 1786 667 1779 q 664 1797 664 1793 q 684 1826 664 1814 q 717 1839 704 1839 q 738 1833 731 1839 q 753 1818 744 1826 l 892 1692 l 1092 1819 q 1111 1832 1103 1825 q 1131 1839 1119 1839 z "},"Ǜ":{"ha":1199,"x_min":153,"x_max":1251,"o":"m 532 -26 q 350 2 428 -26 q 225 85 272 31 q 165 219 178 139 q 179 403 153 300 l 375 1199 q 396 1227 381 1218 q 444 1236 411 1236 q 492 1226 476 1236 q 501 1196 507 1217 l 299 392 q 295 220 272 286 q 381 123 318 154 q 539 92 444 92 q 722 127 644 92 q 851 229 800 163 q 925 392 903 296 l 1118 1199 q 1139 1227 1124 1218 q 1186 1236 1154 1236 q 1242 1196 1251 1236 l 1047 379 q 944 158 1015 249 q 768 21 872 68 q 532 -26 664 -26 m 664 1338 q 614 1356 633 1338 q 594 1413 594 1375 q 618 1482 594 1451 q 690 1513 642 1513 q 740 1494 721 1513 q 758 1438 758 1475 q 737 1367 760 1397 q 664 1338 714 1338 m 1004 1338 q 953 1356 974 1338 q 933 1413 933 1375 q 958 1482 933 1451 q 1029 1513 982 1513 q 1080 1494 1060 1513 q 1100 1438 1100 1475 q 1076 1367 1100 1397 q 1004 1338 1053 1338 m 947 1550 q 935 1554 942 1550 q 921 1564 928 1558 l 729 1735 q 712 1753 715 1746 q 708 1769 708 1760 q 722 1800 708 1783 q 754 1828 736 1817 q 785 1840 772 1840 q 799 1836 793 1840 q 813 1825 806 1832 l 989 1625 q 999 1611 997 1615 q 1000 1601 1000 1607 q 981 1569 1000 1588 q 947 1550 961 1550 z "},"Ǖ":{"ha":1199,"x_min":153,"x_max":1251,"o":"m 532 -26 q 350 2 428 -26 q 225 85 272 31 q 165 219 178 139 q 179 403 153 300 l 375 1199 q 396 1227 381 1218 q 444 1236 411 1236 q 492 1226 476 1236 q 501 1196 507 1217 l 299 392 q 295 220 272 286 q 381 123 318 154 q 539 92 444 92 q 722 127 644 92 q 851 229 800 163 q 925 392 903 296 l 1118 1199 q 1139 1227 1124 1218 q 1186 1236 1154 1236 q 1242 1196 1251 1236 l 1047 379 q 944 158 1015 249 q 768 21 872 68 q 532 -26 664 -26 m 664 1338 q 614 1356 633 1338 q 594 1413 594 1375 q 618 1482 594 1451 q 690 1513 642 1513 q 740 1494 721 1513 q 758 1438 758 1475 q 737 1367 760 1397 q 664 1338 714 1338 m 1004 1338 q 953 1356 974 1338 q 933 1413 933 1375 q 958 1482 933 1451 q 1029 1513 982 1513 q 1080 1494 1060 1513 q 1100 1438 1100 1475 q 1076 1367 1100 1397 q 1004 1338 1053 1338 m 713 1636 q 680 1652 686 1636 q 679 1693 674 1668 q 696 1738 685 1722 q 732 1754 707 1754 l 1097 1754 q 1130 1737 1124 1754 q 1132 1693 1136 1719 q 1115 1651 1126 1665 q 1079 1636 1104 1636 l 713 1636 z "},"Ụ":{"ha":1199,"x_min":153,"x_max":1251,"o":"m 532 -26 q 350 2 428 -26 q 225 85 272 31 q 165 219 178 139 q 179 403 153 300 l 375 1199 q 396 1227 381 1218 q 444 1236 411 1236 q 492 1226 476 1236 q 501 1196 507 1217 l 299 392 q 295 220 272 286 q 381 123 318 154 q 539 92 444 92 q 722 127 644 92 q 851 229 800 163 q 925 392 903 296 l 1118 1199 q 1139 1227 1124 1218 q 1186 1236 1154 1236 q 1242 1196 1251 1236 l 1047 379 q 944 158 1015 249 q 768 21 872 68 q 532 -26 664 -26 m 438 -324 q 388 -305 407 -324 q 368 -249 368 -286 q 392 -179 368 -210 q 464 -149 415 -149 q 514 -167 494 -149 q 533 -222 533 -186 q 510 -293 533 -262 q 438 -324 488 -324 z "},"Ủ":{"ha":1199,"x_min":153,"x_max":1251,"o":"m 532 -26 q 350 2 428 -26 q 225 85 272 31 q 165 219 178 139 q 179 403 153 300 l 375 1199 q 396 1227 381 1218 q 444 1236 411 1236 q 492 1226 476 1236 q 501 1196 507 1217 l 299 392 q 295 220 272 286 q 381 123 318 154 q 539 92 444 92 q 722 127 644 92 q 851 229 800 163 q 925 392 903 296 l 1118 1199 q 1139 1227 1124 1218 q 1186 1236 1154 1236 q 1242 1196 1251 1236 l 1047 379 q 944 158 1015 249 q 768 21 872 68 q 532 -26 664 -26 m 874 1622 q 974 1593 938 1622 q 1010 1514 1010 1564 q 991 1446 1010 1476 q 929 1386 972 1415 q 899 1359 908 1371 q 889 1332 890 1347 l 886 1314 q 870 1288 885 1296 q 838 1278 856 1279 q 805 1286 819 1278 q 789 1311 790 1294 l 783 1343 q 792 1400 779 1376 q 832 1443 804 1424 q 865 1474 854 1460 q 876 1497 876 1488 q 867 1515 876 1508 q 840 1521 858 1521 q 808 1516 826 1521 q 767 1503 789 1511 q 711 1528 732 1486 q 732 1588 696 1567 q 799 1613 764 1604 q 874 1622 833 1622 z "},"Ư":{"ha":1199,"x_min":153,"x_max":1510,"o":"m 1503 1471 q 1500 1344 1510 1401 q 1456 1243 1490 1286 q 1356 1176 1422 1200 q 1185 1153 1290 1153 l 1206 1233 q 1332 1260 1290 1238 q 1385 1333 1374 1283 q 1392 1464 1397 1383 q 1407 1495 1392 1485 q 1444 1507 1422 1506 q 1483 1500 1465 1508 q 1503 1471 1500 1492 m 532 -26 q 350 2 428 -26 q 225 85 272 31 q 165 219 178 139 q 179 403 153 300 l 375 1199 q 396 1227 381 1218 q 444 1236 411 1236 q 492 1226 476 1236 q 501 1196 507 1217 l 299 392 q 295 220 272 286 q 381 123 318 154 q 539 92 444 92 q 722 127 644 92 q 851 229 800 163 q 925 392 903 296 l 1118 1199 q 1139 1227 1124 1218 q 1186 1236 1154 1236 q 1242 1196 1251 1236 l 1047 379 q 944 158 1015 249 q 768 21 872 68 q 532 -26 664 -26 z "},"Ứ":{"ha":1199,"x_min":153,"x_max":1510,"o":"m 1503 1471 q 1500 1344 1510 1401 q 1456 1243 1490 1286 q 1356 1176 1422 1200 q 1185 1153 1290 1153 l 1206 1233 q 1332 1260 1290 1238 q 1385 1333 1374 1283 q 1392 1464 1397 1383 q 1407 1495 1392 1485 q 1444 1507 1422 1506 q 1483 1500 1465 1508 q 1503 1471 1500 1492 m 532 -26 q 350 2 428 -26 q 225 85 272 31 q 165 219 178 139 q 179 403 153 300 l 375 1199 q 396 1227 381 1218 q 444 1236 411 1236 q 492 1226 476 1236 q 501 1196 507 1217 l 299 392 q 295 220 272 286 q 381 123 318 154 q 539 92 444 92 q 722 127 644 92 q 851 229 800 163 q 925 392 903 296 l 1118 1199 q 1139 1227 1124 1218 q 1186 1236 1154 1236 q 1242 1196 1251 1236 l 1047 379 q 944 158 1015 249 q 768 21 872 68 q 532 -26 664 -26 m 757 1293 q 724 1313 743 1293 q 704 1346 704 1332 q 706 1356 704 1351 q 717 1369 707 1361 l 921 1568 q 934 1579 929 1575 q 947 1583 939 1583 q 979 1571 961 1583 q 1010 1542 997 1558 q 1024 1511 1024 1525 q 1021 1494 1024 1501 q 1003 1476 1018 1488 l 783 1307 q 769 1297 775 1301 q 757 1293 763 1293 z "},"Ự":{"ha":1199,"x_min":153,"x_max":1510,"o":"m 1503 1471 q 1500 1344 1510 1401 q 1456 1243 1490 1286 q 1356 1176 1422 1200 q 1185 1153 1290 1153 l 1206 1233 q 1332 1260 1290 1238 q 1385 1333 1374 1283 q 1392 1464 1397 1383 q 1407 1495 1392 1485 q 1444 1507 1422 1506 q 1483 1500 1465 1508 q 1503 1471 1500 1492 m 532 -26 q 350 2 428 -26 q 225 85 272 31 q 165 219 178 139 q 179 403 153 300 l 375 1199 q 396 1227 381 1218 q 444 1236 411 1236 q 492 1226 476 1236 q 501 1196 507 1217 l 299 392 q 295 220 272 286 q 381 123 318 154 q 539 92 444 92 q 722 127 644 92 q 851 229 800 163 q 925 392 903 296 l 1118 1199 q 1139 1227 1124 1218 q 1186 1236 1154 1236 q 1242 1196 1251 1236 l 1047 379 q 944 158 1015 249 q 768 21 872 68 q 532 -26 664 -26 m 438 -324 q 388 -305 407 -324 q 368 -249 368 -286 q 392 -179 368 -210 q 464 -149 415 -149 q 514 -167 494 -149 q 533 -222 533 -186 q 510 -293 533 -262 q 438 -324 488 -324 z "},"Ừ":{"ha":1199,"x_min":153,"x_max":1510,"o":"m 1503 1471 q 1500 1344 1510 1401 q 1456 1243 1490 1286 q 1356 1176 1422 1200 q 1185 1153 1290 1153 l 1206 1233 q 1332 1260 1290 1238 q 1385 1333 1374 1283 q 1392 1464 1397 1383 q 1407 1495 1392 1485 q 1444 1507 1422 1506 q 1483 1500 1465 1508 q 1503 1471 1500 1492 m 532 -26 q 350 2 428 -26 q 225 85 272 31 q 165 219 178 139 q 179 403 153 300 l 375 1199 q 396 1227 381 1218 q 444 1236 411 1236 q 492 1226 476 1236 q 501 1196 507 1217 l 299 392 q 295 220 272 286 q 381 123 318 154 q 539 92 444 92 q 722 127 644 92 q 851 229 800 163 q 925 392 903 296 l 1118 1199 q 1139 1227 1124 1218 q 1186 1236 1154 1236 q 1242 1196 1251 1236 l 1047 379 q 944 158 1015 249 q 768 21 872 68 q 532 -26 664 -26 m 892 1293 q 879 1297 886 1293 q 865 1307 872 1301 l 674 1478 q 656 1496 660 1489 q 653 1513 653 1503 q 667 1543 653 1526 q 699 1572 681 1560 q 729 1583 717 1583 q 744 1579 738 1583 q 757 1568 750 1575 l 933 1368 q 943 1354 942 1358 q 944 1344 944 1350 q 925 1312 944 1331 q 892 1293 906 1293 z "},"Ử":{"ha":1199,"x_min":153,"x_max":1510,"o":"m 1503 1471 q 1500 1344 1510 1401 q 1456 1243 1490 1286 q 1356 1176 1422 1200 q 1185 1153 1290 1153 l 1206 1233 q 1332 1260 1290 1238 q 1385 1333 1374 1283 q 1392 1464 1397 1383 q 1407 1495 1392 1485 q 1444 1507 1422 1506 q 1483 1500 1465 1508 q 1503 1471 1500 1492 m 532 -26 q 350 2 428 -26 q 225 85 272 31 q 165 219 178 139 q 179 403 153 300 l 375 1199 q 396 1227 381 1218 q 444 1236 411 1236 q 492 1226 476 1236 q 501 1196 507 1217 l 299 392 q 295 220 272 286 q 381 123 318 154 q 539 92 444 92 q 722 127 644 92 q 851 229 800 163 q 925 392 903 296 l 1118 1199 q 1139 1227 1124 1218 q 1186 1236 1154 1236 q 1242 1196 1251 1236 l 1047 379 q 944 158 1015 249 q 768 21 872 68 q 532 -26 664 -26 m 874 1622 q 974 1593 938 1622 q 1010 1514 1010 1564 q 991 1446 1010 1476 q 929 1386 972 1415 q 899 1359 908 1371 q 889 1332 890 1347 l 886 1314 q 870 1288 885 1296 q 838 1278 856 1279 q 805 1286 819 1278 q 789 1311 790 1294 l 783 1343 q 792 1400 779 1376 q 832 1443 804 1424 q 865 1474 854 1460 q 876 1497 876 1488 q 867 1515 876 1508 q 840 1521 858 1521 q 808 1516 826 1521 q 767 1503 789 1511 q 711 1528 732 1486 q 732 1588 696 1567 q 799 1613 764 1604 q 874 1622 833 1622 z "},"Ữ":{"ha":1199,"x_min":153,"x_max":1510,"o":"m 1503 1471 q 1500 1344 1510 1401 q 1456 1243 1490 1286 q 1356 1176 1422 1200 q 1185 1153 1290 1153 l 1206 1233 q 1332 1260 1290 1238 q 1385 1333 1374 1283 q 1392 1464 1397 1383 q 1407 1495 1392 1485 q 1444 1507 1422 1506 q 1483 1500 1465 1508 q 1503 1471 1500 1492 m 532 -26 q 350 2 428 -26 q 225 85 272 31 q 165 219 178 139 q 179 403 153 300 l 375 1199 q 396 1227 381 1218 q 444 1236 411 1236 q 492 1226 476 1236 q 501 1196 507 1217 l 299 392 q 295 220 272 286 q 381 123 318 154 q 539 92 444 92 q 722 127 644 92 q 851 229 800 163 q 925 392 903 296 l 1118 1199 q 1139 1227 1124 1218 q 1186 1236 1154 1236 q 1242 1196 1251 1236 l 1047 379 q 944 158 1015 249 q 768 21 872 68 q 532 -26 664 -26 m 635 1333 q 592 1371 590 1333 q 628 1504 596 1463 q 721 1546 661 1546 q 799 1532 761 1546 q 869 1498 836 1518 q 929 1463 901 1478 q 978 1449 957 1449 q 1001 1464 990 1449 q 1018 1513 1013 1479 q 1072 1549 1021 1549 q 1106 1539 1096 1549 q 1114 1511 1115 1529 q 1078 1378 1108 1422 q 983 1335 1047 1335 q 902 1349 939 1335 q 834 1382 865 1363 q 776 1415 803 1401 q 725 1429 750 1429 q 699 1415 710 1429 q 686 1369 689 1401 q 671 1342 685 1351 q 635 1333 657 1333 z "},"Ẃ":{"ha":1667,"x_min":229,"x_max":1869,"o":"m 396 -19 q 352 -6 368 -19 q 332 49 336 8 l 231 1174 q 244 1217 229 1200 q 293 1235 258 1233 q 336 1228 325 1238 q 350 1192 347 1218 l 436 186 l 963 1182 q 999 1226 982 1217 q 1050 1236 1015 1236 q 1093 1225 1082 1236 q 1107 1186 1104 1214 l 1201 183 l 1728 1188 q 1764 1229 1747 1221 q 1814 1235 1781 1238 q 1859 1213 1849 1233 q 1853 1167 1869 1193 l 1251 36 q 1215 -7 1235 6 q 1160 -19 1194 -19 q 1117 -6 1132 -19 q 1097 49 1101 8 l 1001 1008 l 486 36 q 450 -7 471 6 q 396 -19 429 -19 m 1000 1293 q 967 1313 986 1293 q 947 1346 947 1332 q 949 1356 947 1351 q 960 1369 950 1361 l 1164 1568 q 1177 1579 1172 1575 q 1190 1583 1182 1583 q 1222 1571 1204 1583 q 1253 1542 1240 1558 q 1267 1511 1267 1525 q 1264 1494 1267 1501 q 1246 1476 1261 1488 l 1026 1307 q 1012 1297 1018 1301 q 1000 1293 1006 1293 z "},"Ŵ":{"ha":1667,"x_min":229,"x_max":1869,"o":"m 396 -19 q 352 -6 368 -19 q 332 49 336 8 l 231 1174 q 244 1217 229 1200 q 293 1235 258 1233 q 336 1228 325 1238 q 350 1192 347 1218 l 436 186 l 963 1182 q 999 1226 982 1217 q 1050 1236 1015 1236 q 1093 1225 1082 1236 q 1107 1186 1104 1214 l 1201 183 l 1728 1188 q 1764 1229 1747 1221 q 1814 1235 1781 1238 q 1859 1213 1849 1233 q 1853 1167 1869 1193 l 1251 36 q 1215 -7 1235 6 q 1160 -19 1194 -19 q 1117 -6 1132 -19 q 1097 49 1101 8 l 1001 1008 l 486 36 q 450 -7 471 6 q 396 -19 429 -19 m 865 1293 q 837 1310 850 1293 q 824 1342 824 1326 q 827 1360 824 1353 q 838 1372 831 1367 l 1051 1551 q 1087 1575 1069 1568 q 1128 1582 1104 1582 q 1161 1573 1147 1582 q 1186 1549 1175 1564 l 1325 1365 q 1333 1349 1332 1356 q 1335 1335 1335 1342 q 1317 1306 1335 1319 q 1286 1293 1299 1293 q 1264 1299 1274 1293 q 1244 1315 1254 1306 l 1107 1442 l 906 1308 q 886 1297 896 1301 q 865 1293 876 1293 z "},"Ẅ":{"ha":1667,"x_min":229,"x_max":1869,"o":"m 396 -19 q 352 -6 368 -19 q 332 49 336 8 l 231 1174 q 244 1217 229 1200 q 293 1235 258 1233 q 336 1228 325 1238 q 350 1192 347 1218 l 436 186 l 963 1182 q 999 1226 982 1217 q 1050 1236 1015 1236 q 1093 1225 1082 1236 q 1107 1186 1104 1214 l 1201 183 l 1728 1188 q 1764 1229 1747 1221 q 1814 1235 1781 1238 q 1859 1213 1849 1233 q 1853 1167 1869 1193 l 1251 36 q 1215 -7 1235 6 q 1160 -19 1194 -19 q 1117 -6 1132 -19 q 1097 49 1101 8 l 1001 1008 l 486 36 q 450 -7 471 6 q 396 -19 429 -19 m 907 1338 q 857 1356 876 1338 q 838 1413 838 1375 q 861 1482 838 1451 q 933 1513 885 1513 q 983 1494 964 1513 q 1001 1438 1001 1475 q 980 1367 1003 1397 q 907 1338 957 1338 m 1247 1338 q 1197 1356 1217 1338 q 1176 1413 1176 1375 q 1201 1482 1176 1451 q 1272 1513 1225 1513 q 1323 1494 1303 1513 q 1343 1438 1343 1475 q 1319 1367 1343 1397 q 1247 1338 1296 1338 z "},"Ẁ":{"ha":1667,"x_min":229,"x_max":1869,"o":"m 396 -19 q 352 -6 368 -19 q 332 49 336 8 l 231 1174 q 244 1217 229 1200 q 293 1235 258 1233 q 336 1228 325 1238 q 350 1192 347 1218 l 436 186 l 963 1182 q 999 1226 982 1217 q 1050 1236 1015 1236 q 1093 1225 1082 1236 q 1107 1186 1104 1214 l 1201 183 l 1728 1188 q 1764 1229 1747 1221 q 1814 1235 1781 1238 q 1859 1213 1849 1233 q 1853 1167 1869 1193 l 1251 36 q 1215 -7 1235 6 q 1160 -19 1194 -19 q 1117 -6 1132 -19 q 1097 49 1101 8 l 1001 1008 l 486 36 q 450 -7 471 6 q 396 -19 429 -19 m 1135 1293 q 1122 1297 1129 1293 q 1108 1307 1115 1301 l 917 1478 q 899 1496 903 1489 q 896 1513 896 1503 q 910 1543 896 1526 q 942 1572 924 1560 q 972 1583 960 1583 q 987 1579 981 1583 q 1000 1568 993 1575 l 1176 1368 q 1186 1354 1185 1358 q 1188 1344 1188 1350 q 1168 1312 1188 1331 q 1135 1293 1149 1293 z "},"Ý":{"ha":851,"x_min":213,"x_max":1071,"o":"m 321 -19 q 269 19 260 -19 l 400 529 l 219 1171 q 226 1213 213 1196 q 274 1233 239 1231 q 317 1226 304 1236 q 336 1193 329 1217 l 485 661 l 924 1193 q 963 1226 944 1217 q 1014 1233 981 1236 q 1059 1210 1047 1231 q 1049 1164 1071 1189 l 522 528 l 393 19 q 321 -19 383 -19 m 578 1293 q 544 1313 564 1293 q 525 1346 525 1332 q 526 1356 525 1351 q 538 1369 528 1361 l 742 1568 q 755 1579 750 1575 q 768 1583 760 1583 q 800 1571 782 1583 q 831 1542 818 1558 q 844 1511 844 1525 q 842 1494 844 1501 q 824 1476 839 1488 l 604 1307 q 590 1297 596 1301 q 578 1293 583 1293 z "},"Ŷ":{"ha":851,"x_min":213,"x_max":1071,"o":"m 321 -19 q 269 19 260 -19 l 400 529 l 219 1171 q 226 1213 213 1196 q 274 1233 239 1231 q 317 1226 304 1236 q 336 1193 329 1217 l 485 661 l 924 1193 q 963 1226 944 1217 q 1014 1233 981 1236 q 1059 1210 1047 1231 q 1049 1164 1071 1189 l 522 528 l 393 19 q 321 -19 383 -19 m 443 1293 q 415 1310 428 1293 q 401 1342 401 1326 q 405 1360 401 1353 q 415 1372 408 1367 l 629 1551 q 665 1575 647 1568 q 706 1582 682 1582 q 739 1573 725 1582 q 764 1549 753 1564 l 903 1365 q 911 1349 910 1356 q 913 1335 913 1342 q 894 1306 913 1319 q 864 1293 876 1293 q 842 1299 851 1293 q 822 1315 832 1306 l 685 1442 l 483 1308 q 464 1297 474 1301 q 443 1293 454 1293 z "},"Ÿ":{"ha":851,"x_min":213,"x_max":1071,"o":"m 321 -19 q 269 19 260 -19 l 400 529 l 219 1171 q 226 1213 213 1196 q 274 1233 239 1231 q 317 1226 304 1236 q 336 1193 329 1217 l 485 661 l 924 1193 q 963 1226 944 1217 q 1014 1233 981 1236 q 1059 1210 1047 1231 q 1049 1164 1071 1189 l 522 528 l 393 19 q 321 -19 383 -19 m 485 1338 q 435 1356 454 1338 q 415 1413 415 1375 q 439 1482 415 1451 q 511 1513 463 1513 q 560 1494 542 1513 q 579 1438 579 1475 q 558 1367 581 1397 q 485 1338 535 1338 m 825 1338 q 774 1356 794 1338 q 754 1413 754 1375 q 778 1482 754 1451 q 850 1513 803 1513 q 901 1494 881 1513 q 921 1438 921 1475 q 897 1367 921 1397 q 825 1338 874 1338 z "},"Ỳ":{"ha":851,"x_min":213,"x_max":1071,"o":"m 321 -19 q 269 19 260 -19 l 400 529 l 219 1171 q 226 1213 213 1196 q 274 1233 239 1231 q 317 1226 304 1236 q 336 1193 329 1217 l 485 661 l 924 1193 q 963 1226 944 1217 q 1014 1233 981 1236 q 1059 1210 1047 1231 q 1049 1164 1071 1189 l 522 528 l 393 19 q 321 -19 383 -19 m 713 1293 q 700 1297 707 1293 q 686 1307 693 1301 l 494 1478 q 477 1496 481 1489 q 474 1513 474 1503 q 488 1543 474 1526 q 519 1572 501 1560 q 550 1583 538 1583 q 565 1579 558 1583 q 578 1568 571 1575 l 754 1368 q 764 1354 763 1358 q 765 1344 765 1350 q 746 1312 765 1331 q 713 1293 726 1293 z "},"Ỵ":{"ha":851,"x_min":206,"x_max":1071,"o":"m 321 -19 q 269 19 260 -19 l 400 529 l 219 1171 q 226 1213 213 1196 q 274 1233 239 1231 q 317 1226 304 1236 q 336 1193 329 1217 l 485 661 l 924 1193 q 963 1226 944 1217 q 1014 1233 981 1236 q 1059 1210 1047 1231 q 1049 1164 1071 1189 l 522 528 l 393 19 q 321 -19 383 -19 m 274 -324 q 224 -305 243 -324 q 204 -249 204 -286 q 228 -179 204 -210 q 300 -149 251 -149 q 350 -167 331 -149 q 369 -222 369 -186 q 347 -293 369 -262 q 274 -324 324 -324 z "},"Ỷ":{"ha":851,"x_min":213,"x_max":1071,"o":"m 321 -19 q 269 19 260 -19 l 400 529 l 219 1171 q 226 1213 213 1196 q 274 1233 239 1231 q 317 1226 304 1236 q 336 1193 329 1217 l 485 661 l 924 1193 q 963 1226 944 1217 q 1014 1233 981 1236 q 1059 1210 1047 1231 q 1049 1164 1071 1189 l 522 528 l 393 19 q 321 -19 383 -19 m 693 1622 q 793 1593 757 1622 q 829 1514 829 1564 q 810 1446 829 1476 q 749 1386 792 1415 q 719 1359 728 1371 q 708 1332 710 1347 l 706 1314 q 690 1288 704 1296 q 657 1278 675 1279 q 624 1286 639 1278 q 608 1311 610 1294 l 603 1343 q 611 1400 599 1376 q 651 1443 624 1424 q 685 1474 674 1460 q 696 1497 696 1488 q 687 1515 696 1508 q 660 1521 678 1521 q 627 1516 646 1521 q 586 1503 608 1511 q 531 1528 551 1486 q 551 1588 515 1567 q 618 1613 583 1604 q 693 1622 653 1622 z "},"Ỹ":{"ha":851,"x_min":213,"x_max":1071,"o":"m 321 -19 q 269 19 260 -19 l 400 529 l 219 1171 q 226 1213 213 1196 q 274 1233 239 1231 q 317 1226 304 1236 q 336 1193 329 1217 l 485 661 l 924 1193 q 963 1226 944 1217 q 1014 1233 981 1236 q 1059 1210 1047 1231 q 1049 1164 1071 1189 l 522 528 l 393 19 q 321 -19 383 -19 m 454 1333 q 411 1371 410 1333 q 448 1504 415 1463 q 540 1546 481 1546 q 618 1532 581 1546 q 688 1498 656 1518 q 749 1463 721 1478 q 797 1449 776 1449 q 821 1464 810 1449 q 838 1513 832 1479 q 892 1549 840 1549 q 925 1539 915 1549 q 933 1511 935 1529 q 897 1378 928 1422 q 803 1335 867 1335 q 722 1349 758 1335 q 653 1382 685 1363 q 596 1415 622 1401 q 544 1429 569 1429 q 519 1415 529 1429 q 506 1369 508 1401 q 490 1342 504 1351 q 454 1333 476 1333 z "},"Ź":{"ha":851,"x_min":-62,"x_max":1036,"o":"m -26 0 q -53 13 -43 0 q -62 46 -62 26 q -49 81 -61 65 l 831 1104 l 288 1104 q 265 1118 271 1104 q 264 1160 258 1132 q 283 1202 269 1189 q 313 1215 296 1215 l 993 1215 q 1027 1188 1018 1215 q 1014 1136 1036 1160 l 138 111 l 739 111 q 762 98 756 111 q 763 56 768 85 q 744 14 757 28 q 715 0 732 0 l -26 0 m 565 1293 q 532 1313 551 1293 q 513 1346 513 1332 q 514 1356 513 1351 q 525 1369 515 1361 l 729 1568 q 742 1579 738 1575 q 756 1583 747 1583 q 788 1571 769 1583 q 819 1542 806 1558 q 832 1511 832 1525 q 829 1494 832 1501 q 811 1476 826 1488 l 592 1307 q 577 1297 583 1301 q 565 1293 571 1293 z "},"Ž":{"ha":851,"x_min":-62,"x_max":1036,"o":"m -26 0 q -53 13 -43 0 q -62 46 -62 26 q -49 81 -61 65 l 831 1104 l 288 1104 q 265 1118 271 1104 q 264 1160 258 1132 q 283 1202 269 1189 q 313 1215 296 1215 l 993 1215 q 1027 1188 1018 1215 q 1014 1136 1036 1160 l 138 111 l 739 111 q 762 98 756 111 q 763 56 768 85 q 744 14 757 28 q 715 0 732 0 l -26 0 m 883 1582 q 914 1565 900 1582 q 928 1533 928 1549 q 924 1516 928 1522 q 914 1503 921 1510 l 700 1324 q 665 1301 682 1310 q 624 1293 647 1293 q 590 1303 604 1293 q 565 1328 576 1313 l 426 1511 q 418 1529 419 1522 q 417 1540 417 1536 q 437 1569 417 1557 q 469 1582 457 1582 q 490 1576 483 1582 q 506 1561 497 1569 l 644 1435 l 844 1563 q 864 1575 856 1568 q 883 1582 872 1582 z "},"Ż":{"ha":851,"x_min":-62,"x_max":1036,"o":"m -26 0 q -53 13 -43 0 q -62 46 -62 26 q -49 81 -61 65 l 831 1104 l 288 1104 q 265 1118 271 1104 q 264 1160 258 1132 q 283 1202 269 1189 q 313 1215 296 1215 l 993 1215 q 1027 1188 1018 1215 q 1014 1136 1036 1160 l 138 111 l 739 111 q 762 98 756 111 q 763 56 768 85 q 744 14 757 28 q 715 0 732 0 l -26 0 m 644 1338 q 593 1356 613 1338 q 574 1413 574 1375 q 598 1482 574 1451 q 671 1513 622 1513 q 719 1494 700 1513 q 739 1438 739 1475 q 716 1367 739 1397 q 644 1338 693 1338 z "},"á":{"ha":865,"x_min":57,"x_max":822,"o":"m 229 -24 q 139 5 178 -24 q 78 85 100 33 q 57 210 57 138 q 75 347 57 275 q 129 484 93 418 q 217 603 165 550 q 337 689 269 657 q 486 721 404 721 q 571 710 528 721 q 656 681 614 700 l 657 685 q 677 710 663 704 q 715 715 692 715 q 769 703 756 715 q 774 665 782 690 l 639 144 q 632 106 632 119 q 638 89 632 93 q 651 85 644 85 q 678 93 665 85 q 707 119 692 101 q 740 160 722 136 q 762 176 750 174 q 789 168 774 178 q 817 142 811 156 q 815 114 822 128 q 776 57 803 89 q 713 2 750 25 q 626 -21 675 -21 q 555 -1 579 -21 q 524 51 531 19 q 521 119 517 82 q 533 189 525 156 q 535 204 535 196 q 538 222 536 213 q 434 85 486 140 q 331 3 382 31 q 229 -24 279 -24 m 183 226 q 192 154 183 186 q 219 105 201 122 q 264 88 238 88 q 373 140 314 88 q 494 291 432 192 q 618 531 557 390 l 631 579 q 547 605 586 599 q 476 611 508 611 q 374 587 421 611 q 292 522 328 563 q 233 431 257 482 q 196 328 208 381 q 183 226 183 275 m 493 854 q 463 868 481 854 q 444 897 444 882 q 447 913 444 906 q 457 929 450 919 l 622 1144 q 643 1165 633 1160 q 664 1171 653 1171 q 695 1161 678 1171 q 726 1136 713 1151 q 739 1106 739 1121 q 734 1088 739 1094 q 721 1072 729 1081 l 531 874 q 493 854 511 854 z "},"ă":{"ha":865,"x_min":57,"x_max":849,"o":"m 229 -24 q 139 5 178 -24 q 78 85 100 33 q 57 210 57 138 q 75 347 57 275 q 129 484 93 418 q 217 603 165 550 q 337 689 269 657 q 486 721 404 721 q 571 710 528 721 q 656 681 614 700 l 657 685 q 677 710 663 704 q 715 715 692 715 q 769 703 756 715 q 774 665 782 690 l 639 144 q 632 106 632 119 q 638 89 632 93 q 651 85 644 85 q 678 93 665 85 q 707 119 692 101 q 740 160 722 136 q 762 176 750 174 q 789 168 774 178 q 817 142 811 156 q 815 114 822 128 q 776 57 803 89 q 713 2 750 25 q 626 -21 675 -21 q 555 -1 579 -21 q 524 51 531 19 q 521 119 517 82 q 533 189 525 156 q 535 204 535 196 q 538 222 536 213 q 434 85 486 140 q 331 3 382 31 q 229 -24 279 -24 m 183 226 q 192 154 183 186 q 219 105 201 122 q 264 88 238 88 q 373 140 314 88 q 494 291 432 192 q 618 531 557 390 l 631 579 q 547 605 586 599 q 476 611 508 611 q 374 587 421 611 q 292 522 328 563 q 233 431 257 482 q 196 328 208 381 q 183 226 183 275 m 549 858 q 390 931 442 858 q 354 1136 338 1003 q 369 1165 357 1156 q 406 1175 382 1175 q 442 1164 429 1175 q 454 1136 454 1153 q 482 1022 453 1063 q 565 981 511 981 q 673 1026 628 981 q 740 1131 718 1071 q 761 1164 750 1156 q 794 1172 772 1172 q 835 1160 822 1172 q 842 1128 849 1147 q 776 973 815 1032 q 680 886 736 914 q 549 858 624 858 z "},"ǎ":{"ha":865,"x_min":57,"x_max":838,"o":"m 229 -24 q 139 5 178 -24 q 78 85 100 33 q 57 210 57 138 q 75 347 57 275 q 129 484 93 418 q 217 603 165 550 q 337 689 269 657 q 486 721 404 721 q 571 710 528 721 q 656 681 614 700 l 657 685 q 677 710 663 704 q 715 715 692 715 q 769 703 756 715 q 774 665 782 690 l 639 144 q 632 106 632 119 q 638 89 632 93 q 651 85 644 85 q 678 93 665 85 q 707 119 692 101 q 740 160 722 136 q 762 176 750 174 q 789 168 774 178 q 817 142 811 156 q 815 114 822 128 q 776 57 803 89 q 713 2 750 25 q 626 -21 675 -21 q 555 -1 579 -21 q 524 51 531 19 q 521 119 517 82 q 533 189 525 156 q 535 204 535 196 q 538 222 536 213 q 434 85 486 140 q 331 3 382 31 q 229 -24 279 -24 m 183 226 q 192 154 183 186 q 219 105 201 122 q 264 88 238 88 q 373 140 314 88 q 494 291 432 192 q 618 531 557 390 l 631 579 q 547 605 586 599 q 476 611 508 611 q 374 587 421 611 q 292 522 328 563 q 233 431 257 482 q 196 328 208 381 q 183 226 183 275 m 793 1176 q 823 1161 808 1176 q 838 1129 838 1146 q 833 1111 838 1118 q 824 1097 829 1104 l 613 888 q 578 865 596 872 q 536 858 561 858 q 502 867 517 858 q 478 892 488 876 l 350 1106 q 343 1124 344 1117 q 342 1135 342 1131 q 362 1164 342 1151 q 394 1176 382 1176 q 416 1170 408 1176 q 431 1154 424 1164 l 560 997 l 754 1157 q 773 1170 764 1164 q 793 1176 782 1176 z "},"â":{"ha":865,"x_min":57,"x_max":822,"o":"m 229 -24 q 139 5 178 -24 q 78 85 100 33 q 57 210 57 138 q 75 347 57 275 q 129 484 93 418 q 217 603 165 550 q 337 689 269 657 q 486 721 404 721 q 571 710 528 721 q 656 681 614 700 l 657 685 q 677 710 663 704 q 715 715 692 715 q 769 703 756 715 q 774 665 782 690 l 639 144 q 632 106 632 119 q 638 89 632 93 q 651 85 644 85 q 678 93 665 85 q 707 119 692 101 q 740 160 722 136 q 762 176 750 174 q 789 168 774 178 q 817 142 811 156 q 815 114 822 128 q 776 57 803 89 q 713 2 750 25 q 626 -21 675 -21 q 555 -1 579 -21 q 524 51 531 19 q 521 119 517 82 q 533 189 525 156 q 535 204 535 196 q 538 222 536 213 q 434 85 486 140 q 331 3 382 31 q 229 -24 279 -24 m 183 226 q 192 154 183 186 q 219 105 201 122 q 264 88 238 88 q 373 140 314 88 q 494 291 432 192 q 618 531 557 390 l 631 579 q 547 605 586 599 q 476 611 508 611 q 374 587 421 611 q 292 522 328 563 q 233 431 257 482 q 196 328 208 381 q 183 226 183 275 m 349 847 q 317 863 332 847 q 303 894 303 878 q 308 913 303 906 q 318 926 313 919 l 528 1136 q 563 1160 544 1153 q 604 1167 581 1167 q 639 1158 624 1167 q 663 1132 654 1149 l 792 918 q 799 902 797 908 q 800 889 800 896 q 780 860 800 874 q 747 847 760 847 q 726 853 733 847 q 711 868 718 860 l 582 1026 l 386 868 q 369 854 378 861 q 349 847 360 847 z "},"ä":{"ha":865,"x_min":57,"x_max":822,"o":"m 229 -24 q 139 5 178 -24 q 78 85 100 33 q 57 210 57 138 q 75 347 57 275 q 129 484 93 418 q 217 603 165 550 q 337 689 269 657 q 486 721 404 721 q 571 710 528 721 q 656 681 614 700 l 657 685 q 677 710 663 704 q 715 715 692 715 q 769 703 756 715 q 774 665 782 690 l 639 144 q 632 106 632 119 q 638 89 632 93 q 651 85 644 85 q 678 93 665 85 q 707 119 692 101 q 740 160 722 136 q 762 176 750 174 q 789 168 774 178 q 817 142 811 156 q 815 114 822 128 q 776 57 803 89 q 713 2 750 25 q 626 -21 675 -21 q 555 -1 579 -21 q 524 51 531 19 q 521 119 517 82 q 533 189 525 156 q 535 204 535 196 q 538 222 536 213 q 434 85 486 140 q 331 3 382 31 q 229 -24 279 -24 m 183 226 q 192 154 183 186 q 219 105 201 122 q 264 88 238 88 q 373 140 314 88 q 494 291 432 192 q 618 531 557 390 l 631 579 q 547 605 586 599 q 476 611 508 611 q 374 587 421 611 q 292 522 328 563 q 233 431 257 482 q 196 328 208 381 q 183 226 183 275 m 399 929 q 349 948 368 929 q 329 1003 329 967 q 353 1074 329 1043 q 425 1104 376 1104 q 475 1085 456 1104 q 494 1029 494 1067 q 472 960 494 990 q 399 929 449 929 m 725 929 q 675 948 694 929 q 656 1003 656 967 q 678 1074 656 1043 q 750 1104 701 1104 q 800 1085 781 1104 q 819 1029 819 1067 q 798 960 821 990 q 725 929 775 929 z "},"ǽ":{"ha":1242,"x_min":56,"x_max":1203,"o":"m 56 207 q 76 344 56 272 q 134 482 96 415 q 229 603 172 549 q 361 689 286 657 q 528 721 436 721 q 632 711 582 721 q 735 682 682 701 q 849 631 788 663 q 747 460 788 556 q 707 257 707 365 q 723 165 707 204 q 769 106 739 126 q 849 85 800 85 q 933 103 896 85 q 1002 153 969 122 q 1065 219 1035 183 q 1103 235 1083 239 q 1139 215 1124 231 q 1158 183 1156 200 q 1144 147 1161 167 q 1042 44 1094 82 q 938 -10 990 6 q 833 -26 886 -26 q 694 9 750 -26 q 610 107 638 44 q 582 247 582 169 q 604 400 582 326 q 658 536 626 474 q 719 644 689 599 l 739 554 q 642 595 694 579 q 519 611 589 611 q 376 573 439 611 q 270 474 314 535 q 205 344 226 414 q 183 211 183 275 q 192 144 183 172 q 220 101 201 115 q 268 88 239 88 q 357 122 310 88 q 454 219 404 157 q 556 364 504 281 q 658 543 607 447 l 753 526 q 599 258 669 365 q 468 90 529 151 q 353 2 407 28 q 247 -24 300 -24 q 104 41 153 -24 q 56 207 56 106 m 1203 553 q 1169 449 1203 496 q 1078 367 1136 403 q 948 304 1021 331 q 797 259 875 278 q 643 229 718 240 l 653 326 q 759 348 701 335 q 873 378 817 361 q 976 418 929 394 q 1050 472 1022 442 q 1078 542 1078 503 q 1052 595 1078 579 q 986 611 1026 611 q 869 596 925 611 q 760 546 813 581 l 742 657 q 858 704 796 688 q 1001 721 921 721 q 1151 676 1100 721 q 1203 553 1203 631 m 719 854 q 689 868 707 854 q 671 897 671 882 q 674 913 671 906 q 683 929 676 919 l 849 1144 q 869 1165 860 1160 q 890 1171 879 1171 q 922 1161 904 1171 q 952 1136 939 1151 q 965 1106 965 1121 q 960 1088 965 1094 q 947 1072 956 1081 l 757 874 q 719 854 738 854 z "},"à":{"ha":865,"x_min":57,"x_max":822,"o":"m 229 -24 q 139 5 178 -24 q 78 85 100 33 q 57 210 57 138 q 75 347 57 275 q 129 484 93 418 q 217 603 165 550 q 337 689 269 657 q 486 721 404 721 q 571 710 528 721 q 656 681 614 700 l 657 685 q 677 710 663 704 q 715 715 692 715 q 769 703 756 715 q 774 665 782 690 l 639 144 q 632 106 632 119 q 638 89 632 93 q 651 85 644 85 q 678 93 665 85 q 707 119 692 101 q 740 160 722 136 q 762 176 750 174 q 789 168 774 178 q 817 142 811 156 q 815 114 822 128 q 776 57 803 89 q 713 2 750 25 q 626 -21 675 -21 q 555 -1 579 -21 q 524 51 531 19 q 521 119 517 82 q 533 189 525 156 q 535 204 535 196 q 538 222 536 213 q 434 85 486 140 q 331 3 382 31 q 229 -24 279 -24 m 183 226 q 192 154 183 186 q 219 105 201 122 q 264 88 238 88 q 373 140 314 88 q 494 291 432 192 q 618 531 557 390 l 631 579 q 547 605 586 599 q 476 611 508 611 q 374 587 421 611 q 292 522 328 563 q 233 431 257 482 q 196 328 208 381 q 183 226 183 275 m 576 861 q 558 867 568 861 q 539 890 549 874 l 413 1092 q 405 1108 408 1101 q 401 1124 401 1115 q 414 1151 401 1138 q 445 1174 426 1165 q 482 1182 464 1182 q 526 1143 511 1182 l 621 928 q 626 915 625 921 q 628 904 628 910 q 610 873 628 885 q 576 861 593 861 z "},"ā":{"ha":865,"x_min":57,"x_max":822,"o":"m 229 -24 q 139 5 178 -24 q 78 85 100 33 q 57 210 57 138 q 75 347 57 275 q 129 484 93 418 q 217 603 165 550 q 337 689 269 657 q 486 721 404 721 q 571 710 528 721 q 656 681 614 700 l 657 685 q 677 710 663 704 q 715 715 692 715 q 769 703 756 715 q 774 665 782 690 l 639 144 q 632 106 632 119 q 638 89 632 93 q 651 85 644 85 q 678 93 665 85 q 707 119 692 101 q 740 160 722 136 q 762 176 750 174 q 789 168 774 178 q 817 142 811 156 q 815 114 822 128 q 776 57 803 89 q 713 2 750 25 q 626 -21 675 -21 q 555 -1 579 -21 q 524 51 531 19 q 521 119 517 82 q 533 189 525 156 q 535 204 535 196 q 538 222 536 213 q 434 85 486 140 q 331 3 382 31 q 229 -24 279 -24 m 183 226 q 192 154 183 186 q 219 105 201 122 q 264 88 238 88 q 373 140 314 88 q 494 291 432 192 q 618 531 557 390 l 631 579 q 547 605 586 599 q 476 611 508 611 q 374 587 421 611 q 292 522 328 563 q 233 431 257 482 q 196 328 208 381 q 183 226 183 275 m 383 953 q 351 969 357 953 q 350 1011 344 986 q 366 1056 354 1040 q 401 1071 378 1071 l 764 1071 q 796 1054 790 1071 q 797 1011 801 1038 q 781 968 792 983 q 744 953 769 953 l 383 953 z "},"ą":{"ha":865,"x_min":57,"x_max":822,"o":"m 229 -24 q 139 5 178 -24 q 78 85 100 33 q 57 210 57 138 q 75 347 57 275 q 129 484 93 418 q 217 603 165 550 q 337 689 269 657 q 486 721 404 721 q 571 710 528 721 q 656 681 614 700 l 657 685 q 677 710 663 704 q 715 715 692 715 q 769 703 756 715 q 774 665 782 690 l 639 144 q 632 106 632 119 q 638 89 632 93 q 651 85 644 85 q 678 93 665 85 q 707 119 692 101 q 740 160 722 136 q 762 176 750 174 q 789 168 774 178 q 817 142 811 156 q 815 114 822 128 q 776 57 803 89 q 713 2 750 25 q 626 -21 675 -21 q 555 -1 579 -21 q 524 51 531 19 q 521 119 517 82 q 533 189 525 156 q 535 204 535 196 q 538 222 536 213 q 434 85 486 140 q 331 3 382 31 q 229 -24 279 -24 m 183 226 q 192 154 183 186 q 219 105 201 122 q 264 88 238 88 q 373 140 314 88 q 494 291 432 192 q 618 531 557 390 l 631 579 q 547 605 586 599 q 476 611 508 611 q 374 587 421 611 q 292 522 328 563 q 233 431 257 482 q 196 328 208 381 q 183 226 183 275 m 503 -339 q 435 -316 460 -339 q 410 -251 410 -293 q 427 -183 410 -218 q 478 -112 444 -149 q 559 -38 511 -76 q 668 46 607 0 l 753 43 l 753 36 q 666 -38 706 -3 q 598 -105 626 -74 q 553 -162 569 -136 q 538 -206 538 -187 q 544 -226 538 -219 q 563 -233 551 -233 q 611 -216 588 -233 q 669 -167 635 -199 q 691 -157 676 -160 q 722 -169 706 -154 q 738 -194 735 -181 q 733 -221 742 -208 q 667 -283 707 -257 q 584 -324 628 -310 q 503 -339 540 -339 z "},"å":{"ha":865,"x_min":57,"x_max":822,"o":"m 229 -24 q 139 5 178 -24 q 78 85 100 33 q 57 210 57 138 q 75 347 57 275 q 129 484 93 418 q 217 603 165 550 q 337 689 269 657 q 486 721 404 721 q 571 710 528 721 q 656 681 614 700 l 657 685 q 677 710 663 704 q 715 715 692 715 q 769 703 756 715 q 774 665 782 690 l 639 144 q 632 106 632 119 q 638 89 632 93 q 651 85 644 85 q 678 93 665 85 q 707 119 692 101 q 740 160 722 136 q 762 176 750 174 q 789 168 774 178 q 817 142 811 156 q 815 114 822 128 q 776 57 803 89 q 713 2 750 25 q 626 -21 675 -21 q 555 -1 579 -21 q 524 51 531 19 q 521 119 517 82 q 533 189 525 156 q 535 204 535 196 q 538 222 536 213 q 434 85 486 140 q 331 3 382 31 q 229 -24 279 -24 m 183 226 q 192 154 183 186 q 219 105 201 122 q 264 88 238 88 q 373 140 314 88 q 494 291 432 192 q 618 531 557 390 l 631 579 q 547 605 586 599 q 476 611 508 611 q 374 587 421 611 q 292 522 328 563 q 233 431 257 482 q 196 328 208 381 q 183 226 183 275 m 551 835 q 429 878 474 835 q 385 999 385 921 q 413 1099 385 1054 q 488 1169 440 1143 q 593 1194 535 1194 q 719 1153 674 1194 q 764 1033 764 1111 q 737 933 764 978 q 661 861 710 888 q 551 835 613 835 m 557 918 q 611 934 588 918 q 649 976 635 950 q 664 1032 664 1001 q 645 1092 664 1072 q 588 1111 626 1111 q 537 1096 560 1111 q 500 1055 514 1081 q 486 999 486 1029 q 504 939 486 960 q 557 918 522 918 z "},"ã":{"ha":865,"x_min":57,"x_max":835,"o":"m 229 -24 q 139 5 178 -24 q 78 85 100 33 q 57 210 57 138 q 75 347 57 275 q 129 484 93 418 q 217 603 165 550 q 337 689 269 657 q 486 721 404 721 q 571 710 528 721 q 656 681 614 700 l 657 685 q 677 710 663 704 q 715 715 692 715 q 769 703 756 715 q 774 665 782 690 l 639 144 q 632 106 632 119 q 638 89 632 93 q 651 85 644 85 q 678 93 665 85 q 707 119 692 101 q 740 160 722 136 q 762 176 750 174 q 789 168 774 178 q 817 142 811 156 q 815 114 822 128 q 776 57 803 89 q 713 2 750 25 q 626 -21 675 -21 q 555 -1 579 -21 q 524 51 531 19 q 521 119 517 82 q 533 189 525 156 q 535 204 535 196 q 538 222 536 213 q 434 85 486 140 q 331 3 382 31 q 229 -24 279 -24 m 183 226 q 192 154 183 186 q 219 105 201 122 q 264 88 238 88 q 373 140 314 88 q 494 291 432 192 q 618 531 557 390 l 631 579 q 547 605 586 599 q 476 611 508 611 q 374 587 421 611 q 292 522 328 563 q 233 431 257 482 q 196 328 208 381 q 183 226 183 275 m 349 889 q 306 928 304 889 q 344 1067 311 1021 q 436 1113 378 1113 q 515 1097 478 1113 q 586 1063 553 1082 q 647 1028 619 1043 q 697 1013 675 1013 q 722 1028 711 1013 q 738 1079 732 1044 q 794 1115 743 1115 q 826 1106 817 1115 q 835 1078 835 1097 q 799 939 829 988 q 703 890 768 890 q 622 906 658 890 q 552 940 585 921 q 492 975 519 960 q 442 990 465 990 q 415 974 425 990 q 401 925 406 958 q 385 898 399 907 q 349 889 372 889 z "},"ắ":{"ha":865,"x_min":57,"x_max":849,"o":"m 229 -24 q 139 5 178 -24 q 78 85 100 33 q 57 210 57 138 q 75 347 57 275 q 129 484 93 418 q 217 603 165 550 q 337 689 269 657 q 486 721 404 721 q 571 710 528 721 q 656 681 614 700 l 657 685 q 677 710 663 704 q 715 715 692 715 q 769 703 756 715 q 774 665 782 690 l 639 144 q 632 106 632 119 q 638 89 632 93 q 651 85 644 85 q 678 93 665 85 q 707 119 692 101 q 740 160 722 136 q 762 176 750 174 q 789 168 774 178 q 817 142 811 156 q 815 114 822 128 q 776 57 803 89 q 713 2 750 25 q 626 -21 675 -21 q 555 -1 579 -21 q 524 51 531 19 q 521 119 517 82 q 533 189 525 156 q 535 204 535 196 q 538 222 536 213 q 434 85 486 140 q 331 3 382 31 q 229 -24 279 -24 m 183 226 q 192 154 183 186 q 219 105 201 122 q 264 88 238 88 q 373 140 314 88 q 494 291 432 192 q 618 531 557 390 l 631 579 q 547 605 586 599 q 476 611 508 611 q 374 587 421 611 q 292 522 328 563 q 233 431 257 482 q 196 328 208 381 q 183 226 183 275 m 549 858 q 390 931 442 858 q 354 1136 338 1003 q 369 1165 357 1156 q 406 1175 382 1175 q 442 1164 429 1175 q 454 1136 454 1153 q 482 1022 453 1063 q 565 981 511 981 q 673 1026 628 981 q 740 1131 718 1071 q 761 1164 750 1156 q 794 1172 772 1172 q 835 1160 822 1172 q 842 1128 849 1147 q 776 973 815 1032 q 680 886 736 914 q 549 858 624 858 m 574 1161 q 543 1175 561 1161 q 525 1204 525 1189 q 528 1220 525 1213 q 538 1236 531 1228 l 703 1451 q 724 1472 714 1467 q 744 1478 733 1478 q 776 1468 758 1478 q 806 1443 793 1458 q 819 1413 819 1428 q 815 1394 819 1401 q 801 1381 810 1388 l 611 1182 q 574 1161 592 1161 z "},"ặ":{"ha":865,"x_min":57,"x_max":849,"o":"m 229 -24 q 139 5 178 -24 q 78 85 100 33 q 57 210 57 138 q 75 347 57 275 q 129 484 93 418 q 217 603 165 550 q 337 689 269 657 q 486 721 404 721 q 571 710 528 721 q 656 681 614 700 l 657 685 q 677 710 663 704 q 715 715 692 715 q 769 703 756 715 q 774 665 782 690 l 639 144 q 632 106 632 119 q 638 89 632 93 q 651 85 644 85 q 678 93 665 85 q 707 119 692 101 q 740 160 722 136 q 762 176 750 174 q 789 168 774 178 q 817 142 811 156 q 815 114 822 128 q 776 57 803 89 q 713 2 750 25 q 626 -21 675 -21 q 555 -1 579 -21 q 524 51 531 19 q 521 119 517 82 q 533 189 525 156 q 535 204 535 196 q 538 222 536 213 q 434 85 486 140 q 331 3 382 31 q 229 -24 279 -24 m 183 226 q 192 154 183 186 q 219 105 201 122 q 264 88 238 88 q 373 140 314 88 q 494 291 432 192 q 618 531 557 390 l 631 579 q 547 605 586 599 q 476 611 508 611 q 374 587 421 611 q 292 522 328 563 q 233 431 257 482 q 196 328 208 381 q 183 226 183 275 m 261 -324 q 211 -305 231 -324 q 192 -249 192 -286 q 215 -179 192 -210 q 288 -149 239 -149 q 338 -167 318 -149 q 357 -222 357 -186 q 334 -293 357 -262 q 261 -324 311 -324 m 549 858 q 390 931 442 858 q 354 1136 338 1003 q 369 1165 357 1156 q 406 1175 382 1175 q 442 1164 429 1175 q 454 1136 454 1153 q 482 1022 453 1063 q 565 981 511 981 q 673 1026 628 981 q 740 1131 718 1071 q 761 1164 750 1156 q 794 1172 772 1172 q 835 1160 822 1172 q 842 1128 849 1147 q 776 973 815 1032 q 680 886 736 914 q 549 858 624 858 z "},"ằ":{"ha":865,"x_min":57,"x_max":849,"o":"m 229 -24 q 139 5 178 -24 q 78 85 100 33 q 57 210 57 138 q 75 347 57 275 q 129 484 93 418 q 217 603 165 550 q 337 689 269 657 q 486 721 404 721 q 571 710 528 721 q 656 681 614 700 l 657 685 q 677 710 663 704 q 715 715 692 715 q 769 703 756 715 q 774 665 782 690 l 639 144 q 632 106 632 119 q 638 89 632 93 q 651 85 644 85 q 678 93 665 85 q 707 119 692 101 q 740 160 722 136 q 762 176 750 174 q 789 168 774 178 q 817 142 811 156 q 815 114 822 128 q 776 57 803 89 q 713 2 750 25 q 626 -21 675 -21 q 555 -1 579 -21 q 524 51 531 19 q 521 119 517 82 q 533 189 525 156 q 535 204 535 196 q 538 222 536 213 q 434 85 486 140 q 331 3 382 31 q 229 -24 279 -24 m 183 226 q 192 154 183 186 q 219 105 201 122 q 264 88 238 88 q 373 140 314 88 q 494 291 432 192 q 618 531 557 390 l 631 579 q 547 605 586 599 q 476 611 508 611 q 374 587 421 611 q 292 522 328 563 q 233 431 257 482 q 196 328 208 381 q 183 226 183 275 m 549 858 q 390 931 442 858 q 354 1136 338 1003 q 369 1165 357 1156 q 406 1175 382 1175 q 442 1164 429 1175 q 454 1136 454 1153 q 482 1022 453 1063 q 565 981 511 981 q 673 1026 628 981 q 740 1131 718 1071 q 761 1164 750 1156 q 794 1172 772 1172 q 835 1160 822 1172 q 842 1128 849 1147 q 776 973 815 1032 q 680 886 736 914 q 549 858 624 858 m 638 1163 q 619 1169 629 1163 q 599 1192 610 1175 l 474 1394 q 465 1410 468 1403 q 461 1425 461 1417 q 474 1453 461 1440 q 506 1476 488 1467 q 542 1485 525 1485 q 588 1444 571 1485 l 682 1229 q 686 1217 685 1222 q 688 1206 688 1211 q 671 1174 688 1186 q 638 1163 654 1163 z "}}}
